<?plantuml 1.2026.1?><svg xmlns="http://www.w3.org/2000/svg" xmlns:xlink="http://www.w3.org/1999/xlink" contentStyleType="text/css" data-diagram-type="DESCRIPTION" height="800px" preserveAspectRatio="none" style="width:349px;height:800px;background:#FFFFFF;" version="1.1" viewBox="0 0 349 800" width="349px" zoomAndPan="magnify"><defs/><g><!--cluster GymDesk Platform--><g class="cluster" data-qualified-name="GymDesk Platform" data-source-line="13" id="ent0009"><rect fill="none" height="666" rx="2.5" ry="2.5" style="stroke:#181818;stroke-width:1;" width="190.23" x="153.17" y="128.15"/><text fill="#000000" font-family="sans-serif" font-size="14" font-weight="bold" lengthAdjust="spacing" textLength="147.2393" x="174.6654" y="143.1451">GymDesk Platform</text></g><!--entity UC_AUTH--><g class="entity" data-qualified-name="GymDesk Platform.UC_AUTH" data-source-line="14" id="ent0010"><ellipse cx="248.2751" cy="187.1466" fill="#F1F1F1" rx="69.4251" ry="24.0666" style="stroke:#181818;stroke-width:0.5;"/><text fill="#000000" font-family="sans-serif" font-size="14" lengthAdjust="spacing" textLength="102.7715" x="196.8894" y="186.5938">Authentication</text><text fill="#000000" font-family="sans-serif" font-size="14" lengthAdjust="spacing" textLength="54.0518" x="221.2493" y="202.8907">&amp; RBAC</text></g><!--entity UC_USER--><g class="entity" data-qualified-name="GymDesk Platform.UC_USER" data-source-line="15" id="ent0011"><ellipse cx="248.2843" cy="521.1529" fill="#F1F1F1" rx="79.1143" ry="18.2229" style="stroke:#181818;stroke-width:0.5;"/><text fill="#000000" font-family="sans-serif" font-size="14" lengthAdjust="spacing" textLength="128.584" x="183.9923" y="525.8013">User Management</text></g><!--entity UC_PAY--><g class="entity" data-qualified-name="GymDesk Platform.UC_PAY" data-source-line="16" id="ent0012"><ellipse cx="248.2759" cy="442.1494" fill="#F1F1F1" rx="63.8459" ry="25.9194" style="stroke:#181818;stroke-width:0.5;"/><text fill="#000000" font-family="sans-serif" font-size="14" lengthAdjust="spacing" textLength="86.5293" x="205.0112" y="438.8308">Membership</text><text fill="#000000" font-family="sans-serif" font-size="14" lengthAdjust="spacing" textLength="84.5811" x="205.9854" y="455.1276">&amp; Payments</text></g><!--entity UC_ATT--><g class="entity" data-qualified-name="GymDesk Platform.UC_ATT" data-source-line="17" id="ent0013"><ellipse cx="248.2752" cy="356.1544" fill="#F1F1F1" rx="57.0052" ry="24.8144" style="stroke:#181818;stroke-width:0.5;"/><text fill="#000000" font-family="sans-serif" font-size="14" lengthAdjust="spacing" textLength="80.6914" x="207.9295" y="354.4503">Attendance</text><text fill="#000000" font-family="sans-serif" font-size="14" lengthAdjust="spacing" textLength="60.3408" x="218.1048" y="370.7471">Tracking</text></g><!--entity UC_CLASS--><g class="entity" data-qualified-name="GymDesk Platform.UC_CLASS" data-source-line="18" id="ent0014"><ellipse cx="248.2781" cy="271.1549" fill="#F1F1F1" rx="74.0981" ry="24.7249" style="stroke:#181818;stroke-width:0.5;"/><text fill="#000000" font-family="sans-serif" font-size="14" lengthAdjust="spacing" textLength="106.668" x="194.9442" y="269.5857">Class &amp; Trainer</text><text fill="#000000" font-family="sans-serif" font-size="14" lengthAdjust="spacing" textLength="77.3691" x="209.5936" y="285.8826">Scheduling</text></g><!--entity UC_REPORT--><g class="entity" data-qualified-name="GymDesk Platform.UC_REPORT" data-source-line="19" id="ent0015"><ellipse cx="248.2807" cy="600.1484" fill="#F1F1F1" rx="51.2607" ry="25.5684" style="stroke:#181818;stroke-width:0.5;"/><text fill="#000000" font-family="sans-serif" font-size="14" lengthAdjust="spacing" textLength="69.6992" x="213.4311" y="597.333">Reports &amp;</text><text fill="#000000" font-family="sans-serif" font-size="14" lengthAdjust="spacing" textLength="63.5742" x="216.4936" y="613.6298">Analytics</text></g><!--entity UC_SETTINGS--><g class="entity" data-qualified-name="GymDesk Platform.UC_SETTINGS" data-source-line="20" id="ent0016"><ellipse cx="248.2827" cy="752.149" fill="#F1F1F1" rx="70.0827" ry="26.029" style="stroke:#181818;stroke-width:0.5;"/><text fill="#000000" font-family="sans-serif" font-size="14" lengthAdjust="spacing" textLength="94.6436" x="200.9609" y="748.6233">Gym Settings</text><text fill="#000000" font-family="sans-serif" font-size="14" lengthAdjust="spacing" textLength="94.9443" x="200.8105" y="764.9201">Configuration</text></g><!--entity UC_NOTIFY--><g class="entity" data-qualified-name="GymDesk Platform.UC_NOTIFY" data-source-line="21" id="ent0017"><ellipse cx="248.2779" cy="676.1456" fill="#F1F1F1" rx="62.8279" ry="14.9656" style="stroke:#181818;stroke-width:0.5;"/><text fill="#000000" font-family="sans-serif" font-size="14" lengthAdjust="spacing" textLength="87.623" x="204.4664" y="680.794">Notifications</text></g><!--entity Guest--><g class="entity" data-qualified-name="Guest" data-source-line="5" id="ent0002"><ellipse cx="57.58" cy="22" fill="#F1F1F1" rx="16" ry="16" style="stroke:#181818;stroke-width:0.5;"/><path d="M57.58,42 C61.58,42 64.58,42 68.58,38 C76.58,38 84.58,46 84.58,54 L84.58,58 C84.58,62 80.58,66 76.58,66 L38.58,66 C34.58,66 30.58,62 30.58,58 L30.58,54 C30.58,46 38.58,38 46.58,38 C50.58,42 53.58,42 57.58,42" fill="#F1F1F1" style="stroke:#181818;stroke-width:0.5;"/><text fill="#000000" font-family="sans-serif" font-size="14" lengthAdjust="spacing" textLength="41.1182" x="37.0209" y="79.4951">Guest</text></g><!--entity Member--><g class="entity" data-qualified-name="Member" data-source-line="6" id="ent0003"><ellipse cx="57.583" cy="246" fill="#F1F1F1" rx="16" ry="16" style="stroke:#181818;stroke-width:0.5;"/><path d="M57.583,266 C61.583,266 64.583,266 68.583,262 C76.583,262 84.583,270 84.583,278 L84.583,282 C84.583,286 80.583,290 76.583,290 L38.583,290 C34.583,290 30.583,286 30.583,282 L30.583,278 C30.583,270 38.583,262 46.583,262 C50.583,266 53.583,266 57.583,266" fill="#F1F1F1" style="stroke:#181818;stroke-width:0.5;"/><text fill="#000000" font-family="sans-serif" font-size="14" lengthAdjust="spacing" textLength="57.5859" x="28.79" y="303.4951">Member</text></g><!--entity Reception--><g class="entity" data-qualified-name="Reception" data-source-line="7" id="ent0004"><ellipse cx="57.584" cy="358" fill="#F1F1F1" rx="16" ry="16" style="stroke:#181818;stroke-width:0.5;"/><path d="M57.584,378 C61.584,378 64.584,378 68.584,374 C76.584,374 84.584,382 84.584,390 L84.584,394 C84.584,398 80.584,402 76.584,402 L38.584,402 C34.584,402 30.584,398 30.584,394 L30.584,390 C30.584,382 38.584,374 46.584,374 C50.584,378 53.584,378 57.584,378" fill="#F1F1F1" style="stroke:#181818;stroke-width:0.5;"/><text fill="#000000" font-family="sans-serif" font-size="14" lengthAdjust="spacing" textLength="103.168" x="6" y="415.4951">ReceptionStaff</text></g><!--entity Trainer--><g class="entity" data-qualified-name="Trainer" data-source-line="8" id="ent0005"><ellipse cx="57.58" cy="134" fill="#F1F1F1" rx="16" ry="16" style="stroke:#181818;stroke-width:0.5;"/><path d="M57.58,154 C61.58,154 64.58,154 68.58,150 C76.58,150 84.58,158 84.58,166 L84.58,170 C84.58,174 80.58,178 76.58,178 L38.58,178 C34.58,178 30.58,174 30.58,170 L30.58,166 C30.58,158 38.58,150 46.58,150 C50.58,154 53.58,154 57.58,154" fill="#F1F1F1" style="stroke:#181818;stroke-width:0.5;"/><text fill="#000000" font-family="sans-serif" font-size="14" lengthAdjust="spacing" textLength="50.0186" x="32.5707" y="191.4951">Trainer</text></g><!--entity Manager--><g class="entity" data-qualified-name="Manager" data-source-line="9" id="ent0006"><ellipse cx="57.5831" cy="470" fill="#F1F1F1" rx="16" ry="16" style="stroke:#181818;stroke-width:0.5;"/><path d="M57.5831,490 C61.5831,490 64.5831,490 68.5831,486 C76.5831,486 84.5831,494 84.5831,502 L84.5831,506 C84.5831,510 80.5831,514 76.5831,514 L38.5831,514 C34.5831,514 30.5831,510 30.5831,506 L30.5831,502 C30.5831,494 38.5831,486 46.5831,486 C50.5831,490 53.5831,490 57.5831,490" fill="#F1F1F1" style="stroke:#181818;stroke-width:0.5;"/><text fill="#000000" font-family="sans-serif" font-size="14" lengthAdjust="spacing" textLength="61.3662" x="26.9" y="527.4951">Manager</text></g><!--entity Owner--><g class="entity" data-qualified-name="Owner" data-source-line="10" id="ent0007"><ellipse cx="57.58" cy="582" fill="#F1F1F1" rx="16" ry="16" style="stroke:#181818;stroke-width:0.5;"/><path d="M57.58,602 C61.58,602 64.58,602 68.58,598 C76.58,598 84.58,606 84.58,614 L84.58,618 C84.58,622 80.58,626 76.58,626 L38.58,626 C34.58,626 30.58,622 30.58,618 L30.58,614 C30.58,606 38.58,598 46.58,598 C50.58,602 53.58,602 57.58,602" fill="#F1F1F1" style="stroke:#181818;stroke-width:0.5;"/><text fill="#000000" font-family="sans-serif" font-size="14" lengthAdjust="spacing" textLength="45.7119" x="34.724" y="639.4951">Owner</text></g><!--entity Scheduler--><g class="entity" data-qualified-name="Scheduler" data-source-line="11" id="ent0008"><ellipse cx="57.58" cy="694" fill="#F1F1F1" rx="16" ry="16" style="stroke:#181818;stroke-width:0.5;"/><path d="M57.58,714 C61.58,714 64.58,714 68.58,710 C76.58,710 84.58,718 84.58,726 L84.58,730 C84.58,734 80.58,738 76.58,738 L38.58,738 C34.58,738 30.58,734 30.58,730 L30.58,726 C30.58,718 38.58,710 46.58,710 C50.58,714 53.58,714 57.58,714" fill="#F1F1F1" style="stroke:#181818;stroke-width:0.5;"/><text fill="#000000" font-family="sans-serif" font-size="14" lengthAdjust="spacing" textLength="52.2061" x="31.477" y="751.4951">System</text></g><!--link Guest to UC_AUTH--><g class="link" data-entity-1="ent0002" data-entity-2="ent0010" data-link-type="dependency" data-source-line="24" id="lnk18"><path d="M85.22,64.34 C120.37,90.97 177.2373,134.0771 213.5273,161.5671" fill="none" id="Guest-to-UC_AUTH" style="stroke:#181818;stroke-width:1;"/><polygon fill="#181818" points="218.31,165.19,213.5512,156.5671,214.3244,162.1709,208.7206,162.9441,218.31,165.19" style="stroke:#181818;stroke-width:1;"/></g><!--link Member to UC_AUTH--><g class="link" data-entity-1="ent0003" data-entity-2="ent0010" data-link-type="dependency" data-source-line="25" id="lnk19"><path d="M86.56,255.27 C103.46,247.55 125.48,237.63 145.17,229.15 C163.65,221.19 178.595,214.9577 196.355,207.7077" fill="none" id="Member-to-UC_AUTH" style="stroke:#181818;stroke-width:1;"/><polygon fill="#181818" points="201.91,205.44,192.0658,205.1382,197.2809,207.3297,195.0893,212.5448,201.91,205.44" style="stroke:#181818;stroke-width:1;"/></g><!--link Reception to UC_AUTH--><g class="link" data-entity-1="ent0004" data-entity-2="ent0010" data-link-type="dependency" data-source-line="26" id="lnk20"><path d="M96.99,341.22 C101.42,335.73 105.62,329.96 109.17,324.15 C132.71,285.62 113.69,261.52 145.17,229.15 C157.6,216.37 168.8703,209.4848 185.3203,203.1548" fill="none" id="Reception-to-UC_AUTH" style="stroke:#181818;stroke-width:1;"/><polygon fill="#181818" points="190.92,201,181.0839,200.499,186.2536,202.7957,183.9569,207.9653,190.92,201" style="stroke:#181818;stroke-width:1;"/></g><!--link Trainer to UC_AUTH--><g class="link" data-entity-1="ent0005" data-entity-2="ent0010" data-link-type="dependency" data-source-line="27" id="lnk21"><path d="M85.22,160.53 C111.02,164.76 145.1893,170.3775 179.0393,175.9375" fill="none" id="Trainer-to-UC_AUTH" style="stroke:#181818;stroke-width:1;"/><polygon fill="#181818" points="184.96,176.91,176.7273,171.5042,180.0261,176.0996,175.4307,179.3984,184.96,176.91" style="stroke:#181818;stroke-width:1;"/></g><!--link Manager to UC_AUTH--><g class="link" data-entity-1="ent0006" data-entity-2="ent0010" data-link-type="dependency" data-source-line="28" id="lnk22"><path d="M88.56,465.13 C96.39,456.59 104.06,446.63 109.17,436.15 C150.07,352.2 86.71,301.97 145.17,229.15 C156.21,215.4 166.8967,208.2454 183.2467,201.9854" fill="none" id="Manager-to-UC_AUTH" style="stroke:#181818;stroke-width:1;"/><polygon fill="#181818" points="188.85,199.84,179.0147,199.3225,184.1806,201.6278,181.8752,206.7936,188.85,199.84" style="stroke:#181818;stroke-width:1;"/></g><!--link Owner to UC_AUTH--><g class="link" data-entity-1="ent0007" data-entity-2="ent0010" data-link-type="dependency" data-source-line="29" id="lnk23"><path d="M85.51,580.96 C94.53,571.7 103.68,560.33 109.17,548.15 C167.8,418.08 59.22,343.04 145.17,229.15 C155.73,215.15 166.1874,207.9374 182.4674,201.6974" fill="none" id="Owner-to-UC_AUTH" style="stroke:#181818;stroke-width:1;"/><polygon fill="#181818" points="188.07,199.55,178.2346,199.0361,183.4012,201.3395,181.0978,206.5062,188.07,199.55" style="stroke:#181818;stroke-width:1;"/></g><!--link Reception to UC_USER--><g class="link" data-entity-1="ent0004" data-entity-2="ent0011" data-link-type="dependency" data-source-line="31" id="lnk24"><path d="M94.74,419.18 C99.68,424.8 104.61,430.57 109.17,436.15 C126.25,457.09 123.46,469.05 145.17,485.15 C158.76,495.23 169.7302,500.7362 185.6202,506.1462" fill="none" id="Reception-to-UC_USER" style="stroke:#181818;stroke-width:1;"/><polygon fill="#181818" points="191.3,508.08,184.0694,501.3928,186.5668,506.4685,181.4911,508.9659,191.3,508.08" style="stroke:#181818;stroke-width:1;"/></g><!--link Manager to UC_USER--><g class="link" data-entity-1="ent0006" data-entity-2="ent0011" data-link-type="dependency" data-source-line="32" id="lnk25"><path d="M88.48,496.75 C113.42,500.58 143.9496,505.2686 175.6396,510.1386" fill="none" id="Manager-to-UC_USER" style="stroke:#181818;stroke-width:1;"/><polygon fill="#181818" points="181.57,511.05,173.282,505.7294,176.628,510.2905,172.0669,513.6365,181.57,511.05" style="stroke:#181818;stroke-width:1;"/></g><!--link Owner to UC_USER--><g class="link" data-entity-1="ent0007" data-entity-2="ent0011" data-link-type="dependency" data-source-line="33" id="lnk26"><path d="M85.33,588.2 C102.16,578.53 124.54,566.32 145.17,557.15 C162.78,549.33 176.972,543.9391 194.482,537.9591" fill="none" id="Owner-to-UC_USER" style="stroke:#181818;stroke-width:1;"/><polygon fill="#181818" points="200.16,536.02,190.3502,535.1434,195.4283,537.636,192.9358,542.7141,200.16,536.02" style="stroke:#181818;stroke-width:1;"/></g><!--link Reception to UC_PAY--><g class="link" data-entity-1="ent0004" data-entity-2="ent0012" data-link-type="dependency" data-source-line="35" id="lnk27"><path d="M109.65,396.93 C137.04,405.93 164.9598,415.0972 192.1098,424.0172" fill="none" id="Reception-to-UC_PAY" style="stroke:#181818;stroke-width:1;"/><polygon fill="#181818" points="197.81,425.89,190.5082,419.2807,193.0598,424.3293,188.0111,426.881,197.81,425.89" style="stroke:#181818;stroke-width:1;"/></g><!--link Manager to UC_PAY--><g class="link" data-entity-1="ent0006" data-entity-2="ent0012" data-link-type="dependency" data-source-line="36" id="lnk28"><path d="M88.48,484.23 C116.75,476.74 154.0002,466.867 188.1502,457.817" fill="none" id="Manager-to-UC_PAY" style="stroke:#181818;stroke-width:1;"/><polygon fill="#181818" points="193.95,456.28,184.2256,454.719,189.1168,457.5608,186.275,462.452,193.95,456.28" style="stroke:#181818;stroke-width:1;"/></g><!--link Owner to UC_PAY--><g class="link" data-entity-1="ent0007" data-entity-2="ent0012" data-link-type="dependency" data-source-line="37" id="lnk29"><path d="M85.56,576.67 C93.58,567.89 102.1,557.91 109.17,548.15 C128.09,522.03 121.03,506.54 145.17,485.15 C159.28,472.65 171.9535,465.583 189.1335,458.943" fill="none" id="Owner-to-UC_PAY" style="stroke:#181818;stroke-width:1;"/><polygon fill="#181818" points="194.73,456.78,184.8932,456.2935,190.0662,458.5825,187.7772,463.7556,194.73,456.78" style="stroke:#181818;stroke-width:1;"/></g><!--link Member to UC_PAY--><g class="link" data-entity-1="ent0003" data-entity-2="ent0012" data-link-type="dependency" data-source-line="38" id="lnk30"><path d="M86.75,296.21 C94.54,304.77 102.64,314.49 109.17,324.15 C129.63,354.47 118.72,372.89 145.17,398.15 C158.99,411.35 171.7996,418.7411 189.1696,425.5111" fill="none" id="Member-to-UC_PAY" style="stroke:#181818;stroke-width:1;"/><polygon fill="#181818" points="194.76,427.69,187.827,420.6948,190.1013,425.8743,184.9218,428.1486,194.76,427.69" style="stroke:#181818;stroke-width:1;"/></g><!--link Member to UC_ATT--><g class="link" data-entity-1="ent0003" data-entity-2="ent0013" data-link-type="dependency" data-source-line="40" id="lnk31"><path d="M86.76,283.53 C103.55,292.51 125.39,303.86 145.17,313.15 C164.84,322.39 181.5016,329.5664 200.1616,337.2464" fill="none" id="Member-to-UC_ATT" style="stroke:#181818;stroke-width:1;"/><polygon fill="#181818" points="205.71,339.53,198.9097,332.4056,201.0863,337.627,195.8649,339.8036,205.71,339.53" style="stroke:#181818;stroke-width:1;"/></g><!--link Reception to UC_ATT--><g class="link" data-entity-1="ent0004" data-entity-2="ent0013" data-link-type="dependency" data-source-line="41" id="lnk32"><path d="M109.65,373.66 C135.52,370.37 160.9779,367.1265 187.2579,363.7865" fill="none" id="Reception-to-UC_ATT" style="stroke:#181818;stroke-width:1;"/><polygon fill="#181818" points="193.21,363.03,183.7775,360.1966,188.2499,363.6604,184.7861,368.1328,193.21,363.03" style="stroke:#181818;stroke-width:1;"/></g><!--link Trainer to UC_ATT--><g class="link" data-entity-1="ent0005" data-entity-2="ent0013" data-link-type="dependency" data-source-line="42" id="lnk33"><path d="M85.34,181.5 C93.81,190.56 102.65,201.24 109.17,212.15 C133.61,253.06 112.43,278.52 145.17,313.15 C159.18,327.97 173.4311,335.8958 191.9611,342.4258" fill="none" id="Trainer-to-UC_ATT" style="stroke:#181818;stroke-width:1;"/><polygon fill="#181818" points="197.62,344.42,190.4611,337.6561,192.9043,342.7582,187.8022,345.2013,197.62,344.42" style="stroke:#181818;stroke-width:1;"/></g><!--link Manager to UC_ATT--><g class="link" data-entity-1="ent0006" data-entity-2="ent0013" data-link-type="dependency" data-source-line="43" id="lnk34"><path d="M88.61,459.25 C112.24,433.46 141.75,401.53 145.17,399.15 C162.2,387.25 177.4241,379.8788 195.8241,372.8588" fill="none" id="Manager-to-UC_ATT" style="stroke:#181818;stroke-width:1;"/><polygon fill="#181818" points="201.43,370.72,191.5954,370.1909,196.7584,372.5023,194.447,377.6654,201.43,370.72" style="stroke:#181818;stroke-width:1;"/></g><!--link Owner to UC_ATT--><g class="link" data-entity-1="ent0007" data-entity-2="ent0013" data-link-type="dependency" data-source-line="44" id="lnk35"><path d="M85.49,579.74 C94.17,570.59 103.11,559.62 109.17,548.15 C140.98,487.91 101.04,451.05 145.17,399.15 C158.38,383.62 172.4777,375.5257 191.1277,369.0957" fill="none" id="Owner-to-UC_ATT" style="stroke:#181818;stroke-width:1;"/><polygon fill="#181818" points="196.8,367.14,186.9877,366.2919,192.0731,368.7697,189.5953,373.8551,196.8,367.14" style="stroke:#181818;stroke-width:1;"/></g><!--link Trainer to UC_CLASS--><g class="link" data-entity-1="ent0005" data-entity-2="ent0014" data-link-type="dependency" data-source-line="46" id="lnk36"><path d="M85.36,182.51 C101.67,197.56 123.48,215.99 145.17,229.15 C160.74,238.6 173.2354,244.6009 189.8154,251.2009" fill="none" id="Trainer-to-UC_CLASS" style="stroke:#181818;stroke-width:1;"/><polygon fill="#181818" points="195.39,253.42,188.5075,246.375,190.7445,251.5708,185.5488,253.8078,195.39,253.42" style="stroke:#181818;stroke-width:1;"/></g><!--link Manager to UC_CLASS--><g class="link" data-entity-1="ent0006" data-entity-2="ent0014" data-link-type="dependency" data-source-line="47" id="lnk37"><path d="M88.59,463.87 C96.14,455.52 103.66,445.98 109.17,436.15 C136.8,386.83 107.48,356.29 145.17,314.15 C156.58,301.39 166.8424,294.5611 182.6224,288.1411" fill="none" id="Manager-to-UC_CLASS" style="stroke:#181818;stroke-width:1;"/><polygon fill="#181818" points="188.18,285.88,178.3361,285.5665,183.5486,287.7642,181.3509,292.9767,188.18,285.88" style="stroke:#181818;stroke-width:1;"/></g><!--link Owner to UC_CLASS--><g class="link" data-entity-1="ent0007" data-entity-2="ent0014" data-link-type="dependency" data-source-line="48" id="lnk38"><path d="M85.51,580.57 C94.42,571.34 103.49,560.1 109.17,548.15 C154.33,453.11 80.45,397.12 145.17,314.15 C155.58,300.8 165.3467,293.8218 180.9667,287.4318" fill="none" id="Owner-to-UC_CLASS" style="stroke:#181818;stroke-width:1;"/><polygon fill="#181818" points="186.52,285.16,176.6755,284.8655,181.8923,287.0532,179.7046,292.2699,186.52,285.16" style="stroke:#181818;stroke-width:1;"/></g><!--link Member to UC_CLASS--><g class="link" data-entity-1="ent0003" data-entity-2="ent0014" data-link-type="dependency" data-source-line="49" id="lnk39"><path d="M86.83,268.6 C109.86,268.97 137.4507,269.4056 167.9607,269.8856" fill="none" id="Member-to-UC_CLASS" style="stroke:#181818;stroke-width:1;"/><polygon fill="#181818" points="173.96,269.98,165.024,265.8389,168.9606,269.9013,164.8982,273.8379,173.96,269.98" style="stroke:#181818;stroke-width:1;"/></g><!--link Manager to UC_REPORT--><g class="link" data-entity-1="ent0006" data-entity-2="ent0015" data-link-type="dependency" data-source-line="51" id="lnk40"><path d="M88.57,517.55 C104.69,530.43 125.28,545.73 145.17,557.15 C164.35,568.17 181.3233,575.7717 200.3433,583.2217" fill="none" id="Manager-to-UC_REPORT" style="stroke:#181818;stroke-width:1;"/><polygon fill="#181818" points="205.93,585.41,199.0088,578.4031,201.2744,583.5864,196.0911,585.8521,205.93,585.41" style="stroke:#181818;stroke-width:1;"/></g><!--link Owner to UC_REPORT--><g class="link" data-entity-1="ent0007" data-entity-2="ent0015" data-link-type="dependency" data-source-line="52" id="lnk41"><path d="M85.22,603.59 C114.07,602.97 154.7813,602.1071 190.6613,601.3471" fill="none" id="Owner-to-UC_REPORT" style="stroke:#181818;stroke-width:1;"/><polygon fill="#181818" points="196.66,601.22,187.5773,597.4115,191.6611,601.3259,187.7467,605.4097,196.66,601.22" style="stroke:#181818;stroke-width:1;"/></g><!--link Owner to UC_SETTINGS--><g class="link" data-entity-1="ent0007" data-entity-2="ent0016" data-link-type="dependency" data-source-line="54" id="lnk42"><path d="M85.35,632.77 C93.19,641.43 101.67,651.05 109.17,660.15 C126.12,680.73 124.22,691.65 145.17,708.15 C159.58,719.5 171.7961,726.2098 188.4561,733.0198" fill="none" id="Owner-to-UC_SETTINGS" style="stroke:#181818;stroke-width:1;"/><polygon fill="#181818" points="194.01,735.29,187.1926,728.182,189.3817,733.3981,184.1656,735.5873,194.01,735.29" style="stroke:#181818;stroke-width:1;"/></g><!--link Scheduler to UC_NOTIFY--><g class="link" data-entity-1="ent0008" data-entity-2="ent0017" data-link-type="dependency" data-source-line="56" id="lnk43"><path d="M85.22,710.5 C114.99,704.19 157.8905,695.1045 194.1605,687.4145" fill="none" id="Scheduler-to-UC_NOTIFY" style="stroke:#181818;stroke-width:1;"/><polygon fill="#181818" points="200.03,686.17,190.3961,684.1237,195.1387,687.2071,192.0554,691.9497,200.03,686.17" style="stroke:#181818;stroke-width:1;"/></g><!--link Manager to UC_NOTIFY--><g class="link" data-entity-1="ent0006" data-entity-2="ent0017" data-link-type="dependency" data-source-line="57" id="lnk44"><path d="M88.63,521.3 C96.01,529.5 103.43,538.76 109.17,548.15 C132.71,586.68 112.46,612.03 145.17,643.15 C158.4,655.74 170.6811,661.9062 187.9411,666.7262" fill="none" id="Manager-to-UC_NOTIFY" style="stroke:#181818;stroke-width:1;"/><polygon fill="#181818" points="193.72,668.34,186.1275,662.0667,188.9043,666.9952,183.9758,669.7719,193.72,668.34" style="stroke:#181818;stroke-width:1;"/></g><!--link Owner to UC_NOTIFY--><g class="link" data-entity-1="ent0007" data-entity-2="ent0017" data-link-type="dependency" data-source-line="58" id="lnk45"><path d="M85.55,617.23 C102.48,625.2 124.86,635.32 145.17,643.15 C165.51,650.99 182.8481,656.7866 201.9181,662.6866" fill="none" id="Owner-to-UC_NOTIFY" style="stroke:#181818;stroke-width:1;"/><polygon fill="#181818" points="207.65,664.46,200.2343,657.9786,202.8734,662.9822,197.8698,665.6212,207.65,664.46" style="stroke:#181818;stroke-width:1;"/></g><?plantuml-src PPFFRgCm4CRlVWehXzxw2YknR3PRgKqYJ0wLa5Qppa2iW46sKOMglllQO5pitC9llc_-UT9YRQZfgHBDpT2hKCYDw2NHTo47KD3H0VWT6cHcQf6wCCYcnOq0kEdL4eOFr7s7XCoC7aRKnlz-m-uVAlzH8CV1rM46wfg2_YPUKIeGCkZVGDeMrg_JntU4JTfWvp8mViFhsDe82LtItM7gVg6-qtCBfkvLjwEVXD9H8mTjmzbeRYYDuE1gL_A95Z-pVEVoNVA_sQNyirLVDAwzTDQroYviNsnbowZw9WQNy0oJ4-jLVSxUemwCGNa5oR6ITcXkrzg4-cMvbUOjQ4sVrjrKqe-ySUIl6MDRJu53hunrLJAJq4vsrD19iJ-VYgY2tHPbQ8pDg2kPzx8MpQZctQmcjY_Bb-CXAdBiZQZz3aFsuwby-VrElWYPpu0-F_y8Erqs5A5m017reyRcvHWYDfz4H1uJpi-Kc6SMcMVoQ7QlbdWTYgop9fhCaNHO-wQFirgOZcfHEgb5yQ0MfBxb0XBd0YElrqMzBImr-pE9t9x5C9m62V_5DUIF8SdiQPJ4i_y0?></g></svg>