<?plantuml 1.2026.1?><svg xmlns="http://www.w3.org/2000/svg" xmlns:xlink="http://www.w3.org/1999/xlink" contentStyleType="text/css" data-diagram-type="DESCRIPTION" height="1666px" preserveAspectRatio="none" style="width:524px;height:1666px;background:#FFFFFF;" version="1.1" viewBox="0 0 524 1666" width="524px" zoomAndPan="magnify"><defs/><g><!--cluster Authentication & Access System--><g class="cluster" data-qualified-name="Authentication . Access System" data-source-line="14" id="ent0010"><rect fill="none" height="1594" rx="2.5" ry="2.5" style="stroke:#181818;stroke-width:1;" width="270.69" x="247.68" y="7"/><text fill="#000000" font-family="sans-serif" font-size="14" font-weight="bold" lengthAdjust="spacing" textLength="255.9785" x="255.0357" y="21.9951">Authentication &amp; Access System</text></g><!--entity U1--><g class="entity" data-qualified-name="Authentication . Access System.U1" data-source-line="15" id="ent0011"><ellipse cx="383.0254" cy="59.0031" fill="#F1F1F1" rx="75.3154" ry="17.4631" style="stroke:#181818;stroke-width:0.5;"/><text fill="#000000" font-family="sans-serif" font-size="14" lengthAdjust="spacing" textLength="119.4922" x="323.2793" y="63.6515">Register Account</text></g><!--entity U2--><g class="entity" data-qualified-name="Authentication . Access System.U2" data-source-line="16" id="ent0012"><ellipse cx="383.0304" cy="1363.0036" fill="#F1F1F1" rx="29.8804" ry="14.5236" style="stroke:#181818;stroke-width:0.5;"/><text fill="#000000" font-family="sans-serif" font-size="14" lengthAdjust="spacing" textLength="38.0146" x="364.0231" y="1367.6521">Login</text></g><!--entity U3--><g class="entity" data-qualified-name="Authentication . Access System.U3" data-source-line="17" id="ent0013"><ellipse cx="383.0258" cy="350.0032" fill="#F1F1F1" rx="82.2658" ry="18.8532" style="stroke:#181818;stroke-width:0.5;"/><text fill="#000000" font-family="sans-serif" font-size="14" lengthAdjust="spacing" textLength="135.9873" x="315.0321" y="354.6516">Issue Access Token</text></g><!--entity U4--><g class="entity" data-qualified-name="Authentication . Access System.U4" data-source-line="18" id="ent0014"><ellipse cx="383.0345" cy="130.9989" fill="#F1F1F1" rx="84.6945" ry="19.3389" style="stroke:#181818;stroke-width:0.5;"/><text fill="#000000" font-family="sans-serif" font-size="14" lengthAdjust="spacing" textLength="141.6201" x="312.2244" y="135.6473">Issue Refresh Token</text></g><!--entity U5--><g class="entity" data-qualified-name="Authentication . Access System.U5" data-source-line="19" id="ent0015"><ellipse cx="383.0329" cy="788.0046" fill="#F1F1F1" rx="67.8729" ry="15.9746" style="stroke:#181818;stroke-width:0.5;"/><text fill="#000000" font-family="sans-serif" font-size="14" lengthAdjust="spacing" textLength="100.9668" x="332.5495" y="792.653">Refresh Token</text></g><!--entity U6--><g class="entity" data-qualified-name="Authentication . Access System.U6" data-source-line="20" id="ent0016"><ellipse cx="383.0293" cy="275.9959" fill="#F1F1F1" rx="89.1793" ry="20.2359" style="stroke:#181818;stroke-width:0.5;"/><text fill="#000000" font-family="sans-serif" font-size="14" lengthAdjust="spacing" textLength="151.8809" x="307.0889" y="280.6443">Rotate Refresh Token</text></g><!--entity U7--><g class="entity" data-qualified-name="Authentication . Access System.U7" data-source-line="21" id="ent0017"><ellipse cx="383.0282" cy="1003.0036" fill="#F1F1F1" rx="37.0682" ry="14.5236" style="stroke:#181818;stroke-width:0.5;"/><text fill="#000000" font-family="sans-serif" font-size="14" lengthAdjust="spacing" textLength="48.1797" x="358.9383" y="1007.6521">Logout</text></g><!--entity U8--><g class="entity" data-qualified-name="Authentication . Access System.U8" data-source-line="22" id="ent0018"><ellipse cx="383.0335" cy="1146.0047" fill="#F1F1F1" rx="82.9735" ry="18.9947" style="stroke:#181818;stroke-width:0.5;"/><text fill="#000000" font-family="sans-serif" font-size="14" lengthAdjust="spacing" textLength="137.6348" x="314.2161" y="1150.6531">List Active Sessions</text></g><!--entity U9--><g class="entity" data-qualified-name="Authentication . Access System.U9" data-source-line="23" id="ent0019"><ellipse cx="383.0275" cy="1217.0015" fill="#F1F1F1" rx="71.3575" ry="16.6715" style="stroke:#181818;stroke-width:0.5;"/><text fill="#000000" font-family="sans-serif" font-size="14" lengthAdjust="spacing" textLength="109.7783" x="328.1383" y="1221.6499">Revoke Session</text></g><!--entity U10--><g class="entity" data-qualified-name="Authentication . Access System.U10" data-source-line="24" id="ent0020"><ellipse cx="383.0345" cy="1290.9989" fill="#F1F1F1" rx="98.3445" ry="22.0689" style="stroke:#181818;stroke-width:0.5;"/><text fill="#000000" font-family="sans-serif" font-size="14" lengthAdjust="spacing" textLength="172.4023" x="296.8333" y="1295.6473">Request Password Reset</text></g><!--entity U11--><g class="entity" data-qualified-name="Authentication . Access System.U11" data-source-line="25" id="ent0021"><ellipse cx="383.0292" cy="861.0018" fill="#F1F1F1" rx="97.4092" ry="21.8818" style="stroke:#181818;stroke-width:0.5;"/><text fill="#000000" font-family="sans-serif" font-size="14" lengthAdjust="spacing" textLength="170.3311" x="297.8637" y="865.6503">Confirm Password Reset</text></g><!--entity U12--><g class="entity" data-qualified-name="Authentication . Access System.U12" data-source-line="26" id="ent0022"><ellipse cx="383.0315" cy="936.0043" fill="#F1F1F1" rx="77.3215" ry="17.8643" style="stroke:#181818;stroke-width:0.5;"/><text fill="#000000" font-family="sans-serif" font-size="14" lengthAdjust="spacing" textLength="124.3184" x="320.8723" y="940.6527">Change Password</text></g><!--entity U13--><g class="entity" data-qualified-name="Authentication . Access System.U13" data-source-line="27" id="ent0023"><ellipse cx="383.0285" cy="1427.0036" fill="#F1F1F1" rx="60.3185" ry="14.5236" style="stroke:#181818;stroke-width:0.5;"/><text fill="#000000" font-family="sans-serif" font-size="14" lengthAdjust="spacing" textLength="81.0605" x="342.4982" y="1431.6521">Assign Role</text></g><!--entity U14--><g class="entity" data-qualified-name="Authentication . Access System.U14" data-source-line="28" id="ent0024"><ellipse cx="383.0267" cy="1492.0013" fill="#F1F1F1" rx="64.7067" ry="15.3413" style="stroke:#181818;stroke-width:0.5;"/><text fill="#000000" font-family="sans-serif" font-size="14" lengthAdjust="spacing" textLength="92.6885" x="336.6824" y="1496.6498">Remove Role</text></g><!--entity U15--><g class="entity" data-qualified-name="Authentication . Access System.U15" data-source-line="29" id="ent0025"><ellipse cx="383.0344" cy="203.0009" fill="#F1F1F1" rx="77.9544" ry="17.9909" style="stroke:#181818;stroke-width:0.5;"/><text fill="#000000" font-family="sans-serif" font-size="14" lengthAdjust="spacing" textLength="125.8291" x="320.1199" y="207.6493">Audit Auth Events</text></g><!--entity U16--><g class="entity" data-qualified-name="Authentication . Access System.U16" data-source-line="30" id="ent0026"><ellipse cx="383.0337" cy="1071.9967" fill="#F1F1F1" rx="87.3837" ry="19.8767" style="stroke:#181818;stroke-width:0.5;"/><text fill="#000000" font-family="sans-serif" font-size="14" lengthAdjust="spacing" textLength="147.793" x="309.1373" y="1076.6452">Validate JWT + RBAC</text></g><!--entity U17--><g class="entity" data-qualified-name="Authentication . Access System.U17" data-source-line="31" id="ent0027"><ellipse cx="383.025" cy="1564.001" fill="#F1F1F1" rx="94.555" ry="21.311" style="stroke:#181818;stroke-width:0.5;"/><text fill="#000000" font-family="sans-serif" font-size="14" lengthAdjust="spacing" textLength="163.9805" x="301.0348" y="1568.6494">Revoke Expired Tokens</text></g><!--entity Guest--><g class="entity" data-qualified-name="Guest" data-source-line="5" id="ent0002"><ellipse cx="71.34" cy="553.85" fill="#F1F1F1" rx="16" ry="16" style="stroke:#181818;stroke-width:0.5;"/><path d="M71.34,573.85 C75.34,573.85 78.34,573.85 82.34,569.85 C90.34,569.85 98.34,577.85 98.34,585.85 L98.34,589.85 C98.34,593.85 94.34,597.85 90.34,597.85 L52.34,597.85 C48.34,597.85 44.34,593.85 44.34,589.85 L44.34,585.85 C44.34,577.85 52.34,569.85 60.34,569.85 C64.34,573.85 67.34,573.85 71.34,573.85" fill="#F1F1F1" style="stroke:#181818;stroke-width:0.5;"/><text fill="#000000" font-family="sans-serif" font-size="14" lengthAdjust="spacing" textLength="41.1182" x="50.7809" y="611.3451">Guest</text></g><!--entity Member--><g class="entity" data-qualified-name="Member" data-source-line="6" id="ent0003"><ellipse cx="71.343" cy="322.85" fill="#F1F1F1" rx="16" ry="16" style="stroke:#181818;stroke-width:0.5;"/><path d="M71.343,342.85 C75.343,342.85 78.343,342.85 82.343,338.85 C90.343,338.85 98.343,346.85 98.343,354.85 L98.343,358.85 C98.343,362.85 94.343,366.85 90.343,366.85 L52.343,366.85 C48.343,366.85 44.343,362.85 44.343,358.85 L44.343,354.85 C44.343,346.85 52.343,338.85 60.343,338.85 C64.343,342.85 67.343,342.85 71.343,342.85" fill="#F1F1F1" style="stroke:#181818;stroke-width:0.5;"/><text fill="#000000" font-family="sans-serif" font-size="14" lengthAdjust="spacing" textLength="57.5859" x="42.55" y="380.3451">Member</text></g><!--entity Reception--><g class="entity" data-qualified-name="Reception" data-source-line="7" id="ent0004"><ellipse cx="71.344" cy="1152.85" fill="#F1F1F1" rx="16" ry="16" style="stroke:#181818;stroke-width:0.5;"/><path d="M71.344,1172.85 C75.344,1172.85 78.344,1172.85 82.344,1168.85 C90.344,1168.85 98.344,1176.85 98.344,1184.85 L98.344,1188.85 C98.344,1192.85 94.344,1196.85 90.344,1196.85 L52.344,1196.85 C48.344,1196.85 44.344,1192.85 44.344,1188.85 L44.344,1184.85 C44.344,1176.85 52.344,1168.85 60.344,1168.85 C64.344,1172.85 67.344,1172.85 71.344,1172.85" fill="#F1F1F1" style="stroke:#181818;stroke-width:0.5;"/><text fill="#000000" font-family="sans-serif" font-size="14" lengthAdjust="spacing" textLength="103.168" x="19.76" y="1210.3451">ReceptionStaff</text></g><!--entity Trainer--><g class="entity" data-qualified-name="Trainer" data-source-line="8" id="ent0005"><ellipse cx="71.34" cy="1264.85" fill="#F1F1F1" rx="16" ry="16" style="stroke:#181818;stroke-width:0.5;"/><path d="M71.34,1284.85 C75.34,1284.85 78.34,1284.85 82.34,1280.85 C90.34,1280.85 98.34,1288.85 98.34,1296.85 L98.34,1300.85 C98.34,1304.85 94.34,1308.85 90.34,1308.85 L52.34,1308.85 C48.34,1308.85 44.34,1304.85 44.34,1300.85 L44.34,1296.85 C44.34,1288.85 52.34,1280.85 60.34,1280.85 C64.34,1284.85 67.34,1284.85 71.34,1284.85" fill="#F1F1F1" style="stroke:#181818;stroke-width:0.5;"/><text fill="#000000" font-family="sans-serif" font-size="14" lengthAdjust="spacing" textLength="50.0186" x="46.3307" y="1322.3451">Trainer</text></g><!--entity Manager--><g class="entity" data-qualified-name="Manager" data-source-line="9" id="ent0006"><ellipse cx="71.3431" cy="1376.85" fill="#F1F1F1" rx="16" ry="16" style="stroke:#181818;stroke-width:0.5;"/><path d="M71.3431,1396.85 C75.3431,1396.85 78.3431,1396.85 82.3431,1392.85 C90.3431,1392.85 98.3431,1400.85 98.3431,1408.85 L98.3431,1412.85 C98.3431,1416.85 94.3431,1420.85 90.3431,1420.85 L52.3431,1420.85 C48.3431,1420.85 44.3431,1416.85 44.3431,1412.85 L44.3431,1408.85 C44.3431,1400.85 52.3431,1392.85 60.3431,1392.85 C64.3431,1396.85 67.3431,1396.85 71.3431,1396.85" fill="#F1F1F1" style="stroke:#181818;stroke-width:0.5;"/><text fill="#000000" font-family="sans-serif" font-size="14" lengthAdjust="spacing" textLength="61.3662" x="40.66" y="1434.3451">Manager</text></g><!--entity Owner--><g class="entity" data-qualified-name="Owner" data-source-line="10" id="ent0007"><ellipse cx="71.34" cy="1488.85" fill="#F1F1F1" rx="16" ry="16" style="stroke:#181818;stroke-width:0.5;"/><path d="M71.34,1508.85 C75.34,1508.85 78.34,1508.85 82.34,1504.85 C90.34,1504.85 98.34,1512.85 98.34,1520.85 L98.34,1524.85 C98.34,1528.85 94.34,1532.85 90.34,1532.85 L52.34,1532.85 C48.34,1532.85 44.34,1528.85 44.34,1524.85 L44.34,1520.85 C44.34,1512.85 52.34,1504.85 60.34,1504.85 C64.34,1508.85 67.34,1508.85 71.34,1508.85" fill="#F1F1F1" style="stroke:#181818;stroke-width:0.5;"/><text fill="#000000" font-family="sans-serif" font-size="14" lengthAdjust="spacing" textLength="45.7119" x="48.484" y="1546.3451">Owner</text></g><!--entity EmailSvc--><g class="entity" data-qualified-name="EmailSvc" data-source-line="11" id="ent0008"><ellipse cx="71.3366" cy="665.85" fill="#F1F1F1" rx="16" ry="16" style="stroke:#181818;stroke-width:0.5;"/><path d="M71.3366,685.85 C75.3366,685.85 78.3366,685.85 82.3366,681.85 C90.3366,681.85 98.3366,689.85 98.3366,697.85 L98.3366,701.85 C98.3366,705.85 94.3366,709.85 90.3366,709.85 L52.3366,709.85 C48.3366,709.85 44.3366,705.85 44.3366,701.85 L44.3366,697.85 C44.3366,689.85 52.3366,681.85 60.3366,681.85 C64.3366,685.85 67.3366,685.85 71.3366,685.85" fill="#F1F1F1" style="stroke:#181818;stroke-width:0.5;"/><text fill="#000000" font-family="sans-serif" font-size="14" lengthAdjust="spacing" textLength="95.0332" x="23.82" y="723.3451">Email Service</text></g><!--entity Cleanup--><g class="entity" data-qualified-name="Cleanup" data-source-line="12" id="ent0009"><ellipse cx="71.3413" cy="1600.85" fill="#F1F1F1" rx="16" ry="16" style="stroke:#181818;stroke-width:0.5;"/><path d="M71.3413,1620.85 C75.3413,1620.85 78.3413,1620.85 82.3413,1616.85 C90.3413,1616.85 98.3413,1624.85 98.3413,1632.85 L98.3413,1636.85 C98.3413,1640.85 94.3413,1644.85 90.3413,1644.85 L52.3413,1644.85 C48.3413,1644.85 44.3413,1640.85 44.3413,1636.85 L44.3413,1632.85 C44.3413,1624.85 52.3413,1616.85 60.3413,1616.85 C64.3413,1620.85 67.3413,1620.85 71.3413,1620.85" fill="#F1F1F1" style="stroke:#181818;stroke-width:0.5;"/><text fill="#000000" font-family="sans-serif" font-size="14" lengthAdjust="spacing" textLength="130.6826" x="6" y="1658.3451">Token Cleanup Job</text></g><!--link Guest to U1--><g class="link" data-entity-1="ent0002" data-entity-2="ent0011" data-link-type="dependency" data-source-line="34" id="lnk28"><path d="M89.12,537.08 C103.62,502.07 124.16,448.92 136.68,401 C173.08,261.76 123.62,179.1 239.68,94 C260.51,78.73 281.3149,71.2284 305.9449,66.3384" fill="none" id="Guest-to-U1" style="stroke:#181818;stroke-width:1;"/><polygon fill="#181818" points="311.83,65.17,302.2234,62.9992,306.9257,66.1437,303.7813,70.8461,311.83,65.17" style="stroke:#181818;stroke-width:1;"/></g><!--link Guest to U2--><g class="link" data-entity-1="ent0002" data-entity-2="ent0012" data-link-type="dependency" data-source-line="35" id="lnk29"><path d="M99.21,592.35 C112.78,602.1 128.14,615.74 136.68,632 C191.8,736.94 148.55,779.87 166.68,897 C189.55,1044.73 211.47,1078.89 231.68,1227 C233.25,1238.48 232.1,1322.24 239.68,1331 C267.61,1363.28 314.4445,1367.1636 347.2945,1365.8836" fill="none" id="Guest-to-U2" style="stroke:#181818;stroke-width:1;"/><polygon fill="#181818" points="353.29,1365.65,344.1411,1362.0035,348.2938,1365.8447,344.4526,1369.9974,353.29,1365.65" style="stroke:#181818;stroke-width:1;"/></g><!--link Guest to U10--><g class="link" data-entity-1="ent0002" data-entity-2="ent0020" data-link-type="dependency" data-source-line="36" id="lnk30"><path d="M99.19,589.98 C142.6,612.84 224.15,657.01 231.68,670 C247.88,697.92 220.01,1225.41 239.68,1251 C252.2,1267.28 265.0573,1275.5291 284.7073,1281.5991" fill="none" id="Guest-to-U10" style="stroke:#181818;stroke-width:1;"/><polygon fill="#181818" points="290.44,1283.37,283.0215,1276.8919,285.6627,1281.8943,280.6603,1284.5355,290.44,1283.37" style="stroke:#181818;stroke-width:1;"/></g><!--link Member to U2--><g class="link" data-entity-1="ent0003" data-entity-2="ent0012" data-link-type="dependency" data-source-line="38" id="lnk31"><path d="M89.78,384.14 C104.61,419.07 125.26,471.98 136.68,520 C163.61,633.16 145.66,665.6 166.68,780 C187.9,895.46 215.55,919.73 231.68,1036 C233.94,1052.24 229.27,1318.34 239.68,1331 C266.88,1364.06 314.2065,1367.6989 347.3065,1366.1589" fill="none" id="Member-to-U2" style="stroke:#181818;stroke-width:1;"/><polygon fill="#181818" points="353.3,1365.88,344.1238,1362.3026,348.3054,1366.1124,344.4956,1370.294,353.3,1365.88" style="stroke:#181818;stroke-width:1;"/></g><!--link Member to U5--><g class="link" data-entity-1="ent0003" data-entity-2="ent0015" data-link-type="dependency" data-source-line="39" id="lnk32"><path d="M89.87,306.01 C105.41,276.67 131.18,238.6 166.68,221 C192.57,208.17 210.77,201.07 231.68,221 C244.97,233.66 236.14,367.99 239.68,386 C270.36,541.82 347.021,713.3137 371.901,766.5837" fill="none" id="Member-to-U5" style="stroke:#181818;stroke-width:1;"/><polygon fill="#181818" points="374.44,772.02,374.2556,762.1729,372.3241,767.4898,367.0072,765.5583,374.44,772.02" style="stroke:#181818;stroke-width:1;"/></g><!--link Member to U7--><g class="link" data-entity-1="ent0003" data-entity-2="ent0017" data-link-type="dependency" data-source-line="40" id="lnk33"><path d="M100.39,339.21 C136.75,333.54 199.33,330.37 231.68,367 C253.9,392.16 218.54,944.94 239.68,971 C264.89,1002.08 307.2117,1007.1341 340.5017,1006.3341" fill="none" id="Member-to-U7" style="stroke:#181818;stroke-width:1;"/><polygon fill="#181818" points="346.5,1006.19,337.4065,1002.4074,341.5014,1006.3101,337.5987,1010.4051,346.5,1006.19" style="stroke:#181818;stroke-width:1;"/></g><!--link Member to U8--><g class="link" data-entity-1="ent0003" data-entity-2="ent0018" data-link-type="dependency" data-source-line="41" id="lnk34"><path d="M90.7,384 C107.38,416.69 134.29,463.3 166.68,497 C190.86,522.15 215.11,510.3 231.68,541 C246.67,568.77 220.2,1084.17 239.68,1109 C254.5,1127.88 271.7684,1136.6086 295.0984,1141.7086" fill="none" id="Member-to-U8" style="stroke:#181818;stroke-width:1;"/><polygon fill="#181818" points="300.96,1142.99,293.0219,1137.1602,296.0753,1141.9222,291.3134,1144.9757,300.96,1142.99" style="stroke:#181818;stroke-width:1;"/></g><!--link Member to U9--><g class="link" data-entity-1="ent0003" data-entity-2="ent0019" data-link-type="dependency" data-source-line="42" id="lnk35"><path d="M82.18,384.05 C95.35,430.27 122.33,507.67 166.68,561 C188.99,587.82 215.12,574.3 231.68,605 C246.91,633.22 219.73,1156.91 239.68,1182 C256.79,1203.51 278.8632,1212.2315 305.5232,1216.1315" fill="none" id="Member-to-U9" style="stroke:#181818;stroke-width:1;"/><polygon fill="#181818" points="311.46,1217,303.1338,1211.7394,306.5127,1216.2763,301.9758,1219.6552,311.46,1217" style="stroke:#181818;stroke-width:1;"/></g><!--link Member to U11--><g class="link" data-entity-1="ent0003" data-entity-2="ent0021" data-link-type="dependency" data-source-line="43" id="lnk36"><path d="M100.55,318.59 C135.64,288.9 195.36,249.22 231.68,285 C252.9,305.9 221.52,797.4 239.68,821 C252.36,837.48 265.5289,845.7864 285.4489,851.8364" fill="none" id="Member-to-U11" style="stroke:#181818;stroke-width:1;"/><polygon fill="#181818" points="291.19,853.58,283.7408,847.1372,286.4058,852.127,281.416,854.7919,291.19,853.58" style="stroke:#181818;stroke-width:1;"/></g><!--link Member to U12--><g class="link" data-entity-1="ent0003" data-entity-2="ent0022" data-link-type="dependency" data-source-line="44" id="lnk37"><path d="M100.6,329.78 C136.31,312.85 197.27,292.06 231.68,326 C243.04,337.2 229.8,887.49 239.68,900 C255.56,920.11 275.0083,928.8886 299.9483,933.4586" fill="none" id="Member-to-U12" style="stroke:#181818;stroke-width:1;"/><polygon fill="#181818" points="305.85,934.54,297.7183,928.9834,300.9319,933.6388,296.2764,936.8523,305.85,934.54" style="stroke:#181818;stroke-width:1;"/></g><!--link Reception to U2--><g class="link" data-entity-1="ent0004" data-entity-2="ent0012" data-link-type="dependency" data-source-line="46" id="lnk38"><path d="M123.37,1196.22 C159.52,1213.99 205.98,1242.91 231.68,1283 C243.36,1301.21 224.82,1315.29 239.68,1331 C268.83,1361.83 314.7718,1366.1661 347.2018,1365.3761" fill="none" id="Reception-to-U2" style="stroke:#181818;stroke-width:1;"/><polygon fill="#181818" points="353.2,1365.23,344.1053,1361.4504,348.2015,1365.3518,344.3001,1369.448,353.2,1365.23" style="stroke:#181818;stroke-width:1;"/></g><!--link Trainer to U2--><g class="link" data-entity-1="ent0005" data-entity-2="ent0012" data-link-type="dependency" data-source-line="47" id="lnk39"><path d="M99.18,1287.33 C132.59,1288.88 190.29,1295.44 231.68,1321 C236.53,1323.99 234.86,1327.99 239.68,1331 C274.59,1352.82 316.5458,1359.3945 346.9158,1361.6045" fill="none" id="Trainer-to-U2" style="stroke:#181818;stroke-width:1;"/><polygon fill="#181818" points="352.9,1362.04,344.214,1357.3974,347.9132,1361.6771,343.6334,1365.3763,352.9,1362.04" style="stroke:#181818;stroke-width:1;"/></g><!--link Manager to U2--><g class="link" data-entity-1="ent0006" data-entity-2="ent0012" data-link-type="dependency" data-source-line="48" id="lnk40"><path d="M102.3,1378.7 C120.15,1367.86 143.73,1355.61 166.68,1350 C233.27,1333.74 308.8424,1346.0705 349.8624,1355.1705" fill="none" id="Manager-to-U2" style="stroke:#181818;stroke-width:1;"/><polygon fill="#181818" points="355.72,1356.47,347.7999,1350.6157,350.8387,1355.3871,346.0673,1358.4259,355.72,1356.47" style="stroke:#181818;stroke-width:1;"/></g><!--link Owner to U2--><g class="link" data-entity-1="ent0007" data-entity-2="ent0012" data-link-type="dependency" data-source-line="49" id="lnk41"><path d="M99.33,1487.24 C130.84,1460.76 185.56,1418.58 239.68,1395 C277.19,1378.66 318.0748,1371.009 347.5448,1366.999" fill="none" id="Owner-to-U2" style="stroke:#181818;stroke-width:1;"/><polygon fill="#181818" points="353.49,1366.19,344.0329,1363.44,348.5357,1366.8641,345.1115,1371.3669,353.49,1366.19" style="stroke:#181818;stroke-width:1;"/></g><!--link Manager to U13--><g class="link" data-entity-1="ent0006" data-entity-2="ent0023" data-link-type="dependency" data-source-line="51" id="lnk42"><path d="M102.32,1401.71 C153.93,1406.38 254.3644,1415.4595 320.0344,1421.3995" fill="none" id="Manager-to-U13" style="stroke:#181818;stroke-width:1;"/><polygon fill="#181818" points="326.01,1421.94,317.4069,1417.1455,321.0303,1421.4896,316.6863,1425.113,326.01,1421.94" style="stroke:#181818;stroke-width:1;"/></g><!--link Manager to U14--><g class="link" data-entity-1="ent0006" data-entity-2="ent0024" data-link-type="dependency" data-source-line="52" id="lnk43"><path d="M102.22,1410.91 C135.43,1423.86 190.83,1444.63 239.68,1459 C270.23,1467.98 299.1643,1474.8274 326.7143,1480.7574" fill="none" id="Manager-to-U14" style="stroke:#181818;stroke-width:1;"/><polygon fill="#181818" points="332.58,1482.02,324.6232,1476.2157,327.692,1480.9679,322.9398,1484.0366,332.58,1482.02" style="stroke:#181818;stroke-width:1;"/></g><!--link Owner to U13--><g class="link" data-entity-1="ent0007" data-entity-2="ent0023" data-link-type="dependency" data-source-line="53" id="lnk44"><path d="M99.1,1501.96 C131.98,1491.02 189.57,1472.4 239.68,1459 C271.62,1450.47 302.1108,1443.566 330.0908,1437.626" fill="none" id="Owner-to-U13" style="stroke:#181818;stroke-width:1;"/><polygon fill="#181818" points="335.96,1436.38,326.3255,1434.3362,331.069,1437.4183,327.9869,1442.1618,335.96,1436.38" style="stroke:#181818;stroke-width:1;"/></g><!--link Owner to U14--><g class="link" data-entity-1="ent0007" data-entity-2="ent0024" data-link-type="dependency" data-source-line="54" id="lnk45"><path d="M99.16,1512.03 C130.85,1513 185.16,1513.93 231.68,1511 C263.85,1508.98 293.7202,1505.3877 322.3102,1501.3077" fill="none" id="Owner-to-U14" style="stroke:#181818;stroke-width:1;"/><polygon fill="#181818" points="328.25,1500.46,318.7752,1497.7716,323.3001,1501.1664,319.9054,1505.6914,328.25,1500.46" style="stroke:#181818;stroke-width:1;"/></g><!--link EmailSvc to U10--><g class="link" data-entity-1="ent0008" data-entity-2="ent0020" data-link-type="dependency" data-source-line="56" id="lnk46"><path d="M119.24,679.88 C155.65,676.55 204.39,679.15 231.68,710 C251.6,732.52 221.35,1227.18 239.68,1251 C252.21,1267.28 265.0673,1275.5191 284.7173,1281.5891" fill="none" id="EmailSvc-to-U10" style="stroke:#181818;stroke-width:1;"/><polygon fill="#181818" points="290.45,1283.36,283.0315,1276.8819,285.6727,1281.8843,280.6703,1284.5255,290.45,1283.36" style="stroke:#181818;stroke-width:1;"/></g><!--link Cleanup to U17--><g class="link" data-entity-1="ent0009" data-entity-2="ent0027" data-link-type="dependency" data-source-line="57" id="lnk47"><path d="M136.88,1610.71 C187.32,1601.1 251.4961,1588.8731 303.8161,1578.9031" fill="none" id="Cleanup-to-U17" style="stroke:#181818;stroke-width:1;"/><polygon fill="#181818" points="309.71,1577.78,300.1203,1575.5354,304.7984,1578.7159,301.6178,1583.394,309.71,1577.78" style="stroke:#181818;stroke-width:1;"/></g><!--link U2 to U3--><g class="link" data-entity-1="ent0012" data-entity-2="ent0013" data-link-type="dependency" data-source-line="59" id="lnk48"><path d="M353.32,1365.9 C320.03,1367.33 267.13,1363.72 239.68,1331 C205.28,1289.99 161.4,408.18 197.32,368.5 C227.66,335 274.1179,331.8364 315.5379,336.5164" fill="none" id="U2-to-U3" style="stroke:#181818;stroke-width:1;stroke-dasharray:7,7;"/><polygon fill="#181818" points="321.5,337.19,313.006,332.2048,316.5316,336.6286,312.1078,340.1542,321.5,337.19" style="stroke:#181818;stroke-width:1;"/><text fill="#000000" font-family="sans-serif" font-size="13" lengthAdjust="spacing" textLength="63.0068" x="167.68" y="381.5669">&#171;include&#187;</text></g><!--link U2 to U4--><g class="link" data-entity-1="ent0012" data-entity-2="ent0014" data-link-type="dependency" data-source-line="60" id="lnk49"><path d="M353.35,1365.88 C320.09,1367.27 267.23,1363.64 239.68,1331 C117.36,1186.04 184.47,667.74 197.32,478.5 C206.76,339.54 147.13,272.08 239.68,168 C255.23,150.52 271.9863,142.1604 294.6663,136.8804" fill="none" id="U2-to-U4" style="stroke:#181818;stroke-width:1;stroke-dasharray:7,7;"/><polygon fill="#181818" points="300.51,135.52,290.8374,133.6648,295.6402,136.6537,292.6514,141.4565,300.51,135.52" style="stroke:#181818;stroke-width:1;"/><text fill="#000000" font-family="sans-serif" font-size="13" lengthAdjust="spacing" textLength="63.0068" x="167.68" y="491.5669">&#171;include&#187;</text></g><!--link U5 to U6--><g class="link" data-entity-1="ent0015" data-entity-2="ent0016" data-link-type="dependency" data-source-line="61" id="lnk50"><path d="M315.84,785.43 C274.43,779.95 224.26,765.42 197.32,728.5 C142.75,653.71 179.41,384.28 239.68,314 C254.18,297.1 269.4424,288.7872 290.9824,283.1972" fill="none" id="U5-to-U6" style="stroke:#181818;stroke-width:1;stroke-dasharray:7,7;"/><polygon fill="#181818" points="296.79,281.69,287.0738,280.079,291.9503,282.946,289.0834,287.8225,296.79,281.69" style="stroke:#181818;stroke-width:1;"/><text fill="#000000" font-family="sans-serif" font-size="13" lengthAdjust="spacing" textLength="63.0068" x="167.68" y="724.5669">&#171;include&#187;</text></g><!--link U5 to U3--><g class="link" data-entity-1="ent0015" data-entity-2="ent0013" data-link-type="dependency" data-source-line="62" id="lnk51"><path d="M383.03,771.63 C383.03,703.45 383.03,448.22 383.03,375.11" fill="none" id="U5-to-U3" style="stroke:#181818;stroke-width:1;stroke-dasharray:7,7;"/><polygon fill="#181818" points="383.03,369.11,379.03,378.11,383.03,374.11,387.03,378.11,383.03,369.11" style="stroke:#181818;stroke-width:1;"/><text fill="#000000" font-family="sans-serif" font-size="13" lengthAdjust="spacing" textLength="63.0068" x="340.03" y="575.0069">&#171;include&#187;</text></g><!--link U5 to U4--><g class="link" data-entity-1="ent0015" data-entity-2="ent0014" data-link-type="dependency" data-source-line="63" id="lnk52"><path d="M335.8,799.76 C292.98,807.27 231.49,809.64 197.32,772.5 C151.74,722.95 196.56,219.71 239.68,168 C254.66,150.04 271.2547,141.5239 293.9647,136.2639" fill="none" id="U5-to-U4" style="stroke:#181818;stroke-width:1;stroke-dasharray:7,7;"/><polygon fill="#181818" points="299.81,134.91,290.1395,133.0439,294.9389,136.0382,291.9447,140.8376,299.81,134.91" style="stroke:#181818;stroke-width:1;"/><text fill="#000000" font-family="sans-serif" font-size="13" lengthAdjust="spacing" textLength="63.0068" x="167.68" y="768.5669">&#171;include&#187;</text></g><!--link U11 to U15--><g class="link" data-entity-1="ent0021" data-entity-2="ent0025" data-link-type="dependency" data-source-line="64" id="lnk53"><path d="M291.86,853.08 C271.91,847.03 252.85,837.1 239.68,821 C197.47,769.4 152.71,272.04 197.32,222.5 C228.24,188.17 276.3097,185.3305 318.1497,190.1705" fill="none" id="U11-to-U15" style="stroke:#181818;stroke-width:1;stroke-dasharray:7,7;"/><polygon fill="#181818" points="324.11,190.86,315.6293,185.8523,319.1431,190.2854,314.71,193.7993,324.11,190.86" style="stroke:#181818;stroke-width:1;"/><text fill="#000000" font-family="sans-serif" font-size="13" lengthAdjust="spacing" textLength="63.0068" x="167.68" y="235.5669">&#171;include&#187;</text></g><!--link U12 to U15--><g class="link" data-entity-1="ent0022" data-entity-2="ent0025" data-link-type="dependency" data-source-line="65" id="lnk54"><path d="M306.09,933.74 C281.42,929.03 256.23,919.27 239.68,900 C172.02,821.19 186.32,537.79 197.32,434.5 C206.79,345.67 177.37,302.03 239.68,238 C257.01,220.19 275.9024,212.016 299.9924,207.286" fill="none" id="U12-to-U15" style="stroke:#181818;stroke-width:1;stroke-dasharray:7,7;"/><polygon fill="#181818" points="305.88,206.13,296.278,203.939,300.9737,207.0933,297.8193,211.7891,305.88,206.13" style="stroke:#181818;stroke-width:1;"/><text fill="#000000" font-family="sans-serif" font-size="13" lengthAdjust="spacing" textLength="63.0068" x="167.68" y="447.5669">&#171;include&#187;</text></g><!--link U2 to U15--><g class="link" data-entity-1="ent0012" data-entity-2="ent0025" data-link-type="dependency" data-source-line="66" id="lnk55"><path d="M353.35,1365.88 C320.08,1367.28 267.21,1363.66 239.68,1331 C116.74,1185.11 202.03,664.23 197.32,473.5 C194.7,367.19 166.31,314.98 239.68,238 C256.83,220.01 275.6713,211.7804 299.7813,207.0704" fill="none" id="U2-to-U15" style="stroke:#181818;stroke-width:1;stroke-dasharray:7,7;"/><polygon fill="#181818" points="305.67,205.92,296.07,203.7198,300.7628,206.8787,297.6039,211.5714,305.67,205.92" style="stroke:#181818;stroke-width:1;"/><text fill="#000000" font-family="sans-serif" font-size="13" lengthAdjust="spacing" textLength="63.0068" x="167.68" y="469.5669">&#171;include&#187;</text></g><!--link U5 to U15--><g class="link" data-entity-1="ent0015" data-entity-2="ent0025" data-link-type="dependency" data-source-line="67" id="lnk56"><path d="M319.36,793.83 C277.78,793.78 226.07,785.63 197.32,750.5 C161.14,706.28 202.51,281.4 239.68,238 C256.01,218.94 274.9532,210.4479 299.3832,205.8579" fill="none" id="U5-to-U15" style="stroke:#181818;stroke-width:1;stroke-dasharray:7,7;"/><polygon fill="#181818" points="305.28,204.75,295.6962,202.4807,300.366,205.6733,297.1734,210.3431,305.28,204.75" style="stroke:#181818;stroke-width:1;"/><text fill="#000000" font-family="sans-serif" font-size="13" lengthAdjust="spacing" textLength="63.0068" x="167.68" y="746.5669">&#171;include&#187;</text></g><!--link U7 to U15--><g class="link" data-entity-1="ent0017" data-entity-2="ent0025" data-link-type="dependency" data-source-line="68" id="lnk57"><path d="M346.41,1005.94 C313.24,1006.39 265.7,1001.09 239.68,971 C157.53,876.02 202.03,532.99 197.32,407.5 C194.41,329.91 183.92,292.04 239.68,238 C257.53,220.71 276.5451,212.6696 300.5951,207.8896" fill="none" id="U7-to-U15" style="stroke:#181818;stroke-width:1;stroke-dasharray:7,7;"/><polygon fill="#181818" points="306.48,206.72,296.8729,204.5512,301.5759,207.6947,298.4324,212.3977,306.48,206.72" style="stroke:#181818;stroke-width:1;"/><text fill="#000000" font-family="sans-serif" font-size="13" lengthAdjust="spacing" textLength="63.0068" x="167.68" y="403.5669">&#171;include&#187;</text></g><!--link U16 to U15--><g class="link" data-entity-1="ent0026" data-entity-2="ent0025" data-link-type="dependency" data-source-line="69" id="lnk58"><path d="M297.54,1067.57 C275.61,1062.19 254.15,1052.39 239.68,1035 C151,928.42 180.85,550.17 197.32,412.5 C206.8,333.26 183.29,294.47 239.68,238 C257.24,220.42 276.1834,212.3012 300.2634,207.5512" fill="none" id="U16-to-U15" style="stroke:#181818;stroke-width:1;stroke-dasharray:7,7;"/><polygon fill="#181818" points="306.15,206.39,296.546,204.2074,301.2445,207.3576,298.0943,212.0561,306.15,206.39" style="stroke:#181818;stroke-width:1;"/><text fill="#000000" font-family="sans-serif" font-size="13" lengthAdjust="spacing" textLength="63.0068" x="167.68" y="425.5669">&#171;include&#187;</text></g><!--link U13 to U15--><g class="link" data-entity-1="ent0023" data-entity-2="ent0025" data-link-type="dependency" data-source-line="70" id="lnk59"><path d="M323.17,1429.45 C293.52,1427.23 259.83,1418.87 239.68,1395 C117.36,1250.04 184.22,731.73 197.32,542.5 C206.76,406.19 148.08,339.38 239.68,238 C256.43,219.47 275.3172,211.109 299.5872,206.459" fill="none" id="U13-to-U15" style="stroke:#181818;stroke-width:1;stroke-dasharray:7,7;"/><polygon fill="#181818" points="305.48,205.33,295.8881,203.095,300.5693,206.2709,297.3935,210.9521,305.48,205.33" style="stroke:#181818;stroke-width:1;"/><text fill="#000000" font-family="sans-serif" font-size="13" lengthAdjust="spacing" textLength="63.0068" x="167.68" y="555.5669">&#171;include&#187;</text></g><!--link U14 to U15--><g class="link" data-entity-1="ent0024" data-entity-2="ent0025" data-link-type="dependency" data-source-line="71" id="lnk60"><path d="M318.38,1493.56 C289.93,1490.61 258.71,1481.7 239.68,1459 C117.84,1313.63 186.48,795.87 197.32,606.5 C206.75,441.92 130.62,361.63 239.68,238 C256.21,219.27 275.0462,210.8539 299.3262,206.2239" fill="none" id="U14-to-U15" style="stroke:#181818;stroke-width:1;stroke-dasharray:7,7;"/><polygon fill="#181818" points="305.22,205.1,295.63,202.8567,300.3085,206.0366,297.1286,210.715,305.22,205.1" style="stroke:#181818;stroke-width:1;"/><text fill="#000000" font-family="sans-serif" font-size="13" lengthAdjust="spacing" textLength="63.0068" x="167.68" y="619.5669">&#171;include&#187;</text></g><?plantuml-src TLF9Rjim4BtpAmO-v5AaY6JPJeB0W6iOHOC6BIIdFJFKM2OiaIv9sGsA_dkeXOeOIpU-1SEPHqwEEmD6WkBPta3A5JB3fI3wmCMHAbh0aR83pJ0nhpb29LEHvTWpK6QaQcHwHYqB9AJcu6k9shJd9onUKBKWHeR7wfx4qDqEg7vdMiTMKIuw_nCLjWM7VfpVbScce3o71DM9CvnKfMecEJ7dsCe32bZdI4LvX4VvKhjQJ4Wt4anMfTcZC9pHgXEuWXLZg3KahzfWCO5_1A3KoAYsvXWpRcbLcMGfJ5trEUXRlikCYuOF-_mthKjqnUls6jFqqXJZJg7UzrsHtyM5FlDqQQWPB3F_qAaisn4Mdc1dj9qQVa8RijOs5ztORlqsJhQoSpI6Ez_mf_eCy9DgVPOgjHrfT9dTz9rhANPS5SDEBzxrthuRTiRMuYMzilra0cAPOojF_QuAQGVhoLwugpBbTdhxAs1piX-ZdJpm4lv5SvvM6J_-ti8dYB-irgrjFf3Gvk_HxbZQF8Ihjo3_2QcN1QwlbzKdwe7GKsu8QJR9YNqqyz32GxSUklEGZTM38I7TFhfxseNihcqsqi5w9HtmHPkuZwE-swfz517YrhSRs6rkWnU4F8VmsHwdS0yF3roml4nnkNHqz96UrVHyc9uEqnT5Wg3cWzc548u8O_niX5-CNJ0V4wPZGZGil040?></g></svg>