<?plantuml 1.2026.1?><svg xmlns="http://www.w3.org/2000/svg" xmlns:xlink="http://www.w3.org/1999/xlink" contentStyleType="text/css" data-diagram-type="DESCRIPTION" height="1341px" preserveAspectRatio="none" style="width:477px;height:1341px;background:#FFFFFF;" version="1.1" viewBox="0 0 477 1341" width="477px" zoomAndPan="magnify"><defs/><g><!--cluster User Management System--><g class="cluster" data-qualified-name="User Management System" data-source-line="10" id="ent0006"><rect fill="none" height="1062" rx="2.5" ry="2.5" style="stroke:#181818;stroke-width:1;" width="251.58" x="220.17" y="98.16"/><text fill="#000000" font-family="sans-serif" font-size="14" font-weight="bold" lengthAdjust="spacing" textLength="207.2178" x="242.3511" y="113.1551">User Management System</text></g><!--entity U1--><g class="entity" data-qualified-name="User Management System.U1" data-source-line="11" id="ent0007"><ellipse cx="345.9613" cy="157.1583" fill="#F1F1F1" rx="109.7913" ry="24.3583" style="stroke:#181818;stroke-width:0.5;"/><text fill="#000000" font-family="sans-serif" font-size="14" lengthAdjust="spacing" textLength="68.127" x="311.8978" y="149.7125">List Users</text><text fill="#000000" font-family="sans-serif" font-size="14" lengthAdjust="spacing" textLength="174.248" x="258.8373" y="166.0094">(search/filter/pagination)</text></g><!--entity U2--><g class="entity" data-qualified-name="User Management System.U2" data-source-line="12" id="ent0008"><ellipse cx="345.9594" cy="705.1639" fill="#F1F1F1" rx="76.7194" ry="17.7439" style="stroke:#181818;stroke-width:0.5;"/><text fill="#000000" font-family="sans-serif" font-size="14" lengthAdjust="spacing" textLength="122.876" x="284.5214" y="709.8123">View User Details</text></g><!--entity U3--><g class="entity" data-qualified-name="User Management System.U3" data-source-line="13" id="ent0009"><ellipse cx="345.9631" cy="842.1646" fill="#F1F1F1" rx="61.2231" ry="14.6446" style="stroke:#181818;stroke-width:0.5;"/><text fill="#000000" font-family="sans-serif" font-size="14" lengthAdjust="spacing" textLength="83.1865" x="304.3698" y="846.8131">Create User</text></g><!--entity U4--><g class="entity" data-qualified-name="User Management System.U4" data-source-line="14" id="ent0010"><ellipse cx="345.9587" cy="633.1597" fill="#F1F1F1" rx="82.0987" ry="18.8197" style="stroke:#181818;stroke-width:0.5;"/><text fill="#000000" font-family="sans-serif" font-size="14" lengthAdjust="spacing" textLength="135.5977" x="278.1599" y="637.8082">Update User Profile</text></g><!--entity U5--><g class="entity" data-qualified-name="User Management System.U5" data-source-line="15" id="ent0011"><ellipse cx="345.9647" cy="775.1609" fill="#F1F1F1" rx="72.4047" ry="16.8809" style="stroke:#181818;stroke-width:0.5;"/><text fill="#000000" font-family="sans-serif" font-size="14" lengthAdjust="spacing" textLength="112.376" x="289.7767" y="779.8094">Deactivate User</text></g><!--entity U6--><g class="entity" data-qualified-name="User Management System.U6" data-source-line="16" id="ent0012"><ellipse cx="345.9593" cy="908.1559" fill="#F1F1F1" rx="71.9793" ry="16.7959" style="stroke:#181818;stroke-width:0.5;"/><text fill="#000000" font-family="sans-serif" font-size="14" lengthAdjust="spacing" textLength="111.3232" x="290.2977" y="912.8043">Reactivate User</text></g><!--entity U7--><g class="entity" data-qualified-name="User Management System.U7" data-source-line="17" id="ent0013"><ellipse cx="345.9585" cy="974.1636" fill="#F1F1F1" rx="60.3185" ry="14.5236" style="stroke:#181818;stroke-width:0.5;"/><text fill="#000000" font-family="sans-serif" font-size="14" lengthAdjust="spacing" textLength="81.0605" x="305.4282" y="978.8121">Assign Role</text></g><!--entity U8--><g class="entity" data-qualified-name="User Management System.U8" data-source-line="18" id="ent0014"><ellipse cx="345.9567" cy="1039.1613" fill="#F1F1F1" rx="64.7067" ry="15.3413" style="stroke:#181818;stroke-width:0.5;"/><text fill="#000000" font-family="sans-serif" font-size="14" lengthAdjust="spacing" textLength="92.6885" x="299.6124" y="1043.8098">Remove Role</text></g><!--entity U9--><g class="entity" data-qualified-name="User Management System.U9" data-source-line="19" id="ent0015"><ellipse cx="345.9643" cy="232.1609" fill="#F1F1F1" rx="66.8043" ry="15.7609" style="stroke:#181818;stroke-width:0.5;"/><text fill="#000000" font-family="sans-serif" font-size="14" lengthAdjust="spacing" textLength="98.2051" x="296.8617" y="236.8093">Validate Input</text></g><!--entity U10--><g class="entity" data-qualified-name="User Management System.U10" data-source-line="20" id="ent0016"><ellipse cx="345.9604" cy="1125.1601" fill="#F1F1F1" rx="84.7004" ry="19.3401" style="stroke:#181818;stroke-width:0.5;"/><text fill="#000000" font-family="sans-serif" font-size="14" lengthAdjust="spacing" textLength="141.6338" x="275.1435" y="1129.8085">Enforce RBAC Policy</text></g><!--entity U11--><g class="entity" data-qualified-name="User Management System.U11" data-source-line="21" id="ent0017"><ellipse cx="345.962" cy="302.1624" fill="#F1F1F1" rx="83.312" ry="19.0624" style="stroke:#181818;stroke-width:0.5;"/><text fill="#000000" font-family="sans-serif" font-size="14" lengthAdjust="spacing" textLength="138.4209" x="276.7515" y="306.8108">Audit User Changes</text></g><!--entity Reception--><g class="entity" data-qualified-name="Reception" data-source-line="5" id="ent0002"><ellipse cx="57.584" cy="266.01" fill="#F1F1F1" rx="16" ry="16" style="stroke:#181818;stroke-width:0.5;"/><path d="M57.584,286.01 C61.584,286.01 64.584,286.01 68.584,282.01 C76.584,282.01 84.584,290.01 84.584,298.01 L84.584,302.01 C84.584,306.01 80.584,310.01 76.584,310.01 L38.584,310.01 C34.584,310.01 30.584,306.01 30.584,302.01 L30.584,298.01 C30.584,290.01 38.584,282.01 46.584,282.01 C50.584,286.01 53.584,286.01 57.584,286.01" fill="#F1F1F1" style="stroke:#181818;stroke-width:0.5;"/><text fill="#000000" font-family="sans-serif" font-size="14" lengthAdjust="spacing" textLength="103.168" x="6" y="323.5051">ReceptionStaff</text></g><!--entity Manager--><g class="entity" data-qualified-name="Manager" data-source-line="6" id="ent0003"><ellipse cx="57.5831" cy="731.01" fill="#F1F1F1" rx="16" ry="16" style="stroke:#181818;stroke-width:0.5;"/><path d="M57.5831,751.01 C61.5831,751.01 64.5831,751.01 68.5831,747.01 C76.5831,747.01 84.5831,755.01 84.5831,763.01 L84.5831,767.01 C84.5831,771.01 80.5831,775.01 76.5831,775.01 L38.5831,775.01 C34.5831,775.01 30.5831,771.01 30.5831,767.01 L30.5831,763.01 C30.5831,755.01 38.5831,747.01 46.5831,747.01 C50.5831,751.01 53.5831,751.01 57.5831,751.01" fill="#F1F1F1" style="stroke:#181818;stroke-width:0.5;"/><text fill="#000000" font-family="sans-serif" font-size="14" lengthAdjust="spacing" textLength="61.3662" x="26.9" y="788.5051">Manager</text></g><!--entity Owner--><g class="entity" data-qualified-name="Owner" data-source-line="7" id="ent0004"><ellipse cx="57.58" cy="856.01" fill="#F1F1F1" rx="16" ry="16" style="stroke:#181818;stroke-width:0.5;"/><path d="M57.58,876.01 C61.58,876.01 64.58,876.01 68.58,872.01 C76.58,872.01 84.58,880.01 84.58,888.01 L84.58,892.01 C84.58,896.01 80.58,900.01 76.58,900.01 L38.58,900.01 C34.58,900.01 30.58,896.01 30.58,892.01 L30.58,888.01 C30.58,880.01 38.58,872.01 46.58,872.01 C50.58,876.01 53.58,876.01 57.58,876.01" fill="#F1F1F1" style="stroke:#181818;stroke-width:0.5;"/><text fill="#000000" font-family="sans-serif" font-size="14" lengthAdjust="spacing" textLength="45.7119" x="34.724" y="913.5051">Owner</text></g><!--entity Guard--><g class="entity" data-qualified-name="Guard" data-source-line="8" id="ent0005"><ellipse cx="57.583" cy="1275.01" fill="#F1F1F1" rx="16" ry="16" style="stroke:#181818;stroke-width:0.5;"/><path d="M57.583,1295.01 C61.583,1295.01 64.583,1295.01 68.583,1291.01 C76.583,1291.01 84.583,1299.01 84.583,1307.01 L84.583,1311.01 C84.583,1315.01 80.583,1319.01 76.583,1319.01 L38.583,1319.01 C34.583,1319.01 30.583,1315.01 30.583,1311.01 L30.583,1307.01 C30.583,1299.01 38.583,1291.01 46.583,1291.01 C50.583,1295.01 53.583,1295.01 57.583,1295.01" fill="#F1F1F1" style="stroke:#181818;stroke-width:0.5;"/><text fill="#000000" font-family="sans-serif" font-size="14" lengthAdjust="spacing" textLength="80.2061" x="17.48" y="1332.5051">Auth Guard</text></g><!--link Reception to U1--><g class="link" data-entity-1="ent0002" data-entity-2="ent0007" data-link-type="dependency" data-source-line="24" id="lnk18"><path d="M58.9,249.03 C61.72,194.28 75.92,96.46 139.17,51.16 C202.23,6 283.2325,84.6527 321.2225,128.3327" fill="none" id="Reception-to-U1" style="stroke:#181818;stroke-width:1;"/><polygon fill="#181818" points="325.16,132.86,322.2719,123.4441,321.8787,129.0873,316.2356,128.6941,325.16,132.86" style="stroke:#181818;stroke-width:1;"/></g><!--link Reception to U2--><g class="link" data-entity-1="ent0002" data-entity-2="ent0008" data-link-type="dependency" data-source-line="25" id="lnk19"><path d="M109.53,272.9 C141.08,266.87 180.04,266.21 204.17,290.16 C219.11,305 199.2,652.57 212.17,669.16 C226.22,687.13 242.4143,695.3923 264.5343,700.3323" fill="none" id="Reception-to-U2" style="stroke:#181818;stroke-width:1;"/><polygon fill="#181818" points="270.39,701.64,262.4782,695.7745,265.5102,700.5502,260.7345,703.5822,270.39,701.64" style="stroke:#181818;stroke-width:1;"/></g><!--link Reception to U3--><g class="link" data-entity-1="ent0002" data-entity-2="ent0009" data-link-type="dependency" data-source-line="26" id="lnk20"><path d="M63.62,326.96 C71.89,377.99 92.36,468.4 139.17,530.16 C160.24,557.96 187.29,543.63 204.17,574.16 C216.81,597.03 195.73,788.86 212.17,809.16 C229.43,830.49 252.1947,838.5592 278.5147,841.7892" fill="none" id="Reception-to-U3" style="stroke:#181818;stroke-width:1;"/><polygon fill="#181818" points="284.47,842.52,276.0242,837.4535,279.5072,841.911,275.0498,845.394,284.47,842.52" style="stroke:#181818;stroke-width:1;"/></g><!--link Reception to U4--><g class="link" data-entity-1="ent0002" data-entity-2="ent0010" data-link-type="dependency" data-source-line="27" id="lnk21"><path d="M72.83,249.09 C85.49,220.71 107.02,184.38 139.17,167.16 C164.64,153.52 183.27,147.21 204.17,167.16 C218.01,180.37 207.71,320.56 212.17,339.16 C238.55,449.18 302.8955,563.4735 330.1655,608.9735" fill="none" id="Reception-to-U4" style="stroke:#181818;stroke-width:1;"/><polygon fill="#181818" points="333.25,614.12,332.0543,604.344,330.6796,609.8313,325.1923,608.4566,333.25,614.12" style="stroke:#181818;stroke-width:1;"/></g><!--link Reception to U5--><g class="link" data-entity-1="ent0002" data-entity-2="ent0011" data-link-type="dependency" data-source-line="28" id="lnk22"><path d="M99.43,327.2 C111.88,338.53 125.8,350.67 139.17,361.16 C166.61,382.7 187.45,374.54 204.17,405.16 C213.09,421.5 200.63,725.55 212.17,740.16 C227.02,758.96 244.7802,767.2555 268.0402,771.7755" fill="none" id="Reception-to-U5" style="stroke:#181818;stroke-width:1;"/><polygon fill="#181818" points="273.93,772.92,265.8583,767.2766,269.0218,771.9662,264.3322,775.1297,273.93,772.92" style="stroke:#181818;stroke-width:1;"/></g><!--link Reception to U6--><g class="link" data-entity-1="ent0002" data-entity-2="ent0012" data-link-type="dependency" data-source-line="29" id="lnk23"><path d="M63.54,327.27 C79.32,445.62 132.11,796.58 212.17,874.16 C229.17,890.64 247.1385,898.2634 269.9385,902.8634" fill="none" id="Reception-to-U6" style="stroke:#181818;stroke-width:1;"/><polygon fill="#181818" points="275.82,904.05,267.7888,898.3491,270.9188,903.0612,266.2067,906.1911,275.82,904.05" style="stroke:#181818;stroke-width:1;"/></g><!--link Manager to U1--><g class="link" data-entity-1="ent0003" data-entity-2="ent0007" data-link-type="dependency" data-source-line="31" id="lnk24"><path d="M63.3,714.25 C79.71,579.11 133.64,138.01 139.17,133.16 C183.22,94.47 249.0905,112.4039 295.1405,132.2639" fill="none" id="Manager-to-U1" style="stroke:#181818;stroke-width:1;"/><polygon fill="#181818" points="300.65,134.64,293.9698,127.4029,296.0588,132.6599,290.8017,134.7489,300.65,134.64" style="stroke:#181818;stroke-width:1;"/></g><!--link Manager to U2--><g class="link" data-entity-1="ent0003" data-entity-2="ent0008" data-link-type="dependency" data-source-line="32" id="lnk25"><path d="M63.86,714.07 C74.28,643.37 99.97,498.79 139.17,469.16 C162.22,451.74 183.34,449.15 204.17,469.16 C220.21,484.57 198.3,651.77 212.17,669.16 C226.39,687 242.6249,695.2292 264.7349,700.1792" fill="none" id="Manager-to-U2" style="stroke:#181818;stroke-width:1;"/><polygon fill="#181818" points="270.59,701.49,262.6813,695.6204,265.7108,700.3976,260.9335,703.4271,270.59,701.49" style="stroke:#181818;stroke-width:1;"/></g><!--link Manager to U3--><g class="link" data-entity-1="ent0003" data-entity-2="ent0009" data-link-type="dependency" data-source-line="33" id="lnk26"><path d="M88.57,765.17 C119.3,777.22 168.61,795.85 212.17,809.16 C241.02,817.98 268.0866,824.8081 293.9166,830.8281" fill="none" id="Manager-to-U3" style="stroke:#181818;stroke-width:1;"/><polygon fill="#181818" points="299.76,832.19,291.9028,826.2516,294.8905,831.0551,290.087,834.0428,299.76,832.19" style="stroke:#181818;stroke-width:1;"/></g><!--link Manager to U4--><g class="link" data-entity-1="ent0003" data-entity-2="ent0010" data-link-type="dependency" data-source-line="34" id="lnk27"><path d="M62.03,714.07 C72.31,602.04 104.18,285.94 139.17,256.16 C161.17,237.44 182.78,236.74 204.17,256.16 C217.88,268.62 207.4,321.26 212.17,339.16 C241.34,448.76 304.4393,563.7401 330.7993,609.1801" fill="none" id="Manager-to-U4" style="stroke:#181818;stroke-width:1;"/><polygon fill="#181818" points="333.81,614.37,332.7539,604.5779,331.3011,610.045,325.834,608.5922,333.81,614.37" style="stroke:#181818;stroke-width:1;"/></g><!--link Manager to U5--><g class="link" data-entity-1="ent0003" data-entity-2="ent0011" data-link-type="dependency" data-source-line="35" id="lnk28"><path d="M88.42,751.33 C103.61,750.48 122.36,749.58 139.17,749.16 C168.05,748.45 175.4,746.53 204.17,749.16 C233.87,751.88 260.7851,756.5411 287.2451,762.0311" fill="none" id="Manager-to-U5" style="stroke:#181818;stroke-width:1;"/><polygon fill="#181818" points="293.12,763.25,285.1203,757.505,288.2243,762.2342,283.4951,765.3382,293.12,763.25" style="stroke:#181818;stroke-width:1;"/></g><!--link Manager to U6--><g class="link" data-entity-1="ent0003" data-entity-2="ent0012" data-link-type="dependency" data-source-line="36" id="lnk29"><path d="M88.69,787.32 C96.52,797.86 104.16,809.93 109.17,822.16 C126.76,865.18 104.02,998.74 139.17,1029.16 C161.01,1048.07 182.83,1048.63 204.17,1029.16 C218.51,1016.08 199.57,956.94 212.17,942.16 C227.61,924.05 245.3572,916.029 268.4272,911.609" fill="none" id="Manager-to-U6" style="stroke:#181818;stroke-width:1;"/><polygon fill="#181818" points="274.32,910.48,264.7281,908.245,269.4093,911.4208,266.2334,916.1021,274.32,910.48" style="stroke:#181818;stroke-width:1;"/></g><!--link Manager to U7--><g class="link" data-entity-1="ent0003" data-entity-2="ent0013" data-link-type="dependency" data-source-line="37" id="lnk30"><path d="M88.54,786.92 C96.47,797.54 104.2,809.75 109.17,822.16 C128.34,870.01 100.44,1018.15 139.17,1052.16 C160.88,1071.22 182.06,1070.76 204.17,1052.16 C220.05,1038.8 197.97,1021.3 212.17,1006.16 C230.82,986.27 253.5579,978.5469 279.5079,975.2469" fill="none" id="Manager-to-U7" style="stroke:#181818;stroke-width:1;"/><polygon fill="#181818" points="285.46,974.49,276.0273,971.6573,280.4999,975.1208,277.0365,979.5934,285.46,974.49" style="stroke:#181818;stroke-width:1;"/></g><!--link Manager to U8--><g class="link" data-entity-1="ent0003" data-entity-2="ent0014" data-link-type="dependency" data-source-line="38" id="lnk31"><path d="M88.63,786.88 C96.56,797.5 104.27,809.72 109.17,822.16 C129.92,874.84 96.84,1037.56 139.17,1075.16 C163.77,1097.02 251.2484,1071.7187 303.3884,1054.0187" fill="none" id="Manager-to-U8" style="stroke:#181818;stroke-width:1;"/><polygon fill="#181818" points="309.07,1052.09,299.2619,1051.1954,304.3354,1053.6973,301.8335,1058.7708,309.07,1052.09" style="stroke:#181818;stroke-width:1;"/></g><!--link Owner to U1--><g class="link" data-entity-1="ent0004" data-entity-2="ent0007" data-link-type="dependency" data-source-line="40" id="lnk32"><path d="M85.4,849.45 C94.64,837.82 103.96,823.71 109.17,809.16 C150.05,694.96 86.5,373.43 139.17,264.16 C162.51,215.74 211.7432,190.5098 259.0032,175.7398" fill="none" id="Owner-to-U1" style="stroke:#181818;stroke-width:1;"/><polygon fill="#181818" points="264.73,173.95,254.9466,172.8168,259.9576,175.4415,257.3329,180.4526,264.73,173.95" style="stroke:#181818;stroke-width:1;"/></g><!--link Owner to U2--><g class="link" data-entity-1="ent0004" data-entity-2="ent0008" data-link-type="dependency" data-source-line="41" id="lnk33"><path d="M85.32,848.99 C94.43,837.41 103.69,823.45 109.17,809.16 C133.09,746.81 89.65,554.96 139.17,510.16 C160.59,490.78 183.23,490.25 204.17,510.16 C216.99,522.35 201.07,655.39 212.17,669.16 C226.48,686.93 242.7349,695.1392 264.8449,700.0892" fill="none" id="Owner-to-U2" style="stroke:#181818;stroke-width:1;"/><polygon fill="#181818" points="270.7,701.4,262.7913,695.5304,265.8208,700.3076,261.0435,703.3371,270.7,701.4" style="stroke:#181818;stroke-width:1;"/></g><!--link Owner to U3--><g class="link" data-entity-1="ent0004" data-entity-2="ent0009" data-link-type="dependency" data-source-line="42" id="lnk34"><path d="M85.51,877.53 C114.81,876.59 162.96,874.36 204.17,869.16 C236.51,865.08 266.75,859.3422 294.3,853.5122" fill="none" id="Owner-to-U3" style="stroke:#181818;stroke-width:1;"/><polygon fill="#181818" points="300.17,852.27,290.5369,850.2199,295.2783,853.3052,292.1931,858.0466,300.17,852.27" style="stroke:#181818;stroke-width:1;"/></g><!--link Owner to U4--><g class="link" data-entity-1="ent0004" data-entity-2="ent0010" data-link-type="dependency" data-source-line="43" id="lnk35"><path d="M85.37,849.44 C94.61,837.81 103.94,823.7 109.17,809.16 C128.47,755.54 97.71,336.26 139.17,297.16 C160.18,277.34 181.91,278.74 204.17,297.16 C218.81,309.28 206.44,321.04 212.17,339.16 C246.36,447.3 306.6862,563.0476 331.5962,608.9076" fill="none" id="Owner-to-U4" style="stroke:#181818;stroke-width:1;"/><polygon fill="#181818" points="334.46,614.18,333.6792,604.3621,332.0735,609.7863,326.6493,608.1806,334.46,614.18" style="stroke:#181818;stroke-width:1;"/></g><!--link Owner to U5--><g class="link" data-entity-1="ent0004" data-entity-2="ent0011" data-link-type="dependency" data-source-line="44" id="lnk36"><path d="M85.52,864.66 C115.78,849.87 166.63,826.13 212.17,810.16 C238.27,801.01 262.1535,794.4024 286.8435,788.3324" fill="none" id="Owner-to-U5" style="stroke:#181818;stroke-width:1;"/><polygon fill="#181818" points="292.67,786.9,282.9753,785.1643,287.8146,788.0937,284.8852,792.933,292.67,786.9" style="stroke:#181818;stroke-width:1;"/></g><!--link Owner to U6--><g class="link" data-entity-1="ent0004" data-entity-2="ent0012" data-link-type="dependency" data-source-line="45" id="lnk37"><path d="M61.8,917.22 C68.01,964.27 86.16,1041.44 139.17,1077.16 C163.12,1093.31 183.14,1096.98 204.17,1077.16 C226.04,1056.55 193.05,965.35 212.17,942.16 C227.31,923.8 244.9859,915.7222 268.0959,911.3222" fill="none" id="Owner-to-U6" style="stroke:#181818;stroke-width:1;"/><polygon fill="#181818" points="273.99,910.2,264.4007,907.9539,269.0782,911.1352,265.897,915.8127,273.99,910.2" style="stroke:#181818;stroke-width:1;"/></g><!--link Owner to U7--><g class="link" data-entity-1="ent0004" data-entity-2="ent0013" data-link-type="dependency" data-source-line="46" id="lnk38"><path d="M59.99,916.91 C64.18,968.44 80.11,1057.83 139.17,1099.16 C162.84,1115.72 182.88,1118.69 204.17,1099.16 C219.45,1085.14 198.65,1021.89 212.17,1006.16 C230.1,985.3 253.091,977.4804 279.381,974.3904" fill="none" id="Owner-to-U7" style="stroke:#181818;stroke-width:1;"/><polygon fill="#181818" points="285.34,973.69,275.9346,970.7679,280.3742,974.2737,276.8685,978.7132,285.34,973.69" style="stroke:#181818;stroke-width:1;"/></g><!--link Owner to U8--><g class="link" data-entity-1="ent0004" data-entity-2="ent0014" data-link-type="dependency" data-source-line="47" id="lnk39"><path d="M58.5,916.85 C60.74,972.66 74.12,1074.2 139.17,1121.16 C162.59,1138.07 181.46,1139.02 204.17,1121.16 C216.03,1111.83 202.13,1099.43 212.17,1088.16 C232.02,1065.86 257.113,1055.1203 284.123,1048.4903" fill="none" id="Owner-to-U8" style="stroke:#181818;stroke-width:1;"/><polygon fill="#181818" points="289.95,1047.06,280.2559,1045.3208,285.0941,1048.2519,282.163,1053.0902,289.95,1047.06" style="stroke:#181818;stroke-width:1;"/></g><!--link Guard to U10--><g class="link" data-entity-1="ent0005" data-entity-2="ent0016" data-link-type="dependency" data-source-line="49" id="lnk40"><path d="M98.1,1273.43 C155.95,1238.68 257.3066,1177.8096 309.4466,1146.4896" fill="none" id="Guard-to-U10" style="stroke:#181818;stroke-width:1;"/><polygon fill="#181818" points="314.59,1143.4,304.8152,1144.6055,310.3038,1145.9747,308.9346,1151.4633,314.59,1143.4" style="stroke:#181818;stroke-width:1;"/></g><!--link U3 to U9--><g class="link" data-entity-1="ent0009" data-entity-2="ent0015" data-link-type="dependency" data-source-line="51" id="lnk41"><path d="M284.52,842.07 C258.4,838.67 229.92,829.86 212.17,809.16 C138.04,722.73 117.69,400.7 168.22,298.66 C188.39,257.92 232.5353,242.663 274.4053,236.433" fill="none" id="U3-to-U9" style="stroke:#181818;stroke-width:1;stroke-dasharray:7,7;"/><polygon fill="#181818" points="280.34,235.55,270.8493,232.9181,275.3944,236.2859,272.0267,240.831,280.34,235.55" style="stroke:#181818;stroke-width:1;"/><text fill="#000000" font-family="sans-serif" font-size="13" lengthAdjust="spacing" textLength="63.0068" x="140.17" y="311.7269">&#171;include&#187;</text></g><!--link U4 to U9--><g class="link" data-entity-1="ent0010" data-entity-2="ent0015" data-link-type="dependency" data-source-line="52" id="lnk42"><path d="M282.73,645.56 C243.8,649.19 196.15,645.66 168.22,614.66 C115.81,556.52 159.95,323.48 212.17,265.16 C229,246.36 248.7584,238.4167 273.1384,234.4367" fill="none" id="U4-to-U9" style="stroke:#181818;stroke-width:1;stroke-dasharray:7,7;"/><polygon fill="#181818" points="279.06,233.47,269.5331,230.9723,274.1253,234.2756,270.822,238.8678,279.06,233.47" style="stroke:#181818;stroke-width:1;"/><text fill="#000000" font-family="sans-serif" font-size="13" lengthAdjust="spacing" textLength="63.0068" x="140.17" y="610.7269">&#171;include&#187;</text></g><!--link U5 to U10--><g class="link" data-entity-1="ent0011" data-entity-2="ent0016" data-link-type="dependency" data-source-line="53" id="lnk43"><path d="M276.41,780.3 C253.59,785.14 229.62,794.03 212.17,810.16 C168.46,850.56 178.12,877.97 168.22,936.66 C157.68,999.09 167.9,1026.9 212.17,1072.16 C231.12,1091.54 252.3272,1102.1758 277.0572,1110.1158" fill="none" id="U5-to-U10" style="stroke:#181818;stroke-width:1;stroke-dasharray:7,7;"/><polygon fill="#181818" points="282.77,1111.95,275.4236,1105.3902,278.0094,1110.4215,272.9781,1113.0072,282.77,1111.95" style="stroke:#181818;stroke-width:1;"/><text fill="#000000" font-family="sans-serif" font-size="13" lengthAdjust="spacing" textLength="63.0068" x="140.17" y="949.7269">&#171;include&#187;</text></g><!--link U6 to U10--><g class="link" data-entity-1="ent0012" data-entity-2="ent0016" data-link-type="dependency" data-source-line="54" id="lnk44"><path d="M279.46,914.97 C256.52,919.81 231.71,928.08 212.17,942.16 C182.82,963.31 178.39,975.95 168.22,1010.66 C151.82,1066.58 218.3099,1095.6442 275.5999,1110.8142" fill="none" id="U6-to-U10" style="stroke:#181818;stroke-width:1;stroke-dasharray:7,7;"/><polygon fill="#181818" points="281.4,1112.35,273.7237,1106.1795,276.5666,1111.0701,271.676,1113.913,281.4,1112.35" style="stroke:#181818;stroke-width:1;"/><text fill="#000000" font-family="sans-serif" font-size="13" lengthAdjust="spacing" textLength="63.0068" x="140.17" y="1023.7269">&#171;include&#187;</text></g><!--link U7 to U10--><g class="link" data-entity-1="ent0013" data-entity-2="ent0016" data-link-type="dependency" data-source-line="55" id="lnk45"><path d="M303.88,963.38 C262.83,955.68 201.79,952.24 168.22,988.66 C121.01,1039.87 221.0437,1084.256 288.9037,1107.496" fill="none" id="U7-to-U10" style="stroke:#181818;stroke-width:1;stroke-dasharray:7,7;"/><polygon fill="#181818" points="294.58,1109.44,287.3615,1102.7398,289.8497,1107.82,284.7695,1110.3083,294.58,1109.44" style="stroke:#181818;stroke-width:1;"/><text fill="#000000" font-family="sans-serif" font-size="13" lengthAdjust="spacing" textLength="63.0068" x="140.17" y="1001.7269">&#171;include&#187;</text></g><!--link U8 to U10--><g class="link" data-entity-1="ent0014" data-entity-2="ent0016" data-link-type="dependency" data-source-line="56" id="lnk46"><path d="M345.96,1054.87 C345.96,1069.15 345.96,1084.28 345.96,1099.65" fill="none" id="U8-to-U10" style="stroke:#181818;stroke-width:1;stroke-dasharray:7,7;"/><polygon fill="#181818" points="345.96,1105.65,349.96,1096.65,345.96,1100.65,341.96,1096.65,345.96,1105.65" style="stroke:#181818;stroke-width:1;"/><text fill="#000000" font-family="sans-serif" font-size="13" lengthAdjust="spacing" textLength="63.0068" x="302.96" y="1084.7269">&#171;include&#187;</text></g><!--link U3 to U11--><g class="link" data-entity-1="ent0009" data-entity-2="ent0017" data-link-type="dependency" data-source-line="58" id="lnk47"><path d="M284.26,841.96 C258.25,838.51 229.93,829.7 212.17,809.16 C178.1,769.79 135.75,383.36 168.22,342.66 C190.62,314.58 222.1237,304.0747 256.9037,300.3747" fill="none" id="U3-to-U11" style="stroke:#181818;stroke-width:1;stroke-dasharray:7,7;"/><polygon fill="#181818" points="262.87,299.74,253.4974,296.7145,257.8981,300.2689,254.3436,304.6696,262.87,299.74" style="stroke:#181818;stroke-width:1;"/><text fill="#000000" font-family="sans-serif" font-size="13" lengthAdjust="spacing" textLength="63.0068" x="140.17" y="355.7269">&#171;include&#187;</text></g><!--link U4 to U11--><g class="link" data-entity-1="ent0010" data-entity-2="ent0017" data-link-type="dependency" data-source-line="59" id="lnk48"><path d="M345.96,613.93 C345.96,555.43 345.96,386.01 345.96,327.44" fill="none" id="U4-to-U11" style="stroke:#181818;stroke-width:1;stroke-dasharray:7,7;"/><polygon fill="#181818" points="345.96,321.44,341.96,330.44,345.96,326.44,349.96,330.44,345.96,321.44" style="stroke:#181818;stroke-width:1;"/><text fill="#000000" font-family="sans-serif" font-size="13" lengthAdjust="spacing" textLength="63.0068" x="302.96" y="472.3469">&#171;include&#187;</text></g><!--link U5 to U11--><g class="link" data-entity-1="ent0011" data-entity-2="ent0017" data-link-type="dependency" data-source-line="60" id="lnk49"><path d="M274.24,772.12 C251.22,767.47 227.69,758.16 212.17,740.16 C181.55,704.68 136.84,355.47 168.22,320.66 C195.95,289.9 237.1142,285.6521 275.8842,289.1421" fill="none" id="U5-to-U11" style="stroke:#181818;stroke-width:1;stroke-dasharray:7,7;"/><polygon fill="#181818" points="281.86,289.68,273.2549,284.8892,276.8801,289.2317,272.5376,292.857,281.86,289.68" style="stroke:#181818;stroke-width:1;"/><text fill="#000000" font-family="sans-serif" font-size="13" lengthAdjust="spacing" textLength="63.0068" x="140.17" y="333.7269">&#171;include&#187;</text></g><!--link U6 to U11--><g class="link" data-entity-1="ent0012" data-entity-2="ent0017" data-link-type="dependency" data-source-line="61" id="lnk50"><path d="M274.51,905.86 C251.37,901.42 227.7,892.25 212.17,874.16 C81.1,721.55 178,624.6 168.22,423.66 C167.85,416.11 164.46,413.22 168.22,406.66 C194.79,360.21 245.2927,334.3968 287.4227,319.2768" fill="none" id="U6-to-U11" style="stroke:#181818;stroke-width:1;stroke-dasharray:7,7;"/><polygon fill="#181818" points="293.07,317.25,283.2478,316.5253,288.3639,318.939,285.9502,324.055,293.07,317.25" style="stroke:#181818;stroke-width:1;"/><text fill="#000000" font-family="sans-serif" font-size="13" lengthAdjust="spacing" textLength="63.0068" x="140.17" y="419.7269">&#171;include&#187;</text></g><!--link U7 to U11--><g class="link" data-entity-1="ent0013" data-entity-2="ent0017" data-link-type="dependency" data-source-line="62" id="lnk51"><path d="M285.41,974.51 C259.14,971.35 230.3,962.79 212.17,942.16 C148.69,869.93 135.08,601.94 168.22,511.66 C199.12,427.48 275.8204,357.7276 316.8704,324.6076" fill="none" id="U7-to-U11" style="stroke:#181818;stroke-width:1;stroke-dasharray:7,7;"/><polygon fill="#181818" points="321.54,320.84,312.0238,323.3782,317.6486,323.9796,317.0473,329.6044,321.54,320.84" style="stroke:#181818;stroke-width:1;"/><text fill="#000000" font-family="sans-serif" font-size="13" lengthAdjust="spacing" textLength="63.0068" x="140.17" y="524.7269">&#171;include&#187;</text></g><!--link U8 to U11--><g class="link" data-entity-1="ent0014" data-entity-2="ent0017" data-link-type="dependency" data-source-line="63" id="lnk52"><path d="M280.89,1038.4 C255.87,1034.63 229.23,1025.72 212.17,1006.16 C148.94,933.7 140.89,667.86 168.22,575.66 C200.16,467.89 285.3636,367.2219 323.8536,325.4619" fill="none" id="U8-to-U11" style="stroke:#181818;stroke-width:1;stroke-dasharray:7,7;"/><polygon fill="#181818" points="327.92,321.05,318.8792,324.9569,324.5313,324.7265,324.7617,330.3787,327.92,321.05" style="stroke:#181818;stroke-width:1;"/><text fill="#000000" font-family="sans-serif" font-size="13" lengthAdjust="spacing" textLength="63.0068" x="140.17" y="588.7269">&#171;include&#187;</text></g><?plantuml-src TPDDZvim48Rl_XMZdBg7xORmbQrMaTBigghKggj4zDIBPGPYBHXacusYgl-zO22rATpyFlFEXyTGOAP1Lo1vVjQGSebCyqeGzSP5JIKjeQRiZUPuqjS2eGjJaHTe6IZJbUp3z8AgAf4Gm-283Ekkt4dJB0Eg_f71yPsAjhOSr8-Bk9rN-qQVuKj3PRhgCis9aDi0i4eKZWLA51fELwMnNC5l0j0eP5IrfczSQUYSwfVue91ATdx8UA5HFjGqvu9smzoP3ebd9_xaU369y8oQyaBrdetjEKYa6eshZ_fsDAdJCGglicgxOkyARDSpjlVbxswTq7OSvnoHxTWhnNC1nshi4BlvPVMELdJht9CMtCpvLTIDxWsFjk55P9LaRVxd_G5UguApwx2kjJD3a_9-qt0ujo-4my8yZ_mXvFRkS7-_wpOz0PifyASWc89m2Y92XizfREB8ZIjzLmQk35qPkJ9svPOGy-MERIsniOLlYy0MeIqYMyIsQ1kPts1ej2OayU5ZUto4J_3qn0KhcXHtEv84ypWqs5jFURJ0umM-dUVZE9utFy__F5pWqGAF5_Xsdly5?></g></svg>