<?plantuml 1.2026.1?><svg xmlns="http://www.w3.org/2000/svg" xmlns:xlink="http://www.w3.org/1999/xlink" contentStyleType="text/css" data-diagram-type="DESCRIPTION" height="908px" preserveAspectRatio="none" style="width:501px;height:908px;background:#FFFFFF;" version="1.1" viewBox="0 0 501 908" width="501px" zoomAndPan="magnify"><defs/><g><!--cluster Membership & Payments System--><g class="cluster" data-qualified-name="Membership . Payments System" data-source-line="11" id="ent0007"><rect fill="none" height="895" rx="2.5" ry="2.5" style="stroke:#181818;stroke-width:1;" width="275.21" x="220.17" y="7"/><text fill="#000000" font-family="sans-serif" font-size="14" font-weight="bold" lengthAdjust="spacing" textLength="260.6133" x="227.4684" y="21.9951">Membership &amp; Payments System</text></g><!--entity U1--><g class="entity" data-qualified-name="Membership . Payments System.U1" data-source-line="12" id="ent0008"><ellipse cx="357.7732" cy="64.0046" fill="#F1F1F1" rx="98.8732" ry="22.1746" style="stroke:#181818;stroke-width:0.5;"/><text fill="#000000" font-family="sans-serif" font-size="14" lengthAdjust="spacing" textLength="173.5713" x="270.9876" y="68.6531">View Membership Status</text></g><!--entity U2--><g class="entity" data-qualified-name="Membership . Payments System.U2" data-source-line="13" id="ent0009"><ellipse cx="357.7707" cy="619.9961" fill="#F1F1F1" rx="98.1807" ry="22.0361" style="stroke:#181818;stroke-width:0.5;"/><text fill="#000000" font-family="sans-serif" font-size="14" lengthAdjust="spacing" textLength="172.04" x="271.7507" y="624.6446">Create Membership Plan</text></g><!--entity U3--><g class="entity" data-qualified-name="Membership . Payments System.U3" data-source-line="14" id="ent0010"><ellipse cx="357.7657" cy="698.9971" fill="#F1F1F1" rx="99.9357" ry="22.3871" style="stroke:#181818;stroke-width:0.5;"/><text fill="#000000" font-family="sans-serif" font-size="14" lengthAdjust="spacing" textLength="175.916" x="269.8077" y="703.6456">Update Membership Plan</text></g><!--entity U4--><g class="entity" data-qualified-name="Membership . Payments System.U4" data-source-line="15" id="ent0011"><ellipse cx="357.7707" cy="781.0001" fill="#F1F1F1" rx="111.5507" ry="24.7101" style="stroke:#181818;stroke-width:0.5;"/><text fill="#000000" font-family="sans-serif" font-size="14" lengthAdjust="spacing" textLength="201.2295" x="257.1559" y="785.6486">Deactivate Membership Plan</text></g><!--entity U5--><g class="entity" data-qualified-name="Membership . Payments System.U5" data-source-line="16" id="ent0012"><ellipse cx="357.7727" cy="215.0045" fill="#F1F1F1" rx="73.7227" ry="17.1445" style="stroke:#181818;stroke-width:0.5;"/><text fill="#000000" font-family="sans-serif" font-size="14" lengthAdjust="spacing" textLength="115.6162" x="299.9646" y="219.653">Record Payment</text></g><!--entity U6--><g class="entity" data-qualified-name="Membership . Payments System.U6" data-source-line="17" id="ent0013"><ellipse cx="357.7687" cy="377.9977" fill="#F1F1F1" rx="83.4387" ry="19.0877" style="stroke:#181818;stroke-width:0.5;"/><text fill="#000000" font-family="sans-serif" font-size="14" lengthAdjust="spacing" textLength="138.7148" x="288.4112" y="382.6462">Renew Subscription</text></g><!--entity U7--><g class="entity" data-qualified-name="Membership . Payments System.U7" data-source-line="18" id="ent0014"><ellipse cx="357.7739" cy="141.9968" fill="#F1F1F1" rx="90.1839" ry="20.4368" style="stroke:#181818;stroke-width:0.5;"/><text fill="#000000" font-family="sans-serif" font-size="14" lengthAdjust="spacing" textLength="154.1572" x="280.6953" y="146.6452">View Payment History</text></g><!--entity U8--><g class="entity" data-qualified-name="Membership . Payments System.U8" data-source-line="19" id="ent0015"><ellipse cx="357.7732" cy="454.0046" fill="#F1F1F1" rx="98.0232" ry="22.0046" style="stroke:#181818;stroke-width:0.5;"/><text fill="#000000" font-family="sans-serif" font-size="14" lengthAdjust="spacing" textLength="171.6914" x="271.9275" y="458.6531">View Overdue Payments</text></g><!--entity U9--><g class="entity" data-qualified-name="Membership . Payments System.U9" data-source-line="20" id="ent0016"><ellipse cx="357.7661" cy="537.0012" fill="#F1F1F1" rx="118.6061" ry="26.1212" style="stroke:#181818;stroke-width:0.5;"/><text fill="#000000" font-family="sans-serif" font-size="14" lengthAdjust="spacing" textLength="216.3779" x="249.5772" y="541.6497">Mark Pending Payment as Paid</text></g><!--entity U10--><g class="entity" data-qualified-name="Membership . Payments System.U10" data-source-line="21" id="ent0017"><ellipse cx="357.768" cy="286.9996" fill="#F1F1F1" rx="89.098" ry="20.2196" style="stroke:#181818;stroke-width:0.5;"/><text fill="#000000" font-family="sans-serif" font-size="14" lengthAdjust="spacing" textLength="151.6963" x="281.9199" y="291.648">Calculate Expiry Date</text></g><!--entity U11--><g class="entity" data-qualified-name="Membership . Payments System.U11" data-source-line="22" id="ent0018"><ellipse cx="357.774" cy="863.0008" fill="#F1F1F1" rx="101.654" ry="22.7308" style="stroke:#181818;stroke-width:0.5;"/><text fill="#000000" font-family="sans-serif" font-size="14" lengthAdjust="spacing" textLength="179.6963" x="267.9259" y="867.6492">Detect Overdue Accounts</text></g><!--entity Member--><g class="entity" data-qualified-name="Member" data-source-line="5" id="ent0002"><ellipse cx="57.583" cy="81.85" fill="#F1F1F1" rx="16" ry="16" style="stroke:#181818;stroke-width:0.5;"/><path d="M57.583,101.85 C61.583,101.85 64.583,101.85 68.583,97.85 C76.583,97.85 84.583,105.85 84.583,113.85 L84.583,117.85 C84.583,121.85 80.583,125.85 76.583,125.85 L38.583,125.85 C34.583,125.85 30.583,121.85 30.583,117.85 L30.583,113.85 C30.583,105.85 38.583,97.85 46.583,97.85 C50.583,101.85 53.583,101.85 57.583,101.85" fill="#F1F1F1" style="stroke:#181818;stroke-width:0.5;"/><text fill="#000000" font-family="sans-serif" font-size="14" lengthAdjust="spacing" textLength="57.5859" x="28.79" y="139.3451">Member</text></g><!--entity Reception--><g class="entity" data-qualified-name="Reception" data-source-line="6" id="ent0003"><ellipse cx="57.584" cy="346.85" fill="#F1F1F1" rx="16" ry="16" style="stroke:#181818;stroke-width:0.5;"/><path d="M57.584,366.85 C61.584,366.85 64.584,366.85 68.584,362.85 C76.584,362.85 84.584,370.85 84.584,378.85 L84.584,382.85 C84.584,386.85 80.584,390.85 76.584,390.85 L38.584,390.85 C34.584,390.85 30.584,386.85 30.584,382.85 L30.584,378.85 C30.584,370.85 38.584,362.85 46.584,362.85 C50.584,366.85 53.584,366.85 57.584,366.85" fill="#F1F1F1" style="stroke:#181818;stroke-width:0.5;"/><text fill="#000000" font-family="sans-serif" font-size="14" lengthAdjust="spacing" textLength="103.168" x="6" y="404.3451">ReceptionStaff</text></g><!--entity Manager--><g class="entity" data-qualified-name="Manager" data-source-line="7" id="ent0004"><ellipse cx="57.5831" cy="474.85" fill="#F1F1F1" rx="16" ry="16" style="stroke:#181818;stroke-width:0.5;"/><path d="M57.5831,494.85 C61.5831,494.85 64.5831,494.85 68.5831,490.85 C76.5831,490.85 84.5831,498.85 84.5831,506.85 L84.5831,510.85 C84.5831,514.85 80.5831,518.85 76.5831,518.85 L38.5831,518.85 C34.5831,518.85 30.5831,514.85 30.5831,510.85 L30.5831,506.85 C30.5831,498.85 38.5831,490.85 46.5831,490.85 C50.5831,494.85 53.5831,494.85 57.5831,494.85" fill="#F1F1F1" style="stroke:#181818;stroke-width:0.5;"/><text fill="#000000" font-family="sans-serif" font-size="14" lengthAdjust="spacing" textLength="61.3662" x="26.9" y="532.3451">Manager</text></g><!--entity Owner--><g class="entity" data-qualified-name="Owner" data-source-line="8" id="ent0005"><ellipse cx="57.58" cy="635.85" fill="#F1F1F1" rx="16" ry="16" style="stroke:#181818;stroke-width:0.5;"/><path d="M57.58,655.85 C61.58,655.85 64.58,655.85 68.58,651.85 C76.58,651.85 84.58,659.85 84.58,667.85 L84.58,671.85 C84.58,675.85 80.58,679.85 76.58,679.85 L38.58,679.85 C34.58,679.85 30.58,675.85 30.58,671.85 L30.58,667.85 C30.58,659.85 38.58,651.85 46.58,651.85 C50.58,655.85 53.58,655.85 57.58,655.85" fill="#F1F1F1" style="stroke:#181818;stroke-width:0.5;"/><text fill="#000000" font-family="sans-serif" font-size="14" lengthAdjust="spacing" textLength="45.7119" x="34.724" y="693.3451">Owner</text></g><!--entity Scheduler--><g class="entity" data-qualified-name="Scheduler" data-source-line="9" id="ent0006"><ellipse cx="57.58" cy="840.85" fill="#F1F1F1" rx="16" ry="16" style="stroke:#181818;stroke-width:0.5;"/><path d="M57.58,860.85 C61.58,860.85 64.58,860.85 68.58,856.85 C76.58,856.85 84.58,864.85 84.58,872.85 L84.58,876.85 C84.58,880.85 80.58,884.85 76.58,884.85 L38.58,884.85 C34.58,884.85 30.58,880.85 30.58,876.85 L30.58,872.85 C30.58,864.85 38.58,856.85 46.58,856.85 C50.58,860.85 53.58,860.85 57.58,860.85" fill="#F1F1F1" style="stroke:#181818;stroke-width:0.5;"/><text fill="#000000" font-family="sans-serif" font-size="14" lengthAdjust="spacing" textLength="52.2061" x="31.477" y="898.3451">System</text></g><!--link Member to U1--><g class="link" data-entity-1="ent0002" data-entity-2="ent0008" data-link-type="dependency" data-source-line="25" id="lnk19"><path d="M86.64,100.24 C128.68,94.6 203.8132,84.5175 266.2232,76.1475" fill="none" id="Member-to-U1" style="stroke:#181818;stroke-width:1;"/><polygon fill="#181818" points="272.17,75.35,262.7182,72.5818,267.2144,76.0146,263.7816,80.5108,272.17,75.35" style="stroke:#181818;stroke-width:1;"/></g><!--link Member to U7--><g class="link" data-entity-1="ent0002" data-entity-2="ent0014" data-link-type="dependency" data-source-line="26" id="lnk20"><path d="M86.64,107.57 C130.06,113.11 209.1681,123.1919 272.2881,131.2319" fill="none" id="Member-to-U7" style="stroke:#181818;stroke-width:1;"/><polygon fill="#181818" points="278.24,131.99,269.8176,126.8849,273.2801,131.3582,268.8067,134.8207,278.24,131.99" style="stroke:#181818;stroke-width:1;"/></g><!--link Reception to U5--><g class="link" data-entity-1="ent0003" data-entity-2="ent0012" data-link-type="dependency" data-source-line="28" id="lnk21"><path d="M98.3,330.03 C127.52,303.45 169.45,269.48 212.17,249 C237.52,236.85 261.6033,230.0406 287.6733,224.9006" fill="none" id="Reception-to-U5" style="stroke:#181818;stroke-width:1;"/><polygon fill="#181818" points="293.56,223.74,283.9562,221.5565,288.6544,224.7072,285.5037,229.4054,293.56,223.74" style="stroke:#181818;stroke-width:1;"/></g><!--link Reception to U6--><g class="link" data-entity-1="ent0003" data-entity-2="ent0013" data-link-type="dependency" data-source-line="29" id="lnk22"><path d="M109.46,368.78 C137.42,368.81 172.71,369.07 204.17,370 C227.77,370.7 247.4184,371.5625 270.8184,372.8025" fill="none" id="Reception-to-U6" style="stroke:#181818;stroke-width:1;"/><polygon fill="#181818" points="276.81,373.12,268.0343,368.6493,271.817,372.8554,267.6109,376.6381,276.81,373.12" style="stroke:#181818;stroke-width:1;"/></g><!--link Reception to U8--><g class="link" data-entity-1="ent0003" data-entity-2="ent0015" data-link-type="dependency" data-source-line="30" id="lnk23"><path d="M109.53,381.25 C137.83,388.66 173.42,398.99 204.17,411 C207.87,412.45 208.45,413.59 212.17,415 C236.23,424.15 257.4911,430.5579 281.6611,436.8079" fill="none" id="Reception-to-U8" style="stroke:#181818;stroke-width:1;"/><polygon fill="#181818" points="287.47,438.31,279.758,432.1842,282.6292,437.0582,277.7552,439.9295,287.47,438.31" style="stroke:#181818;stroke-width:1;"/></g><!--link Reception to U9--><g class="link" data-entity-1="ent0003" data-entity-2="ent0016" data-link-type="dependency" data-source-line="31" id="lnk24"><path d="M107.82,408.15 C136.2,430.9 172.44,460.28 204.17,487 C207.78,490.04 208.03,491.72 212.17,494 C230.75,504.24 246.3015,510.5581 266.7415,516.7981" fill="none" id="Reception-to-U9" style="stroke:#181818;stroke-width:1;"/><polygon fill="#181818" points="272.48,518.55,265.0401,512.0965,267.6979,517.0901,262.7043,519.7479,272.48,518.55" style="stroke:#181818;stroke-width:1;"/></g><!--link Manager to U8--><g class="link" data-entity-1="ent0004" data-entity-2="ent0015" data-link-type="dependency" data-source-line="33" id="lnk25"><path d="M88.54,492.68 C131.59,486.47 206.6313,475.6458 268.3913,466.7458" fill="none" id="Manager-to-U8" style="stroke:#181818;stroke-width:1;"/><polygon fill="#181818" points="274.33,465.89,264.8515,463.2146,269.3811,466.6032,265.9926,471.1328,274.33,465.89" style="stroke:#181818;stroke-width:1;"/></g><!--link Manager to U9--><g class="link" data-entity-1="ent0004" data-entity-2="ent0016" data-link-type="dependency" data-source-line="34" id="lnk26"><path d="M88.54,501.02 C127.38,506.23 191.1532,514.7826 249.7732,522.6426" fill="none" id="Manager-to-U9" style="stroke:#181818;stroke-width:1;"/><polygon fill="#181818" points="255.72,523.44,247.3314,518.2794,250.7643,522.7755,246.2682,526.2085,255.72,523.44" style="stroke:#181818;stroke-width:1;"/></g><!--link Owner to U2--><g class="link" data-entity-1="ent0005" data-entity-2="ent0009" data-link-type="dependency" data-source-line="36" id="lnk27"><path d="M85.57,654.56 C127.15,649.26 202.6781,639.6385 265.5281,631.6285" fill="none" id="Owner-to-U2" style="stroke:#181818;stroke-width:1;"/><polygon fill="#181818" points="271.48,630.87,262.0465,628.0399,266.5201,631.5021,263.0579,635.9757,271.48,630.87" style="stroke:#181818;stroke-width:1;"/></g><!--link Owner to U3--><g class="link" data-entity-1="ent0005" data-entity-2="ent0010" data-link-type="dependency" data-source-line="37" id="lnk28"><path d="M85.57,661.71 C127.22,667.44 202.966,677.8524 265.856,686.5024" fill="none" id="Owner-to-U3" style="stroke:#181818;stroke-width:1;"/><polygon fill="#181818" points="271.8,687.32,263.429,682.131,266.8466,686.6387,262.3389,690.0564,271.8,687.32" style="stroke:#181818;stroke-width:1;"/></g><!--link Owner to U4--><g class="link" data-entity-1="ent0005" data-entity-2="ent0011" data-link-type="dependency" data-source-line="38" id="lnk29"><path d="M85.53,674.37 C115.58,692.1 166.05,720.37 212.17,739 C234.47,748.01 253.6497,754.3257 276.4597,760.8257" fill="none" id="Owner-to-U4" style="stroke:#181818;stroke-width:1;"/><polygon fill="#181818" points="282.23,762.47,274.6708,756.1567,277.4214,761.0997,272.4784,763.8504,282.23,762.47" style="stroke:#181818;stroke-width:1;"/></g><!--link Owner to U8--><g class="link" data-entity-1="ent0005" data-entity-2="ent0015" data-link-type="dependency" data-source-line="39" id="lnk30"><path d="M84.81,619.07 C112.24,581.34 158.7,525.22 212.17,493 C231.88,481.12 249.4365,474.323 271.5765,468.513" fill="none" id="Owner-to-U8" style="stroke:#181818;stroke-width:1;"/><polygon fill="#181818" points="277.38,466.99,267.6594,465.4054,272.5438,468.2591,269.6901,473.1434,277.38,466.99" style="stroke:#181818;stroke-width:1;"/></g><!--link Owner to U9--><g class="link" data-entity-1="ent0005" data-entity-2="ent0016" data-link-type="dependency" data-source-line="40" id="lnk31"><path d="M85.37,643.85 C101.01,635.63 121.16,625.13 139.17,616 C171.43,599.64 178.49,593.2 212.17,580 C233.87,571.49 252.2046,565.3955 274.4046,558.8555" fill="none" id="Owner-to-U9" style="stroke:#181818;stroke-width:1;"/><polygon fill="#181818" points="280.16,557.16,270.3965,555.8663,275.3638,558.5729,272.6572,563.5403,280.16,557.16" style="stroke:#181818;stroke-width:1;"/></g><!--link Scheduler to U11--><g class="link" data-entity-1="ent0006" data-entity-2="ent0018" data-link-type="dependency" data-source-line="42" id="lnk32"><path d="M85.57,863 C123.78,863 189.69,863 249.86,863" fill="none" id="Scheduler-to-U11" style="stroke:#181818;stroke-width:1;"/><polygon fill="#181818" points="255.86,863,246.86,859,250.86,863,246.86,867,255.86,863" style="stroke:#181818;stroke-width:1;"/></g><!--link U6 to U10--><g class="link" data-entity-1="ent0013" data-entity-2="ent0017" data-link-type="dependency" data-source-line="44" id="lnk33"><path d="M357.77,358.7 C357.77,343.68 357.77,328.87 357.77,313.54" fill="none" id="U6-to-U10" style="stroke:#181818;stroke-width:1;stroke-dasharray:7,7;"/><polygon fill="#181818" points="357.77,307.54,353.77,316.54,357.77,312.54,361.77,316.54,357.77,307.54" style="stroke:#181818;stroke-width:1;"/><text fill="#000000" font-family="sans-serif" font-size="13" lengthAdjust="spacing" textLength="63.0068" x="314.77" y="337.6369">&#171;include&#187;</text></g><!--link U8 to U11--><g class="link" data-entity-1="ent0015" data-entity-2="ent0018" data-link-type="dependency" data-source-line="45" id="lnk34"><path d="M268.34,463.42 C247.88,469.26 227.63,478.49 212.17,493 C169.59,532.96 179.64,559.88 170.19,617.5 C155.09,709.49 147.88,755.49 212.17,823 C226.27,837.81 239.5559,845.5436 259.1959,851.5936" fill="none" id="U8-to-U11" style="stroke:#181818;stroke-width:1;stroke-dasharray:7,7;"/><polygon fill="#181818" points="264.93,853.36,257.5064,846.8877,260.1516,851.888,255.1513,854.5332,264.93,853.36" style="stroke:#181818;stroke-width:1;"/><text fill="#000000" font-family="sans-serif" font-size="13" lengthAdjust="spacing" textLength="63.0068" x="140.17" y="630.5669">&#171;include&#187;</text></g><?plantuml-src TP9DRy8m38Rl-HKMXzsOADzC26aQatP1e5NTtQG68jgqIb9ODUs_BoMbIq7SyjfF7FkD4zePC1aeiJyOY8KYRaGccJuAcQF257BaHznJQCg4e4gZt2Va0SXDfbmQpwIpb1Yxn615wPPKBJw9KrxL3WtkTe3wFtB5KTg7hlpwB9jpM6f3QNKdv0UAYyHcMDCBTDn3-Y1oU88DbYb9e-jR7VXX08KcZjgYNuBEuF6s6rFeJbKx2dpmJH4Qyj5DWjA1VH-CylWXEF319TbfnEaXFFHXQqwcukim3XYr0Mad2OkjvafSR7JG-6xQkWPy26tDB1qskSFM9r9nGOr_Zflwt0hL4JOaOo7tJLbBRL343f-rBCI45qarx_jtBbG9ItkkhUwrdJ7sCviENZdFYgQ3862_Z3d7eDjTLF_agmbZpIQvoEWsCBuDJ6y3C_k2Mxyhq98sVTb7f_g-6FXYw8kfBso5PdVhAGB6eZ4yLySUlC1yBYHFYfWM2nPDNJouYVy1?></g></svg>