<?plantuml 1.2026.1?><svg xmlns="http://www.w3.org/2000/svg" xmlns:xlink="http://www.w3.org/1999/xlink" contentStyleType="text/css" data-diagram-type="DESCRIPTION" height="887px" preserveAspectRatio="none" style="width:516px;height:887px;background:#FFFFFF;" version="1.1" viewBox="0 0 516 887" width="516px" zoomAndPan="magnify"><defs/><g><!--cluster Attendance Tracking System--><g class="cluster" data-qualified-name="Attendance Tracking System" data-source-line="11" id="ent0007"><rect fill="none" height="755" rx="2.5" ry="2.5" style="stroke:#181818;stroke-width:1;" width="290.69" x="220.17" y="7"/><text fill="#000000" font-family="sans-serif" font-size="14" font-weight="bold" lengthAdjust="spacing" textLength="227.2744" x="251.8778" y="21.9951">Attendance Tracking System</text></g><!--entity U1--><g class="entity" data-qualified-name="Attendance Tracking System.U1" data-source-line="12" id="ent0008"><ellipse cx="365.5163" cy="311.9993" fill="#F1F1F1" rx="95.1463" ry="21.4293" style="stroke:#181818;stroke-width:0.5;"/><text fill="#000000" font-family="sans-serif" font-size="14" lengthAdjust="spacing" textLength="165.2998" x="282.8664" y="316.6477">Show Member QR Code</text></g><!--entity U2--><g class="entity" data-qualified-name="Attendance Tracking System.U2" data-source-line="13" id="ent0009"><ellipse cx="365.5227" cy="239.0025" fill="#F1F1F1" rx="71.9627" ry="16.7925" style="stroke:#181818;stroke-width:0.5;"/><text fill="#000000" font-family="sans-serif" font-size="14" lengthAdjust="spacing" textLength="111.2822" x="309.8816" y="243.651">Check-in via QR</text></g><!--entity U3--><g class="entity" data-qualified-name="Attendance Tracking System.U3" data-source-line="14" id="ent0010"><ellipse cx="365.5177" cy="477.9955" fill="#F1F1F1" rx="79.0277" ry="18.2055" style="stroke:#181818;stroke-width:0.5;"/><text fill="#000000" font-family="sans-serif" font-size="14" lengthAdjust="spacing" textLength="128.3789" x="301.3283" y="482.644">Check-in Manually</text></g><!--entity U4--><g class="entity" data-qualified-name="Attendance Tracking System.U4" data-source-line="15" id="ent0011"><ellipse cx="365.5153" cy="145.9991" fill="#F1F1F1" rx="109.8453" ry="24.3691" style="stroke:#181818;stroke-width:0.5;"/><text fill="#000000" font-family="sans-serif" font-size="14" lengthAdjust="spacing" textLength="197.5449" x="266.7429" y="150.6475">Validate Membership Status</text></g><!--entity U5--><g class="entity" data-qualified-name="Attendance Tracking System.U5" data-source-line="16" id="ent0012"><ellipse cx="365.5168" cy="555.0034" fill="#F1F1F1" rx="104.5168" ry="23.3034" style="stroke:#181818;stroke-width:0.5;"/><text fill="#000000" font-family="sans-serif" font-size="14" lengthAdjust="spacing" textLength="185.9648" x="272.5344" y="559.6518">Override Blocked Check-in</text></g><!--entity U6--><g class="entity" data-qualified-name="Attendance Tracking System.U6" data-source-line="17" id="ent0013"><ellipse cx="365.5233" cy="64.0027" fill="#F1F1F1" rx="100.0133" ry="22.4027" style="stroke:#181818;stroke-width:0.5;"/><text fill="#000000" font-family="sans-serif" font-size="14" lengthAdjust="spacing" textLength="176.0869" x="277.4798" y="68.6511">Record Attendance Entry</text></g><!--entity U7--><g class="entity" data-qualified-name="Attendance Tracking System.U7" data-source-line="18" id="ent0014"><ellipse cx="365.5235" cy="396.9987" fill="#F1F1F1" rx="128.4935" ry="28.0987" style="stroke:#181818;stroke-width:0.5;"/><text fill="#000000" font-family="sans-serif" font-size="14" lengthAdjust="spacing" textLength="237.3916" x="246.8277" y="401.6471">View Personal Attendance History</text></g><!--entity U8--><g class="entity" data-qualified-name="Attendance Tracking System.U8" data-source-line="19" id="ent0015"><ellipse cx="365.5173" cy="717.9995" fill="#F1F1F1" rx="129.3473" ry="28.2695" style="stroke:#181818;stroke-width:0.5;"/><text fill="#000000" font-family="sans-serif" font-size="14" lengthAdjust="spacing" textLength="239.1963" x="245.9192" y="722.6479">View Daily Attendance Dashboard</text></g><!--entity U9--><g class="entity" data-qualified-name="Attendance Tracking System.U9" data-source-line="20" id="ent0016"><ellipse cx="365.5185" cy="633.9997" fill="#F1F1F1" rx="93.1985" ry="21.0397" style="stroke:#181818;stroke-width:0.5;"/><text fill="#000000" font-family="sans-serif" font-size="14" lengthAdjust="spacing" textLength="160.9453" x="285.0459" y="638.6481">Mark Class Attendance</text></g><!--entity Member--><g class="entity" data-qualified-name="Member" data-source-line="5" id="ent0002"><ellipse cx="57.583" cy="324.85" fill="#F1F1F1" rx="16" ry="16" style="stroke:#181818;stroke-width:0.5;"/><path d="M57.583,344.85 C61.583,344.85 64.583,344.85 68.583,340.85 C76.583,340.85 84.583,348.85 84.583,356.85 L84.583,360.85 C84.583,364.85 80.583,368.85 76.583,368.85 L38.583,368.85 C34.583,368.85 30.583,364.85 30.583,360.85 L30.583,356.85 C30.583,348.85 38.583,340.85 46.583,340.85 C50.583,344.85 53.583,344.85 57.583,344.85" fill="#F1F1F1" style="stroke:#181818;stroke-width:0.5;"/><text fill="#000000" font-family="sans-serif" font-size="14" lengthAdjust="spacing" textLength="57.5859" x="28.79" y="382.3451">Member</text></g><!--entity Reception--><g class="entity" data-qualified-name="Reception" data-source-line="6" id="ent0003"><ellipse cx="57.584" cy="485.85" fill="#F1F1F1" rx="16" ry="16" style="stroke:#181818;stroke-width:0.5;"/><path d="M57.584,505.85 C61.584,505.85 64.584,505.85 68.584,501.85 C76.584,501.85 84.584,509.85 84.584,517.85 L84.584,521.85 C84.584,525.85 80.584,529.85 76.584,529.85 L38.584,529.85 C34.584,529.85 30.584,525.85 30.584,521.85 L30.584,517.85 C30.584,509.85 38.584,501.85 46.584,501.85 C50.584,505.85 53.584,505.85 57.584,505.85" fill="#F1F1F1" style="stroke:#181818;stroke-width:0.5;"/><text fill="#000000" font-family="sans-serif" font-size="14" lengthAdjust="spacing" textLength="103.168" x="6" y="543.3451">ReceptionStaff</text></g><!--entity Trainer--><g class="entity" data-qualified-name="Trainer" data-source-line="7" id="ent0004"><ellipse cx="57.58" cy="597.85" fill="#F1F1F1" rx="16" ry="16" style="stroke:#181818;stroke-width:0.5;"/><path d="M57.58,617.85 C61.58,617.85 64.58,617.85 68.58,613.85 C76.58,613.85 84.58,621.85 84.58,629.85 L84.58,633.85 C84.58,637.85 80.58,641.85 76.58,641.85 L38.58,641.85 C34.58,641.85 30.58,637.85 30.58,633.85 L30.58,629.85 C30.58,621.85 38.58,613.85 46.58,613.85 C50.58,617.85 53.58,617.85 57.58,617.85" fill="#F1F1F1" style="stroke:#181818;stroke-width:0.5;"/><text fill="#000000" font-family="sans-serif" font-size="14" lengthAdjust="spacing" textLength="50.0186" x="32.5707" y="655.3451">Trainer</text></g><!--entity Manager--><g class="entity" data-qualified-name="Manager" data-source-line="8" id="ent0005"><ellipse cx="57.5831" cy="709.85" fill="#F1F1F1" rx="16" ry="16" style="stroke:#181818;stroke-width:0.5;"/><path d="M57.5831,729.85 C61.5831,729.85 64.5831,729.85 68.5831,725.85 C76.5831,725.85 84.5831,733.85 84.5831,741.85 L84.5831,745.85 C84.5831,749.85 80.5831,753.85 76.5831,753.85 L38.5831,753.85 C34.5831,753.85 30.5831,749.85 30.5831,745.85 L30.5831,741.85 C30.5831,733.85 38.5831,725.85 46.5831,725.85 C50.5831,729.85 53.5831,729.85 57.5831,729.85" fill="#F1F1F1" style="stroke:#181818;stroke-width:0.5;"/><text fill="#000000" font-family="sans-serif" font-size="14" lengthAdjust="spacing" textLength="61.3662" x="26.9" y="767.3451">Manager</text></g><!--entity Owner--><g class="entity" data-qualified-name="Owner" data-source-line="9" id="ent0006"><ellipse cx="57.58" cy="821.85" fill="#F1F1F1" rx="16" ry="16" style="stroke:#181818;stroke-width:0.5;"/><path d="M57.58,841.85 C61.58,841.85 64.58,841.85 68.58,837.85 C76.58,837.85 84.58,845.85 84.58,853.85 L84.58,857.85 C84.58,861.85 80.58,865.85 76.58,865.85 L38.58,865.85 C34.58,865.85 30.58,861.85 30.58,857.85 L30.58,853.85 C30.58,845.85 38.58,837.85 46.58,837.85 C50.58,841.85 53.58,841.85 57.58,841.85" fill="#F1F1F1" style="stroke:#181818;stroke-width:0.5;"/><text fill="#000000" font-family="sans-serif" font-size="14" lengthAdjust="spacing" textLength="45.7119" x="34.724" y="879.3451">Owner</text></g><!--link Member to U1--><g class="link" data-entity-1="ent0002" data-entity-2="ent0008" data-link-type="dependency" data-source-line="23" id="lnk17"><path d="M86.82,343.77 C130.31,338.8 209.4589,329.742 274.0489,322.352" fill="none" id="Member-to-U1" style="stroke:#181818;stroke-width:1;"/><polygon fill="#181818" points="280.01,321.67,270.6136,318.719,275.0424,322.2384,271.523,326.6671,280.01,321.67" style="stroke:#181818;stroke-width:1;"/></g><!--link Member to U2--><g class="link" data-entity-1="ent0002" data-entity-2="ent0009" data-link-type="dependency" data-source-line="24" id="lnk18"><path d="M84.71,308.27 C98.69,290.77 117.51,271.67 139.17,261 C188.19,236.86 244.4114,232.3201 291.0514,233.3301" fill="none" id="Member-to-U2" style="stroke:#181818;stroke-width:1;"/><polygon fill="#181818" points="297.05,233.46,288.1387,229.2661,292.0512,233.3517,287.9655,237.2642,297.05,233.46" style="stroke:#181818;stroke-width:1;"/></g><!--link Member to U7--><g class="link" data-entity-1="ent0002" data-entity-2="ent0014" data-link-type="dependency" data-source-line="25" id="lnk19"><path d="M86.82,351.62 C126.24,358.06 193.9386,369.1219 255.4686,379.1819" fill="none" id="Member-to-U7" style="stroke:#181818;stroke-width:1;"/><polygon fill="#181818" points="261.39,380.15,253.1534,374.7502,256.4555,379.3432,251.8625,382.6454,261.39,380.15" style="stroke:#181818;stroke-width:1;"/></g><!--link Reception to U3--><g class="link" data-entity-1="ent0003" data-entity-2="ent0010" data-link-type="dependency" data-source-line="27" id="lnk20"><path d="M109.45,503.01 C159.31,498.12 229.8586,491.2052 286.0786,485.6952" fill="none" id="Reception-to-U3" style="stroke:#181818;stroke-width:1;"/><polygon fill="#181818" points="292.05,485.11,282.7028,482.0069,287.0738,485.5977,283.4831,489.9688,292.05,485.11" style="stroke:#181818;stroke-width:1;"/></g><!--link Reception to U5--><g class="link" data-entity-1="ent0003" data-entity-2="ent0012" data-link-type="dependency" data-source-line="28" id="lnk21"><path d="M109.45,515.82 C155.41,522.88 218.0696,532.4989 272.5496,540.8689" fill="none" id="Reception-to-U5" style="stroke:#181818;stroke-width:1;"/><polygon fill="#181818" points="278.48,541.78,270.1918,536.4597,273.538,541.0207,268.977,544.3669,278.48,541.78" style="stroke:#181818;stroke-width:1;"/></g><!--link Reception to U8--><g class="link" data-entity-1="ent0003" data-entity-2="ent0015" data-link-type="dependency" data-source-line="29" id="lnk22"><path d="M93.91,546.97 C136.97,594.33 204.95,668.53 212.17,673 C229.76,683.89 244.3946,690.4339 264.3946,696.8239" fill="none" id="Reception-to-U8" style="stroke:#181818;stroke-width:1;"/><polygon fill="#181818" points="270.11,698.65,262.7543,692.1007,265.3472,697.1283,260.3196,699.7212,270.11,698.65" style="stroke:#181818;stroke-width:1;"/></g><!--link Trainer to U9--><g class="link" data-entity-1="ent0004" data-entity-2="ent0016" data-link-type="dependency" data-source-line="31" id="lnk23"><path d="M85.47,621.23 C127.17,623.14 203.3563,626.6256 267.7863,629.5756" fill="none" id="Trainer-to-U9" style="stroke:#181818;stroke-width:1;"/><polygon fill="#181818" points="273.78,629.85,264.9724,625.4425,268.7852,629.6213,264.6065,633.4342,273.78,629.85" style="stroke:#181818;stroke-width:1;"/></g><!--link Manager to U8--><g class="link" data-entity-1="ent0005" data-entity-2="ent0015" data-link-type="dependency" data-source-line="32" id="lnk24"><path d="M88.76,730.62 C123.65,729.02 177.3762,726.5638 232.3262,724.0538" fill="none" id="Manager-to-U8" style="stroke:#181818;stroke-width:1;"/><polygon fill="#181818" points="238.32,723.78,229.1469,720.1948,233.3252,724.0082,229.5119,728.1865,238.32,723.78" style="stroke:#181818;stroke-width:1;"/></g><!--link Owner to U8--><g class="link" data-entity-1="ent0006" data-entity-2="ent0015" data-link-type="dependency" data-source-line="33" id="lnk25"><path d="M85.47,832.93 C133.87,812.99 231.2819,772.8745 297.7019,745.5245" fill="none" id="Owner-to-U8" style="stroke:#181818;stroke-width:1;"/><polygon fill="#181818" points="303.25,743.24,293.4049,742.9681,298.6266,745.1438,296.451,750.3655,303.25,743.24" style="stroke:#181818;stroke-width:1;"/></g><!--link U2 to U4--><g class="link" data-entity-1="ent0009" data-entity-2="ent0011" data-link-type="dependency" data-source-line="35" id="lnk26"><path d="M365.52,221.94 C365.52,207.58 365.52,192.84 365.52,176.66" fill="none" id="U2-to-U4" style="stroke:#181818;stroke-width:1;stroke-dasharray:7,7;"/><polygon fill="#181818" points="365.52,170.66,361.52,179.66,365.52,175.66,369.52,179.66,365.52,170.66" style="stroke:#181818;stroke-width:1;"/><text fill="#000000" font-family="sans-serif" font-size="13" lengthAdjust="spacing" textLength="63.0068" x="322.52" y="200.8569">&#171;include&#187;</text></g><!--link U3 to U4--><g class="link" data-entity-1="ent0010" data-entity-2="ent0011" data-link-type="dependency" data-source-line="36" id="lnk27"><path d="M287.08,475.29 C260.57,470.72 232.55,461.37 212.17,443 C170.49,405.44 180.64,378.85 171.48,323.5 C162.38,268.56 172.52,244.1 212.17,205 C232.17,185.27 253.8107,173.9253 279.8407,165.0553" fill="none" id="U3-to-U4" style="stroke:#181818;stroke-width:1;stroke-dasharray:7,7;"/><polygon fill="#181818" points="285.52,163.12,275.7108,162.2367,280.7872,164.7327,278.2912,169.8091,285.52,163.12" style="stroke:#181818;stroke-width:1;"/><text fill="#000000" font-family="sans-serif" font-size="13" lengthAdjust="spacing" textLength="63.0068" x="140.17" y="319.5669">&#171;include&#187;</text></g><!--link U2 to U6--><g class="link" data-entity-1="ent0009" data-entity-2="ent0013" data-link-type="dependency" data-source-line="37" id="lnk28"><path d="M298.59,232.48 C233.31,222.77 147.11,199.09 171.48,142.5 C188.65,102.61 226.2287,84.2308 267.6487,74.5108" fill="none" id="U2-to-U6" style="stroke:#181818;stroke-width:1;stroke-dasharray:7,7;"/><polygon fill="#181818" points="273.49,73.14,263.8142,71.302,268.6222,74.2823,265.6419,79.0904,273.49,73.14" style="stroke:#181818;stroke-width:1;"/><text fill="#000000" font-family="sans-serif" font-size="13" lengthAdjust="spacing" textLength="63.0068" x="140.17" y="155.5669">&#171;include&#187;</text></g><!--link U3 to U6--><g class="link" data-entity-1="ent0010" data-entity-2="ent0013" data-link-type="dependency" data-source-line="38" id="lnk29"><path d="M286.6,476.28 C259.88,471.83 231.86,462.31 212.17,443 C158.7,390.57 180.59,353.83 171.48,279.5 C162.9,209.57 185.8,130.48 212.17,104 C228.19,87.92 244.0217,79.6296 265.9717,73.6396" fill="none" id="U3-to-U6" style="stroke:#181818;stroke-width:1;stroke-dasharray:7,7;"/><polygon fill="#181818" points="271.76,72.06,262.0244,70.5705,266.9364,73.3763,264.1306,78.2883,271.76,72.06" style="stroke:#181818;stroke-width:1;"/><text fill="#000000" font-family="sans-serif" font-size="13" lengthAdjust="spacing" textLength="63.0068" x="140.17" y="275.5669">&#171;include&#187;</text></g><!--link U5 to U6--><g class="link" data-entity-1="ent0012" data-entity-2="ent0013" data-link-type="dependency" data-source-line="39" id="lnk30"><path d="M268.18,546.21 C247.23,539.99 226.96,529.97 212.17,514 C141.83,438.06 161.29,387.41 172.48,284.5 C181.35,202.84 155.22,163.2 212.17,104 C227.9,87.64 243.6317,79.2496 265.5817,73.2596" fill="none" id="U5-to-U6" style="stroke:#181818;stroke-width:1;stroke-dasharray:7,7;"/><polygon fill="#181818" points="271.37,71.68,261.6344,70.1905,266.5464,72.9963,263.7406,77.9083,271.37,71.68" style="stroke:#181818;stroke-width:1;"/><text fill="#000000" font-family="sans-serif" font-size="13" lengthAdjust="spacing" textLength="61.1851" x="141.17" y="297.5669">&#171;extend&#187;</text></g><?plantuml-src RP9FJm8n4CNl_HGJxfW88c08YQA95wA2U1_QWMssjAGj835-TxkqhENFRUVDx-sRJaRHmeCtOEMoy22a9UwbqSoLKg_HuWhMo4jSqjJl5K7LHhrKb078lR6nZJjoPaMC7JGOqsfEDXKJuhIk_Ztrk5W0kdyb4PyMfQxvCUeGUwpUTbM7rVdGUFIUj43DgJBoCCuIfdldQTM07mQmSSJH1N1Qc5qQ1JucC3A26bNyx3QdHWNniYarR2K6B1AjgqIOR8DAxIFJpfalL5AWfvJd2hc6y5w_SH6-o-6tBLah1S6JChma0SU4o7PoDkpAM07Per-qjsc4-vCH9EtWFMGRZIetl4eNDfaitGlBCqgrp_bdTCNSe1NHqSiTOxGbZ1GwbpaYrsU_ZALrDvl3QirvrJgfkepLLn2LzhdGEHTwZALBYNMVfLCvjW-tKhEp5jo4hpjuWC50QgusWeP3DcjVboDzVvs-a3kPJD_L8eBw1m00?></g></svg>