<?plantuml 1.2026.1?><svg xmlns="http://www.w3.org/2000/svg" xmlns:xlink="http://www.w3.org/1999/xlink" contentStyleType="text/css" data-diagram-type="DESCRIPTION" height="763px" preserveAspectRatio="none" style="width:414px;height:763px;background:#FFFFFF;" version="1.1" viewBox="0 0 414 763" width="414px" zoomAndPan="magnify"><defs/><g><!--cluster Class & Trainer Scheduling System--><g class="cluster" data-qualified-name="Class . Trainer Scheduling System" data-source-line="10" id="ent0006"><rect fill="none" height="750" rx="2.5" ry="2.5" style="stroke:#181818;stroke-width:1;" width="294.08" x="114.37" y="7"/><text fill="#000000" font-family="sans-serif" font-size="14" font-weight="bold" lengthAdjust="spacing" textLength="275.6934" x="123.5633" y="21.9951">Class &amp; Trainer Scheduling System</text></g><!--entity U1--><g class="entity" data-qualified-name="Class . Trainer Scheduling System.U1" data-source-line="11" id="ent0007"><ellipse cx="261.4128" cy="149.9966" fill="#F1F1F1" rx="116.8328" ry="25.7666" style="stroke:#181818;stroke-width:0.5;"/><text fill="#000000" font-family="sans-serif" font-size="14" lengthAdjust="spacing" textLength="212.584" x="155.1208" y="154.645">View Weekly Trainer Schedule</text></g><!--entity U2--><g class="entity" data-qualified-name="Class . Trainer Scheduling System.U2" data-source-line="12" id="ent0008"><ellipse cx="261.406" cy="233.0012" fill="#F1F1F1" rx="101.206" ry="22.6412" style="stroke:#181818;stroke-width:0.5;"/><text fill="#000000" font-family="sans-serif" font-size="14" lengthAdjust="spacing" textLength="178.7119" x="172.05" y="237.6496">View Session Participants</text></g><!--entity U3--><g class="entity" data-qualified-name="Class . Trainer Scheduling System.U3" data-source-line="13" id="ent0009"><ellipse cx="261.4087" cy="401.9977" fill="#F1F1F1" rx="86.5887" ry="19.7177" style="stroke:#181818;stroke-width:0.5;"/><text fill="#000000" font-family="sans-serif" font-size="14" lengthAdjust="spacing" textLength="145.9746" x="188.4214" y="406.6462">Create Class Session</text></g><!--entity U4--><g class="entity" data-qualified-name="Class . Trainer Scheduling System.U4" data-source-line="14" id="ent0010"><ellipse cx="261.4053" cy="722.9971" fill="#F1F1F1" rx="78.1353" ry="18.0271" style="stroke:#181818;stroke-width:0.5;"/><text fill="#000000" font-family="sans-serif" font-size="14" lengthAdjust="spacing" textLength="126.2598" x="198.2754" y="727.6455">Edit Class Session</text></g><!--entity U5--><g class="entity" data-qualified-name="Class . Trainer Scheduling System.U5" data-source-line="15" id="ent0011"><ellipse cx="261.4115" cy="572.0003" fill="#F1F1F1" rx="86.8515" ry="19.7703" style="stroke:#181818;stroke-width:0.5;"/><text fill="#000000" font-family="sans-serif" font-size="14" lengthAdjust="spacing" textLength="146.5762" x="188.1234" y="576.6487">Cancel Class Session</text></g><!--entity U6--><g class="entity" data-qualified-name="Class . Trainer Scheduling System.U6" data-source-line="16" id="ent0012"><ellipse cx="261.4099" cy="647.996" fill="#F1F1F1" rx="96.4299" ry="21.686" style="stroke:#181818;stroke-width:0.5;"/><text fill="#000000" font-family="sans-serif" font-size="14" lengthAdjust="spacing" textLength="168.1572" x="177.3312" y="652.6444">Assign/Reassign Trainer</text></g><!--entity U7--><g class="entity" data-qualified-name="Class . Trainer Scheduling System.U7" data-source-line="17" id="ent0013"><ellipse cx="261.4114" cy="65.9983" fill="#F1F1F1" rx="106.2414" ry="23.6483" style="stroke:#181818;stroke-width:0.5;"/><text fill="#000000" font-family="sans-serif" font-size="14" lengthAdjust="spacing" textLength="189.7246" x="166.5491" y="70.6467">View Public Class Schedule</text></g><!--entity U8--><g class="entity" data-qualified-name="Class . Trainer Scheduling System.U8" data-source-line="18" id="ent0014"><ellipse cx="261.4107" cy="318.9981" fill="#F1F1F1" rx="131.0407" ry="28.6081" style="stroke:#181818;stroke-width:0.5;"/><text fill="#000000" font-family="sans-serif" font-size="14" lengthAdjust="spacing" textLength="242.7715" x="140.025" y="323.6466">Update Session Attendance Status</text></g><!--entity U9--><g class="entity" data-qualified-name="Class . Trainer Scheduling System.U9" data-source-line="19" id="ent0015"><ellipse cx="261.4128" cy="478.9986" fill="#F1F1F1" rx="98.4928" ry="22.0986" style="stroke:#181818;stroke-width:0.5;"/><text fill="#000000" font-family="sans-serif" font-size="14" lengthAdjust="spacing" textLength="172.7305" x="175.0476" y="483.647">Notify Enrolled Members</text></g><!--entity Member--><g class="entity" data-qualified-name="Member" data-source-line="5" id="ent0002"><ellipse cx="36.683" cy="43.85" fill="#F1F1F1" rx="16" ry="16" style="stroke:#181818;stroke-width:0.5;"/><path d="M36.683,63.85 C40.683,63.85 43.683,63.85 47.683,59.85 C55.683,59.85 63.683,67.85 63.683,75.85 L63.683,79.85 C63.683,83.85 59.683,87.85 55.683,87.85 L17.683,87.85 C13.683,87.85 9.683,83.85 9.683,79.85 L9.683,75.85 C9.683,67.85 17.683,59.85 25.683,59.85 C29.683,63.85 32.683,63.85 36.683,63.85" fill="#F1F1F1" style="stroke:#181818;stroke-width:0.5;"/><text fill="#000000" font-family="sans-serif" font-size="14" lengthAdjust="spacing" textLength="57.5859" x="7.89" y="101.3451">Member</text></g><!--entity Trainer--><g class="entity" data-qualified-name="Trainer" data-source-line="6" id="ent0003"><ellipse cx="36.68" cy="210.85" fill="#F1F1F1" rx="16" ry="16" style="stroke:#181818;stroke-width:0.5;"/><path d="M36.68,230.85 C40.68,230.85 43.68,230.85 47.68,226.85 C55.68,226.85 63.68,234.85 63.68,242.85 L63.68,246.85 C63.68,250.85 59.68,254.85 55.68,254.85 L17.68,254.85 C13.68,254.85 9.68,250.85 9.68,246.85 L9.68,242.85 C9.68,234.85 17.68,226.85 25.68,226.85 C29.68,230.85 32.68,230.85 36.68,230.85" fill="#F1F1F1" style="stroke:#181818;stroke-width:0.5;"/><text fill="#000000" font-family="sans-serif" font-size="14" lengthAdjust="spacing" textLength="50.0186" x="11.6707" y="268.3451">Trainer</text></g><!--entity Manager--><g class="entity" data-qualified-name="Manager" data-source-line="7" id="ent0004"><ellipse cx="36.6831" cy="484.85" fill="#F1F1F1" rx="16" ry="16" style="stroke:#181818;stroke-width:0.5;"/><path d="M36.6831,504.85 C40.6831,504.85 43.6831,504.85 47.6831,500.85 C55.6831,500.85 63.6831,508.85 63.6831,516.85 L63.6831,520.85 C63.6831,524.85 59.6831,528.85 55.6831,528.85 L17.6831,528.85 C13.6831,528.85 9.6831,524.85 9.6831,520.85 L9.6831,516.85 C9.6831,508.85 17.6831,500.85 25.6831,500.85 C29.6831,504.85 32.6831,504.85 36.6831,504.85" fill="#F1F1F1" style="stroke:#181818;stroke-width:0.5;"/><text fill="#000000" font-family="sans-serif" font-size="14" lengthAdjust="spacing" textLength="61.3662" x="6" y="542.3451">Manager</text></g><!--entity Owner--><g class="entity" data-qualified-name="Owner" data-source-line="8" id="ent0005"><ellipse cx="36.68" cy="601.85" fill="#F1F1F1" rx="16" ry="16" style="stroke:#181818;stroke-width:0.5;"/><path d="M36.68,621.85 C40.68,621.85 43.68,621.85 47.68,617.85 C55.68,617.85 63.68,625.85 63.68,633.85 L63.68,637.85 C63.68,641.85 59.68,645.85 55.68,645.85 L17.68,645.85 C13.68,645.85 9.68,641.85 9.68,637.85 L9.68,633.85 C9.68,625.85 17.68,617.85 25.68,617.85 C29.68,621.85 32.68,621.85 36.68,621.85" fill="#F1F1F1" style="stroke:#181818;stroke-width:0.5;"/><text fill="#000000" font-family="sans-serif" font-size="14" lengthAdjust="spacing" textLength="45.7119" x="13.824" y="659.3451">Owner</text></g><!--link Trainer to U1--><g class="link" data-entity-1="ent0003" data-entity-2="ent0007" data-link-type="dependency" data-source-line="22" id="lnk16"><path d="M64.59,215.18 C76.94,207.57 92,199.07 106.37,193 C129.26,183.33 149.1845,176.75 172.9445,170.22" fill="none" id="Trainer-to-U1" style="stroke:#181818;stroke-width:1;"/><polygon fill="#181818" points="178.73,168.63,168.9918,167.1581,173.9088,169.955,171.1118,174.872,178.73,168.63" style="stroke:#181818;stroke-width:1;"/></g><!--link Trainer to U2--><g class="link" data-entity-1="ent0003" data-entity-2="ent0008" data-link-type="dependency" data-source-line="23" id="lnk17"><path d="M64.55,233 C88.44,233 118.92,233 153.95,233" fill="none" id="Trainer-to-U2" style="stroke:#181818;stroke-width:1;"/><polygon fill="#181818" points="159.95,233,150.95,229,154.95,233,150.95,237,159.95,233" style="stroke:#181818;stroke-width:1;"/></g><!--link Trainer to U8--><g class="link" data-entity-1="ent0003" data-entity-2="ent0014" data-link-type="dependency" data-source-line="24" id="lnk18"><path d="M64.64,250.7 C77,258.28 92.06,266.8 106.37,273 C127.88,282.32 146.1135,288.7443 168.6235,295.5043" fill="none" id="Trainer-to-U8" style="stroke:#181818;stroke-width:1;"/><polygon fill="#181818" points="174.37,297.23,166.9008,290.8104,169.5813,295.7919,164.5998,298.4724,174.37,297.23" style="stroke:#181818;stroke-width:1;"/></g><!--link Manager to U3--><g class="link" data-entity-1="ent0004" data-entity-2="ent0009" data-link-type="dependency" data-source-line="26" id="lnk19"><path d="M67.8,470.05 C78.84,458.6 92.15,446.92 106.37,439 C130.28,425.69 152.9988,418.3665 179.0188,412.8865" fill="none" id="Manager-to-U3" style="stroke:#181818;stroke-width:1;"/><polygon fill="#181818" points="184.89,411.65,175.2589,409.5906,179.9973,412.6804,176.9075,417.4189,184.89,411.65" style="stroke:#181818;stroke-width:1;"/></g><!--link Manager to U4--><g class="link" data-entity-1="ent0004" data-entity-2="ent0010" data-link-type="dependency" data-source-line="27" id="lnk20"><path d="M57.51,546.07 C60.94,553.3 64.37,560.83 67.37,568 C83.35,606.26 86.29,616.33 98.37,656 C102.51,669.61 96.19,677.05 106.37,687 C126.79,706.96 150.1272,715.6905 177.6572,720.1505" fill="none" id="Manager-to-U4" style="stroke:#181818;stroke-width:1;"/><polygon fill="#181818" points="183.58,721.11,175.3355,715.7222,178.6444,720.3104,174.0562,723.6192,183.58,721.11" style="stroke:#181818;stroke-width:1;"/></g><!--link Manager to U5--><g class="link" data-entity-1="ent0004" data-entity-2="ent0011" data-link-type="dependency" data-source-line="28" id="lnk21"><path d="M67.79,512.21 C77.59,514.1 88.5,516.42 98.37,519 C137.74,529.29 175.9065,541.8388 208.0365,553.0788" fill="none" id="Manager-to-U5" style="stroke:#181818;stroke-width:1;"/><polygon fill="#181818" points="213.7,555.06,206.5256,548.3125,208.9805,553.409,203.884,555.8638,213.7,555.06" style="stroke:#181818;stroke-width:1;"/></g><!--link Manager to U6--><g class="link" data-entity-1="ent0004" data-entity-2="ent0012" data-link-type="dependency" data-source-line="29" id="lnk22"><path d="M62.01,545.95 C79.13,572.86 100.08,604.58 106.37,609 C126.56,623.21 145.6271,630.8438 169.4771,636.5938" fill="none" id="Manager-to-U6" style="stroke:#181818;stroke-width:1;"/><polygon fill="#181818" points="175.31,638,167.4982,632.002,170.4493,636.8281,165.6232,639.7792,175.31,638" style="stroke:#181818;stroke-width:1;"/></g><!--link Owner to U3--><g class="link" data-entity-1="ent0005" data-entity-2="ent0009" data-link-type="dependency" data-source-line="31" id="lnk23"><path d="M57.71,585.01 C61.13,577.77 64.49,570.22 67.37,563 C72.71,549.58 95.81,448.85 106.37,439 C125.37,421.27 145.452,412.7836 170.652,407.6236" fill="none" id="Owner-to-U3" style="stroke:#181818;stroke-width:1;"/><polygon fill="#181818" points="176.53,406.42,166.9105,404.3067,171.6316,407.423,168.5153,412.1441,176.53,406.42" style="stroke:#181818;stroke-width:1;"/></g><!--link Owner to U4--><g class="link" data-entity-1="ent0005" data-entity-2="ent0010" data-link-type="dependency" data-source-line="32" id="lnk24"><path d="M64.51,654.64 C76.28,666.35 90.91,678.84 106.37,687 C132.47,700.79 157.9274,708.2098 185.5074,713.4998" fill="none" id="Owner-to-U4" style="stroke:#181818;stroke-width:1;"/><polygon fill="#181818" points="191.4,714.63,183.3146,709.0063,186.4895,713.6881,181.8076,716.863,191.4,714.63" style="stroke:#181818;stroke-width:1;"/></g><!--link Owner to U5--><g class="link" data-entity-1="ent0005" data-entity-2="ent0011" data-link-type="dependency" data-source-line="33" id="lnk25"><path d="M64.65,616.5 C74.87,613.72 86.63,610.62 97.37,608 C129.89,600.05 160.385,593.2157 190.505,586.7157" fill="none" id="Owner-to-U5" style="stroke:#181818;stroke-width:1;"/><polygon fill="#181818" points="196.37,585.45,186.7287,583.4385,191.4825,586.5047,188.4163,591.2585,196.37,585.45" style="stroke:#181818;stroke-width:1;"/></g><!--link Owner to U6--><g class="link" data-entity-1="ent0005" data-entity-2="ent0012" data-link-type="dependency" data-source-line="34" id="lnk26"><path d="M64.55,626.89 C91.62,629.81 128.8945,633.8271 167.8645,638.0271" fill="none" id="Owner-to-U6" style="stroke:#181818;stroke-width:1;"/><polygon fill="#181818" points="173.83,638.67,165.3104,633.7286,168.8588,638.1342,164.4532,641.6826,173.83,638.67" style="stroke:#181818;stroke-width:1;"/></g><!--link Member to U7--><g class="link" data-entity-1="ent0002" data-entity-2="ent0013" data-link-type="dependency" data-source-line="36" id="lnk27"><path d="M65.89,66 C88.6,66 116.03,66 148.79,66" fill="none" id="Member-to-U7" style="stroke:#181818;stroke-width:1;"/><polygon fill="#181818" points="154.79,66,145.79,62,149.79,66,145.79,70,154.79,66" style="stroke:#181818;stroke-width:1;"/></g><!--link U5 to U9--><g class="link" data-entity-1="ent0011" data-entity-2="ent0015" data-link-type="dependency" data-source-line="38" id="lnk28"><path d="M261.41,551.82 C261.41,536.97 261.41,522.78 261.41,507.42" fill="none" id="U5-to-U9" style="stroke:#181818;stroke-width:1;stroke-dasharray:7,7;"/><polygon fill="#181818" points="261.41,501.42,257.41,510.42,261.41,506.42,265.41,510.42,261.41,501.42" style="stroke:#181818;stroke-width:1;"/><text fill="#000000" font-family="sans-serif" font-size="13" lengthAdjust="spacing" textLength="63.0068" x="218.41" y="531.2269">&#171;include&#187;</text></g><?plantuml-src RP9DRy8m38Rl-HKMXztOD3x7X90GuiY6rh6TJMfAH9fMYIjKJVllQqcBqi4jJ_tOyfjKqu61Cx0gEJB4of9abHdXJihaQ3657EK94ugur0Hr6KsYAH1GScPz6S_aifI4k7o33QLxiWryMbJcIXiqrT2MtizrHLodGs-bqJbuQBiWaaUA2wrC0b7fcD8U_0Y0mf54L_bVYixmJNJIvVyUwW4ws3tVw14vLsM5BLfMKkLes7bt4BehIyW4VgEcnsl3K5l7Ykz9eyuiD9BqFMqSQikga9Yd3yBBeKtapSbDa6snrqgsKpkffw6yo-CwIPjxoKmchZU2Y96B9lnBsFAMiJgKi3OsqvhYvaaRSoP-XMXlkzzVr9VSmK4NNuHetjtpi8kZBewxE17YyfkqhG6CGXY7K3NvZJrEXTYDuR4wpU0LvdDbf2vYMYp47m00?></g></svg>