<?plantuml 1.2026.1?><svg xmlns="http://www.w3.org/2000/svg" xmlns:xlink="http://www.w3.org/1999/xlink" contentStyleType="text/css" data-diagram-type="DESCRIPTION" height="664px" preserveAspectRatio="none" style="width:444px;height:664px;background:#FFFFFF;" version="1.1" viewBox="0 0 444 664" width="444px" zoomAndPan="magnify"><defs/><g><!--cluster Reporting, Analytics & Settings System--><g class="cluster" data-qualified-name="Reporting. Analytics . Settings System" data-source-line="8" id="ent0004"><rect fill="none" height="651" rx="2.5" ry="2.5" style="stroke:#181818;stroke-width:1;" width="327.22" x="111.37" y="7"/><text fill="#000000" font-family="sans-serif" font-size="14" font-weight="bold" lengthAdjust="spacing" textLength="312.0195" x="118.9702" y="21.9951">Reporting, Analytics &amp; Settings System</text></g><!--entity U1--><g class="entity" data-qualified-name="Reporting. Analytics . Settings System.U1" data-source-line="9" id="ent0005"><ellipse cx="274.4778" cy="64.9996" fill="#F1F1F1" rx="104.3978" ry="23.2796" style="stroke:#181818;stroke-width:0.5;"/><text fill="#000000" font-family="sans-serif" font-size="14" lengthAdjust="spacing" textLength="185.7051" x="181.6253" y="69.648">View Daily Ops Dashboard</text></g><!--entity U2--><g class="entity" data-qualified-name="Reporting. Analytics . Settings System.U2" data-source-line="10" id="ent0006"><ellipse cx="274.4778" cy="143.9996" fill="#F1F1F1" rx="92.0478" ry="20.8096" style="stroke:#181818;stroke-width:0.5;"/><text fill="#000000" font-family="sans-serif" font-size="14" lengthAdjust="spacing" textLength="158.3613" x="195.2971" y="148.648">View Revenue Reports</text></g><!--entity U3--><g class="entity" data-qualified-name="Reporting. Analytics . Settings System.U3" data-source-line="11" id="ent0007"><ellipse cx="274.4834" cy="223.0007" fill="#F1F1F1" rx="103.5034" ry="23.1007" style="stroke:#181818;stroke-width:0.5;"/><text fill="#000000" font-family="sans-serif" font-size="14" lengthAdjust="spacing" textLength="183.75" x="182.6084" y="227.6491">View Subscription Reports</text></g><!--entity U4--><g class="entity" data-qualified-name="Reporting. Analytics . Settings System.U4" data-source-line="12" id="ent0008"><ellipse cx="274.4832" cy="620.9986" fill="#F1F1F1" rx="95.1432" ry="21.4286" style="stroke:#181818;stroke-width:0.5;"/><text fill="#000000" font-family="sans-serif" font-size="14" lengthAdjust="spacing" textLength="165.293" x="191.8367" y="625.6471">View Platform Analytics</text></g><!--entity U5--><g class="entity" data-qualified-name="Reporting. Analytics . Settings System.U5" data-source-line="13" id="ent0009"><ellipse cx="274.4824" cy="301.0045" fill="#F1F1F1" rx="87.5724" ry="19.9145" style="stroke:#181818;stroke-width:0.5;"/><text fill="#000000" font-family="sans-serif" font-size="14" lengthAdjust="spacing" textLength="148.2236" x="200.3706" y="305.6529">Export Reports (CSV)</text></g><!--entity U6--><g class="entity" data-qualified-name="Reporting. Analytics . Settings System.U6" data-source-line="14" id="ent0010"><ellipse cx="274.4841" cy="458.0048" fill="#F1F1F1" rx="96.0241" ry="21.6048" style="stroke:#181818;stroke-width:0.5;"/><text fill="#000000" font-family="sans-serif" font-size="14" lengthAdjust="spacing" textLength="167.2549" x="190.8566" y="462.6532">Configure Gym Settings</text></g><!--entity U7--><g class="entity" data-qualified-name="Reporting. Analytics . Settings System.U7" data-source-line="15" id="ent0011"><ellipse cx="274.4844" cy="540.0029" fill="#F1F1F1" rx="113.1144" ry="25.0229" style="stroke:#181818;stroke-width:0.5;"/><text fill="#000000" font-family="sans-serif" font-size="14" lengthAdjust="spacing" textLength="204.5996" x="172.1846" y="544.6513">Configure Language Defaults</text></g><!--entity U8--><g class="entity" data-qualified-name="Reporting. Analytics . Settings System.U8" data-source-line="16" id="ent0012"><ellipse cx="274.4754" cy="378.9951" fill="#F1F1F1" rx="101.7754" ry="22.7551" style="stroke:#181818;stroke-width:0.5;"/><text fill="#000000" font-family="sans-serif" font-size="14" lengthAdjust="spacing" textLength="179.9629" x="184.494" y="383.6435">Upload/Update Gym Logo</text></g><!--entity Manager--><g class="entity" data-qualified-name="Manager" data-source-line="5" id="ent0002"><ellipse cx="36.6831" cy="172.85" fill="#F1F1F1" rx="16" ry="16" style="stroke:#181818;stroke-width:0.5;"/><path d="M36.6831,192.85 C40.6831,192.85 43.6831,192.85 47.6831,188.85 C55.6831,188.85 63.6831,196.85 63.6831,204.85 L63.6831,208.85 C63.6831,212.85 59.6831,216.85 55.6831,216.85 L17.6831,216.85 C13.6831,216.85 9.6831,212.85 9.6831,208.85 L9.6831,204.85 C9.6831,196.85 17.6831,188.85 25.6831,188.85 C29.6831,192.85 32.6831,192.85 36.6831,192.85" fill="#F1F1F1" style="stroke:#181818;stroke-width:0.5;"/><text fill="#000000" font-family="sans-serif" font-size="14" lengthAdjust="spacing" textLength="61.3662" x="6" y="230.3451">Manager</text></g><!--entity Owner--><g class="entity" data-qualified-name="Owner" data-source-line="6" id="ent0003"><ellipse cx="36.68" cy="306.85" fill="#F1F1F1" rx="16" ry="16" style="stroke:#181818;stroke-width:0.5;"/><path d="M36.68,326.85 C40.68,326.85 43.68,326.85 47.68,322.85 C55.68,322.85 63.68,330.85 63.68,338.85 L63.68,342.85 C63.68,346.85 59.68,350.85 55.68,350.85 L17.68,350.85 C13.68,350.85 9.68,346.85 9.68,342.85 L9.68,338.85 C9.68,330.85 17.68,322.85 25.68,322.85 C29.68,326.85 32.68,326.85 36.68,326.85" fill="#F1F1F1" style="stroke:#181818;stroke-width:0.5;"/><text fill="#000000" font-family="sans-serif" font-size="14" lengthAdjust="spacing" textLength="45.7119" x="13.824" y="364.3451">Owner</text></g><!--link Manager to U1--><g class="link" data-entity-1="ent0002" data-entity-2="ent0005" data-link-type="dependency" data-source-line="19" id="lnk13"><path d="M57.9,156.22 C69.05,138.42 84.48,118.53 103.37,106 C126.15,90.88 148.0905,82.6653 174.5505,76.6253" fill="none" id="Manager-to-U1" style="stroke:#181818;stroke-width:1;"/><polygon fill="#181818" points="180.4,75.29,170.7355,73.3932,175.5254,76.4027,172.5159,81.1926,180.4,75.29" style="stroke:#181818;stroke-width:1;"/></g><!--link Manager to U2--><g class="link" data-entity-1="ent0002" data-entity-2="ent0006" data-link-type="dependency" data-source-line="20" id="lnk14"><path d="M67.55,188.54 C102.37,181.01 155.1357,169.5986 200.9457,159.6886" fill="none" id="Manager-to-U2" style="stroke:#181818;stroke-width:1;"/><polygon fill="#181818" points="206.81,158.42,197.1677,156.4134,201.923,159.4772,198.8592,164.2325,206.81,158.42" style="stroke:#181818;stroke-width:1;"/></g><!--link Manager to U3--><g class="link" data-entity-1="ent0002" data-entity-2="ent0007" data-link-type="dependency" data-source-line="21" id="lnk15"><path d="M67.55,198.55 C96.36,201.97 135.5119,206.6122 176.1719,211.4422" fill="none" id="Manager-to-U3" style="stroke:#181818;stroke-width:1;"/><polygon fill="#181818" points="182.13,212.15,173.6647,207.1163,177.1649,211.5602,172.721,215.0604,182.13,212.15" style="stroke:#181818;stroke-width:1;"/></g><!--link Manager to U5--><g class="link" data-entity-1="ent0002" data-entity-2="ent0009" data-link-type="dependency" data-source-line="22" id="lnk16"><path d="M67.35,234.13 C77.62,245.3 89.96,256.46 103.37,264 C130.5,279.25 157.4335,287.165 186.9935,292.445" fill="none" id="Manager-to-U5" style="stroke:#181818;stroke-width:1;"/><polygon fill="#181818" points="192.9,293.5,184.7436,287.9798,187.9779,292.6208,183.3369,295.8551,192.9,293.5" style="stroke:#181818;stroke-width:1;"/></g><!--link Owner to U1--><g class="link" data-entity-1="ent0003" data-entity-2="ent0005" data-link-type="dependency" data-source-line="24" id="lnk17"><path d="M53.56,290.04 C58.32,277.67 63.34,263.86 67.37,251 C87.21,187.63 56.25,152.79 103.37,106 C122.01,87.48 141.6404,78.1782 167.1904,72.1482" fill="none" id="Owner-to-U1" style="stroke:#181818;stroke-width:1;"/><polygon fill="#181818" points="173.03,70.77,163.3519,68.9442,168.1637,71.9185,165.1894,76.7303,173.03,70.77" style="stroke:#181818;stroke-width:1;"/></g><!--link Owner to U2--><g class="link" data-entity-1="ent0003" data-entity-2="ent0006" data-link-type="dependency" data-source-line="25" id="lnk18"><path d="M53,289.99 C69.43,248.97 94.38,189.34 103.37,182 C125.98,163.52 149.8097,154.6591 178.0897,149.4391" fill="none" id="Owner-to-U2" style="stroke:#181818;stroke-width:1;"/><polygon fill="#181818" points="183.99,148.35,174.4134,146.0501,179.0731,149.2576,175.8656,153.9172,183.99,148.35" style="stroke:#181818;stroke-width:1;"/></g><!--link Owner to U3--><g class="link" data-entity-1="ent0003" data-entity-2="ent0007" data-link-type="dependency" data-source-line="26" id="lnk19"><path d="M64.56,295.72 C75.48,284.14 88.93,272.04 103.37,264 C128.18,250.17 151.7044,242.2884 179.0044,236.1884" fill="none" id="Owner-to-U3" style="stroke:#181818;stroke-width:1;"/><polygon fill="#181818" points="184.86,234.88,175.2043,232.9389,179.9803,235.9703,176.9489,240.7463,184.86,234.88" style="stroke:#181818;stroke-width:1;"/></g><!--link Owner to U4--><g class="link" data-entity-1="ent0003" data-entity-2="ent0008" data-link-type="dependency" data-source-line="27" id="lnk20"><path d="M42.75,367.96 C51.82,431.51 72.76,553.39 103.37,583 C123.81,602.78 146.2837,612.0393 173.9937,617.2593" fill="none" id="Owner-to-U4" style="stroke:#181818;stroke-width:1;"/><polygon fill="#181818" points="179.89,618.37,171.7861,612.773,174.9764,617.4444,170.3051,620.6347,179.89,618.37" style="stroke:#181818;stroke-width:1;"/></g><!--link Owner to U5--><g class="link" data-entity-1="ent0003" data-entity-2="ent0009" data-link-type="dependency" data-source-line="28" id="lnk21"><path d="M64.27,325.84 C96.01,322.07 144.5318,316.3072 189.9418,310.9172" fill="none" id="Owner-to-U5" style="stroke:#181818;stroke-width:1;"/><polygon fill="#181818" points="195.9,310.21,186.4913,307.2987,190.9349,310.7993,187.4342,315.2429,195.9,310.21" style="stroke:#181818;stroke-width:1;"/></g><!--link Owner to U6--><g class="link" data-entity-1="ent0003" data-entity-2="ent0010" data-link-type="dependency" data-source-line="29" id="lnk22"><path d="M57.47,367.85 C68.6,385.99 84.15,406.33 103.37,419 C127.4,434.84 151.1397,443.1074 178.8997,448.7374" fill="none" id="Owner-to-U6" style="stroke:#181818;stroke-width:1;"/><polygon fill="#181818" points="184.78,449.93,176.7546,444.2209,179.8798,448.9362,175.1645,452.0613,184.78,449.93" style="stroke:#181818;stroke-width:1;"/></g><!--link Owner to U7--><g class="link" data-entity-1="ent0003" data-entity-2="ent0011" data-link-type="dependency" data-source-line="30" id="lnk23"><path d="M42.55,367.81 C49.42,406.16 65.67,463.75 103.37,497 C121.98,513.42 140.1937,522.1998 164.2737,528.6398" fill="none" id="Owner-to-U7" style="stroke:#181818;stroke-width:1;"/><polygon fill="#181818" points="170.07,530.19,162.409,524.0006,165.2398,528.8982,160.3421,531.7289,170.07,530.19" style="stroke:#181818;stroke-width:1;"/></g><!--link Owner to U8--><g class="link" data-entity-1="ent0003" data-entity-2="ent0012" data-link-type="dependency" data-source-line="31" id="lnk24"><path d="M64.27,334.64 C96.79,341.53 147.3206,352.2448 193.3706,362.0148" fill="none" id="Owner-to-U8" style="stroke:#181818;stroke-width:1;"/><polygon fill="#181818" points="199.24,363.26,191.2661,357.4792,194.3489,362.2223,189.6058,365.305,199.24,363.26" style="stroke:#181818;stroke-width:1;"/></g><?plantuml-src RP5DRy8m343l-HKMXscJXgQLpzEa2QPTc9Yeu6vQjqIaIPIawwff_tqjeP2AtVpYPoUn1MKEd0B3yuE3b1jA75UIsIEN6WqMe34vOawngmL1cqQP2me4J9moFeqLMLKGOwSp-43PL9ephIlPnEpI0WORqieuBlD7U9KeQiSJ2tSGasiFBSIrTLGCu8S1b9OIj4tHZbC5I-IYXhMsJMGFUuKc7G1Qs3xVg1lw8baI-Ckirw8RBIxtDZ5Sjx_lkwCRzrEWovGfhg_svZWqtxxR7bqhk5_4kmUlJK9jeMJ6yz8GlDV5vUjUdFulhfhnbSrWOKaPbg9xvooqjreeJ9-sEaNdMwzKhhmuPx-CdNS3m-5BExKUHdqSzN72s6cLNMa0KGYZ4COXJ4AOXZ0BOSx-0000?></g></svg>