<?plantuml 1.2026.1?><svg xmlns="http://www.w3.org/2000/svg" xmlns:xlink="http://www.w3.org/1999/xlink" contentStyleType="text/css" data-diagram-type="DESCRIPTION" height="759px" preserveAspectRatio="none" style="width:473px;height:759px;background:#FFFFFF;" version="1.1" viewBox="0 0 473 759" width="473px" zoomAndPan="magnify"><defs/><g><!--cluster Notification System--><g class="cluster" data-qualified-name="Notification System" data-source-line="13" id="ent0009"><rect fill="none" height="570" rx="2.5" ry="2.5" style="stroke:#181818;stroke-width:1;" width="309.45" x="158.14" y="138.15"/><text fill="#000000" font-family="sans-serif" font-size="14" font-weight="bold" lengthAdjust="spacing" textLength="155.7295" x="235.0003" y="153.1451">Notification System</text></g><!--entity U1--><g class="entity" data-qualified-name="Notification System.U1" data-source-line="14" id="ent0010"><ellipse cx="312.8566" cy="279.1533" fill="#F1F1F1" rx="121.3166" ry="26.6633" style="stroke:#181818;stroke-width:0.5;"/><text fill="#000000" font-family="sans-serif" font-size="14" lengthAdjust="spacing" textLength="222.1611" x="201.776" y="283.8018">Configure Notification Channels</text></g><!--entity U2--><g class="entity" data-qualified-name="Notification System.U2" data-source-line="15" id="ent0011"><ellipse cx="312.8552" cy="371.145" fill="#F1F1F1" rx="138.7252" ry="30.145" style="stroke:#181818;stroke-width:0.5;"/><text fill="#000000" font-family="sans-serif" font-size="14" lengthAdjust="spacing" textLength="258.9316" x="183.3894" y="375.7935">Schedule Expiry Reminder (D-7, D-1)</text></g><!--entity U3--><g class="entity" data-qualified-name="Notification System.U3" data-source-line="16" id="ent0012"><ellipse cx="312.8563" cy="473.1493" fill="#F1F1F1" rx="91.0463" ry="20.6093" style="stroke:#181818;stroke-width:0.5;"/><text fill="#000000" font-family="sans-serif" font-size="14" lengthAdjust="spacing" textLength="156.1055" x="234.8036" y="477.7977">Send Expiry Reminder</text></g><!--entity U4--><g class="entity" data-qualified-name="Notification System.U4" data-source-line="17" id="ent0013"><ellipse cx="312.8595" cy="664.1479" fill="#F1F1F1" rx="126.6395" ry="27.7279" style="stroke:#181818;stroke-width:0.5;"/><text fill="#000000" font-family="sans-serif" font-size="14" lengthAdjust="spacing" textLength="233.4678" x="196.1256" y="668.7963">Send Session Cancellation Notice</text></g><!--entity U5--><g class="entity" data-qualified-name="Notification System.U5" data-source-line="18" id="ent0014"><ellipse cx="312.8604" cy="565.1481" fill="#F1F1F1" rx="88.4904" ry="20.0981" style="stroke:#181818;stroke-width:0.5;"/><text fill="#000000" font-family="sans-serif" font-size="14" lengthAdjust="spacing" textLength="150.3154" x="237.7027" y="569.7965">Track Delivery Status</text></g><!--entity U6--><g class="entity" data-qualified-name="Notification System.U6" data-source-line="19" id="ent0015"><ellipse cx="312.8586" cy="195.1537" fill="#F1F1F1" rx="98.4186" ry="22.0837" style="stroke:#181818;stroke-width:0.5;"/><text fill="#000000" font-family="sans-serif" font-size="14" lengthAdjust="spacing" textLength="172.5664" x="226.5754" y="199.8022">View Notification History</text></g><!--entity Member--><g class="entity" data-qualified-name="Member" data-source-line="5" id="ent0002"><ellipse cx="58.573" cy="22" fill="#F1F1F1" rx="16" ry="16" style="stroke:#181818;stroke-width:0.5;"/><path d="M58.573,42 C62.573,42 65.573,42 69.573,38 C77.573,38 85.573,46 85.573,54 L85.573,58 C85.573,62 81.573,66 77.573,66 L39.573,66 C35.573,66 31.573,62 31.573,58 L31.573,54 C31.573,46 39.573,38 47.573,38 C51.573,42 54.573,42 58.573,42" fill="#F1F1F1" style="stroke:#181818;stroke-width:0.5;"/><text fill="#000000" font-family="sans-serif" font-size="14" lengthAdjust="spacing" textLength="57.5859" x="29.78" y="79.4951">Member</text></g><!--entity Manager--><g class="entity" data-qualified-name="Manager" data-source-line="6" id="ent0003"><ellipse cx="58.5731" cy="246" fill="#F1F1F1" rx="16" ry="16" style="stroke:#181818;stroke-width:0.5;"/><path d="M58.5731,266 C62.5731,266 65.5731,266 69.5731,262 C77.5731,262 85.5731,270 85.5731,278 L85.5731,282 C85.5731,286 81.5731,290 77.5731,290 L39.5731,290 C35.5731,290 31.5731,286 31.5731,282 L31.5731,278 C31.5731,270 39.5731,262 47.5731,262 C51.5731,266 54.5731,266 58.5731,266" fill="#F1F1F1" style="stroke:#181818;stroke-width:0.5;"/><text fill="#000000" font-family="sans-serif" font-size="14" lengthAdjust="spacing" textLength="61.3662" x="27.89" y="303.4951">Manager</text></g><!--entity Owner--><g class="entity" data-qualified-name="Owner" data-source-line="7" id="ent0004"><ellipse cx="58.57" cy="134" fill="#F1F1F1" rx="16" ry="16" style="stroke:#181818;stroke-width:0.5;"/><path d="M58.57,154 C62.57,154 65.57,154 69.57,150 C77.57,150 85.57,158 85.57,166 L85.57,170 C85.57,174 81.57,178 77.57,178 L39.57,178 C35.57,178 31.57,174 31.57,170 L31.57,166 C31.57,158 39.57,150 47.57,150 C51.57,154 54.57,154 58.57,154" fill="#F1F1F1" style="stroke:#181818;stroke-width:0.5;"/><text fill="#000000" font-family="sans-serif" font-size="14" lengthAdjust="spacing" textLength="45.7119" x="35.714" y="191.4951">Owner</text></g><!--entity Scheduler--><g class="entity" data-qualified-name="Scheduler" data-source-line="8" id="ent0005"><ellipse cx="58.57" cy="358" fill="#F1F1F1" rx="16" ry="16" style="stroke:#181818;stroke-width:0.5;"/><path d="M58.57,378 C62.57,378 65.57,378 69.57,374 C77.57,374 85.57,382 85.57,390 L85.57,394 C85.57,398 81.57,402 77.57,402 L39.57,402 C35.57,402 31.57,398 31.57,394 L31.57,390 C31.57,382 39.57,374 47.57,374 C51.57,378 54.57,378 58.57,378" fill="#F1F1F1" style="stroke:#181818;stroke-width:0.5;"/><text fill="#000000" font-family="sans-serif" font-size="14" lengthAdjust="spacing" textLength="52.2061" x="32.467" y="415.4951">System</text></g><!--entity Email--><g class="entity" data-qualified-name="Email" data-source-line="9" id="ent0006"><ellipse cx="58.5684" cy="470" fill="#F1F1F1" rx="16" ry="16" style="stroke:#181818;stroke-width:0.5;"/><path d="M58.5684,490 C62.5684,490 65.5684,490 69.5684,486 C77.5684,486 85.5684,494 85.5684,502 L85.5684,506 C85.5684,510 81.5684,514 77.5684,514 L39.5684,514 C35.5684,514 31.5684,510 31.5684,506 L31.5684,502 C31.5684,494 39.5684,486 47.5684,486 C51.5684,490 54.5684,490 58.5684,490" fill="#F1F1F1" style="stroke:#181818;stroke-width:0.5;"/><text fill="#000000" font-family="sans-serif" font-size="14" lengthAdjust="spacing" textLength="105.1367" x="6" y="527.4951">Email Gateway</text></g><!--entity Sms--><g class="entity" data-qualified-name="Sms" data-source-line="10" id="ent0007"><ellipse cx="58.5637" cy="582" fill="#F1F1F1" rx="16" ry="16" style="stroke:#181818;stroke-width:0.5;"/><path d="M58.5637,602 C62.5637,602 65.5637,602 69.5637,598 C77.5637,598 85.5637,606 85.5637,614 L85.5637,618 C85.5637,622 81.5637,626 77.5637,626 L39.5637,626 C35.5637,626 31.5637,622 31.5637,618 L31.5637,614 C31.5637,606 39.5637,598 47.5637,598 C51.5637,602 54.5637,602 58.5637,602" fill="#F1F1F1" style="stroke:#181818;stroke-width:0.5;"/><text fill="#000000" font-family="sans-serif" font-size="14" lengthAdjust="spacing" textLength="96.1475" x="10.49" y="639.4951">SMS Gateway</text></g><!--entity Push--><g class="entity" data-qualified-name="Push" data-source-line="11" id="ent0008"><ellipse cx="58.5669" cy="694" fill="#F1F1F1" rx="16" ry="16" style="stroke:#181818;stroke-width:0.5;"/><path d="M58.5669,714 C62.5669,714 65.5669,714 69.5669,710 C77.5669,710 85.5669,718 85.5669,726 L85.5669,730 C85.5669,734 81.5669,738 77.5669,738 L39.5669,738 C35.5669,738 31.5669,734 31.5669,730 L31.5669,726 C31.5669,718 39.5669,710 47.5669,710 C51.5669,714 54.5669,714 58.5669,714" fill="#F1F1F1" style="stroke:#181818;stroke-width:0.5;"/><text fill="#000000" font-family="sans-serif" font-size="14" lengthAdjust="spacing" textLength="89.6738" x="13.73" y="751.4951">Push Service</text></g><!--link Manager to U1--><g class="link" data-entity-1="ent0003" data-entity-2="ent0010" data-link-type="dependency" data-source-line="22" id="lnk16"><path d="M89.75,269.47 C115.78,270.6 149.1357,272.0592 187.5157,273.7292" fill="none" id="Manager-to-U1" style="stroke:#181818;stroke-width:1;"/><polygon fill="#181818" points="193.51,273.99,184.6924,269.6025,188.5147,273.7726,184.3446,277.595,193.51,273.99" style="stroke:#181818;stroke-width:1;"/></g><!--link Owner to U1--><g class="link" data-entity-1="ent0004" data-entity-2="ent0010" data-link-type="dependency" data-source-line="23" id="lnk17"><path d="M86.41,185.42 C103.24,202.18 126.22,222.35 150.14,235.15 C171.56,246.62 190.4259,253.6851 213.9259,260.1651" fill="none" id="Owner-to-U1" style="stroke:#181818;stroke-width:1;"/><polygon fill="#181818" points="219.71,261.76,212.0971,255.5115,214.8899,260.4309,209.9705,263.2237,219.71,261.76" style="stroke:#181818;stroke-width:1;"/></g><!--link Owner to U6--><g class="link" data-entity-1="ent0004" data-entity-2="ent0015" data-link-type="dependency" data-source-line="24" id="lnk18"><path d="M86.57,160.33 C120.76,165.61 175.2904,174.0434 224.9704,181.7234" fill="none" id="Owner-to-U6" style="stroke:#181818;stroke-width:1;"/><polygon fill="#181818" points="230.9,182.64,222.6167,177.312,225.9587,181.8761,221.3946,185.2181,230.9,182.64" style="stroke:#181818;stroke-width:1;"/></g><!--link Manager to U6--><g class="link" data-entity-1="ent0003" data-entity-2="ent0015" data-link-type="dependency" data-source-line="25" id="lnk19"><path d="M89.49,256.34 C107.01,249.65 129.65,241.4 150.14,235.15 C179.88,226.08 207.3236,218.9717 235.9236,212.1517" fill="none" id="Manager-to-U6" style="stroke:#181818;stroke-width:1;"/><polygon fill="#181818" points="241.76,210.76,232.0776,208.9567,236.8964,211.9198,233.9333,216.7385,241.76,210.76" style="stroke:#181818;stroke-width:1;"/></g><!--link Member to U6--><g class="link" data-entity-1="ent0002" data-entity-2="ent0015" data-link-type="dependency" data-source-line="26" id="lnk20"><path d="M87.53,60.89 C133.85,88.61 221.2215,140.909 271.7715,171.159" fill="none" id="Member-to-U6" style="stroke:#181818;stroke-width:1;"/><polygon fill="#181818" points="276.92,174.24,271.2512,166.1862,272.6295,171.6725,267.1432,173.0509,276.92,174.24" style="stroke:#181818;stroke-width:1;"/></g><!--link Scheduler to U2--><g class="link" data-entity-1="ent0005" data-entity-2="ent0011" data-link-type="dependency" data-source-line="28" id="lnk21"><path d="M86.57,379.19 C108.62,378.4 135.6039,377.4453 169.5739,376.2253" fill="none" id="Scheduler-to-U2" style="stroke:#181818;stroke-width:1;"/><polygon fill="#181818" points="175.57,376.01,166.4322,372.3356,170.5732,376.1895,166.7194,380.3304,175.57,376.01" style="stroke:#181818;stroke-width:1;"/></g><!--link Scheduler to U3--><g class="link" data-entity-1="ent0005" data-entity-2="ent0012" data-link-type="dependency" data-source-line="29" id="lnk22"><path d="M86.27,392.36 C104.18,400.36 128.38,410.85 150.14,419.15 C185.68,432.71 220.5663,444.4289 252.2063,454.5689" fill="none" id="Scheduler-to-U3" style="stroke:#181818;stroke-width:1;"/><polygon fill="#181818" points="257.92,456.4,250.5701,449.8441,253.1585,454.874,248.1286,457.4624,257.92,456.4" style="stroke:#181818;stroke-width:1;"/></g><!--link Email to U3--><g class="link" data-entity-1="ent0006" data-entity-2="ent0012" data-link-type="dependency" data-source-line="31" id="lnk23"><path d="M111.54,488.24 C144.57,485.75 182.147,482.9212 220.207,480.0512" fill="none" id="Email-to-U3" style="stroke:#181818;stroke-width:1;"/><polygon fill="#181818" points="226.19,479.6,216.9147,476.2881,221.2042,479.976,217.5163,484.2654,226.19,479.6" style="stroke:#181818;stroke-width:1;"/></g><!--link Sms to U3--><g class="link" data-entity-1="ent0007" data-entity-2="ent0012" data-link-type="dependency" data-source-line="32" id="lnk24"><path d="M98.55,565.31 C113.7,551.82 131.8,537.49 150.14,527.15 C180.82,509.85 212.151,498.6188 243.081,489.7788" fill="none" id="Sms-to-U3" style="stroke:#181818;stroke-width:1;"/><polygon fill="#181818" points="248.85,488.13,239.0973,486.7572,244.0425,489.504,241.2957,494.4492,248.85,488.13" style="stroke:#181818;stroke-width:1;"/></g><!--link Push to U3--><g class="link" data-entity-1="ent0008" data-entity-2="ent0012" data-link-type="dependency" data-source-line="33" id="lnk25"><path d="M99.43,677.22 C103.78,671.77 107.82,666.02 111.14,660.15 C118.72,646.75 139.45,538.24 150.14,527.15 C172.11,504.34 198.1585,492.6621 227.7985,485.0521" fill="none" id="Push-to-U3" style="stroke:#181818;stroke-width:1;"/><polygon fill="#181818" points="233.61,483.56,223.898,481.9238,228.7671,484.8034,225.8875,489.6725,233.61,483.56" style="stroke:#181818;stroke-width:1;"/></g><!--link Email to U4--><g class="link" data-entity-1="ent0006" data-entity-2="ent0013" data-link-type="dependency" data-source-line="34" id="lnk26"><path d="M96.56,531.06 C101.57,536.69 106.56,542.5 111.14,548.15 C129.99,571.44 126.41,584.84 150.14,603.15 C173.06,620.85 196.0162,631.8897 222.7862,641.2497" fill="none" id="Email-to-U4" style="stroke:#181818;stroke-width:1;"/><polygon fill="#181818" points="228.45,643.23,221.2745,636.4837,223.7302,641.5797,218.6341,644.0354,228.45,643.23" style="stroke:#181818;stroke-width:1;"/></g><!--link Sms to U4--><g class="link" data-entity-1="ent0007" data-entity-2="ent0013" data-link-type="dependency" data-source-line="35" id="lnk27"><path d="M107.02,615.44 C140.42,623.38 180.2428,632.8516 219.9728,642.3016" fill="none" id="Sms-to-U4" style="stroke:#181818;stroke-width:1;"/><polygon fill="#181818" points="225.81,643.69,217.9799,637.716,220.9457,642.533,216.1287,645.4988,225.81,643.69" style="stroke:#181818;stroke-width:1;"/></g><!--link Push to U4--><g class="link" data-entity-1="ent0008" data-entity-2="ent0013" data-link-type="dependency" data-source-line="36" id="lnk28"><path d="M103.8,707.03 C135.67,700.47 173.9536,692.5816 213.3836,684.4516" fill="none" id="Push-to-U4" style="stroke:#181818;stroke-width:1;"/><polygon fill="#181818" points="219.26,683.24,209.6377,681.1399,214.363,684.2497,211.2532,688.9751,219.26,683.24" style="stroke:#181818;stroke-width:1;"/></g><!--link U2 to U3--><g class="link" data-entity-1="ent0011" data-entity-2="ent0012" data-link-type="dependency" data-source-line="38" id="lnk29"><path d="M312.86,401.44 C312.86,417.9 312.86,431.84 312.86,446.51" fill="none" id="U2-to-U3" style="stroke:#181818;stroke-width:1;stroke-dasharray:7,7;"/><polygon fill="#181818" points="312.86,452.51,316.86,443.51,312.86,447.51,308.86,443.51,312.86,452.51" style="stroke:#181818;stroke-width:1;"/><text fill="#000000" font-family="sans-serif" font-size="13" lengthAdjust="spacing" textLength="63.0068" x="269.86" y="431.4869">&#171;include&#187;</text></g><!--link U3 to U5--><g class="link" data-entity-1="ent0012" data-entity-2="ent0014" data-link-type="dependency" data-source-line="39" id="lnk30"><path d="M312.86,494.15 C312.86,509.32 312.86,523.7 312.86,538.73" fill="none" id="U3-to-U5" style="stroke:#181818;stroke-width:1;stroke-dasharray:7,7;"/><polygon fill="#181818" points="312.86,544.73,316.86,535.73,312.86,539.73,308.86,535.73,312.86,544.73" style="stroke:#181818;stroke-width:1;"/><text fill="#000000" font-family="sans-serif" font-size="13" lengthAdjust="spacing" textLength="63.0068" x="269.86" y="523.9769">&#171;include&#187;</text></g><!--link U4 to U5--><g class="link" data-entity-1="ent0013" data-entity-2="ent0014" data-link-type="dependency" data-source-line="40" id="lnk31"><path d="M312.86,636.05 C312.86,619.93 312.86,606.06 312.86,591.46" fill="none" id="U4-to-U5" style="stroke:#181818;stroke-width:1;stroke-dasharray:7,7;"/><polygon fill="#181818" points="312.86,585.46,308.86,594.46,312.86,590.46,316.86,594.46,312.86,585.46" style="stroke:#181818;stroke-width:1;"/><text fill="#000000" font-family="sans-serif" font-size="13" lengthAdjust="spacing" textLength="63.0068" x="269.86" y="615.4069">&#171;include&#187;</text></g><?plantuml-src RLBBJiCm4BpxArOzWKIGsgOWeQgNje9B0M72tJZRnAhZLBRJ427-7JilajBRxipiQiTZYNiBDWSjajH2B3HoAt95p46e8zCiWoFZ1vOWjPL4y3HJYSI1W76RwuPc9PeyGq9g37QOVQBk6gRScgvxALLVqyfOT7iCK9vYNCYUcMmp9YGyCeibgoPUKYCTJNTqHDBCTDHhOLAWg4-2OyrvW93U04oUSolsWZFljxrX0jy4e338cN6ATQxs8YaqmaYxJfbIA4szDfeE9pe3iFqw2bt16sP2nQZXQXFSty0cc5utKxFH5AhuVAAHpV_9A1fJ7y4KHocRY_nvhSqe78wyQvSUR52A4xhbr39Rj7SlXheFWUNOv9CmxXsRPutko0yXRO0G12llkaxmGdCt5hgs_WLTH_gC6sHs3im9QL9lEvTfLzQPjlL04_vfme4c92IQmQrNmmCibq9nMSIuMX47U7Xn3eSNuLy0?></g></svg>